<?xml version="1.0" standalone="no"?>
<!DOCTYPE svg PUBLIC "-//W3C//DTD SVG 1.1//EN" "http://www.w3.org/Graphics/SVG/1.1/DTD/svg11.dtd" >
<svg xmlns="http://www.w3.org/2000/svg" xmlns:xlink="http://www.w3.org/1999/xlink" version="1.1">
<metadata></metadata>
<defs>
<font id="db_helvethaicamon_x75_bd" horiz-adv-x="0" >
<font-face units-per-em="2048" ascent="1638" descent="-410" />
<missing-glyph horiz-adv-x="501" />
<glyph unicode="&#x2b;&#x2d;" horiz-adv-x="1199" d="M45 115.5q0 31.5 10.5 54t28 36t42 19t53.5 5.5h843q28 0 51.5 -5.5t42.5 -19t29 -36t10 -54t-10 -53.5t-29 -36t-43.5 -20t-50.5 -6h-843q-29 0 -53.5 6t-42 20t-28 36t-10.5 53.5zM46 822q0 54 37.5 84t100.5 30h300v302q0 31 8 56t23 43.5t36.5 29t48.5 10.5 q28 0 49.5 -10.5t36.5 -29t23 -43t8 -56.5v-302h300q63 0 100.5 -30t37.5 -84q0 -53 -37.5 -83.5t-100.5 -30.5h-300v-303q0 -31 -8 -55.5t-23 -43t-36.5 -28.5t-49.5 -10q-27 0 -48.5 10t-36.5 28.5t-23 43t-8 55.5v303h-300q-31 0 -57 9.5t-43.5 25.5t-27.5 37t-10 42z " />
<glyph unicode="&#x2e;&#x2e;&#x2e;" horiz-adv-x="1998" d="M180 156q0 34 12 63t35.5 52t52 35t63.5 12q34 0 63 -12t52 -35t35 -52t12 -63q0 -35 -12 -64t-35 -52t-52 -35t-63 -12q-35 0 -63.5 12t-52 35t-35.5 52t-12 64zM832 156q0 34 13 63t35.5 52t52 35t63.5 12q35 0 64 -12t51 -35t34.5 -52t12.5 -63q0 -35 -12.5 -64 t-34.5 -52t-52 -35q-28 -12 -63 -12q-34 0 -63.5 12t-52 35t-35.5 52t-13 64zM1492 156q0 34 12 63t34.5 52t51.5 35t63 12q35 0 64.5 -12t51.5 -35t35 -52t13 -63q0 -35 -13 -64t-35 -52t-51.5 -35t-64.5 -12q-34 0 -63 12t-51.5 35t-34.5 52t-12 64z" />
<glyph unicode="&#x3c;&#x3d;" horiz-adv-x="1291" d="M88 115.5q0 31.5 10.5 54t28 36t42 19t53.5 5.5h818q27 0 51 -5.5t42.5 -19t28.5 -36t10 -54t-10 -53.5t-28.5 -36t-43 -20t-50.5 -6h-818q-29 0 -53.5 6t-42 20t-28 36t-10.5 53.5zM89 851q0 37 20.5 67t51.5 44l798 366q32 14 63.5 23.5t60.5 6t51 -21.5q24 -17 35 -54 q18 -49 -4 -89q-22 -41 -82 -67l-631 -275l622 -272q32 -13 53.5 -31t33 -39.5t13 -45.5t-9.5 -48q-15 -32 -36.5 -48.5t-47.5 -20t-56 3.5t-65 23l-798 367q-31 15 -51.5 45t-20.5 66z" />
<glyph unicode="&#x3e;&#x3d;" horiz-adv-x="1291" d="M117.5 463q0.5 24 13 45.5t34.5 40t52 30.5l623 272l-631 275q-62 26 -82 66.5t-5 89.5q12 37 34.5 54.5t51 21t60.5 -5.5q32 -10 65 -24l796 -366q32 -14 52 -44.5t20 -66.5q0 -37 -20 -66.5t-52 -44.5l-796 -367q-35 -17 -66 -23.5t-57 -3t-46.5 20t-35.5 48.5 q-11 24 -10.5 48zM120 115.5q0 31.5 10.5 54t28.5 36t42 19t52 5.5h818q29 0 52 -5.5t42 -19t29 -36t10 -54t-10 -53.5t-29 -36t-43 -20q-22 -6 -51 -6h-818q-27 0 -51.5 6t-42.5 20t-28.5 36t-10.5 53.5z" />
<glyph unicode="&#xe4f;&#x22;" horiz-adv-x="1460" d="M95 602q0 88 22.5 169t64 151t100 128.5t129.5 98.5t152.5 63.5t170.5 23.5q87 0 167.5 -23.5t151 -63.5t128 -98.5t98 -128.5t63.5 -151t23 -169t-23 -169.5t-63.5 -152t-98 -128t-128 -98.5t-151 -63.5t-167.5 -22.5q-89 0 -170.5 22.5t-152.5 63.5t-129.5 98.5 t-100 128t-64 152t-22.5 169.5zM295 608q0 -61 15 -116.5t44 -104.5t69.5 -89t89.5 -69.5t105 -45.5t116 -16q59 0 114.5 16t103 45.5t88 69.5t68.5 89t44 104.5t16 116.5q0 89 -34.5 168t-93.5 138t-137.5 93t-168.5 34q-92 0 -172 -34t-139.5 -93t-93.5 -138t-34 -168z M395 608q0 67 27 127.5t73 106t108 73t131 27.5q68 0 128 -27.5t105 -73t72 -106t27 -127.5q0 -69 -27 -131t-72 -107.5t-105 -72t-128 -26.5q-69 0 -131 26.5t-108 72t-73 107.5t-27 131zM490 1457v199q0 23 7 42.5t20 33t31.5 22.5t41.5 9t42 -9t32 -22.5t20 -33t7 -42.5 v-199q0 -46 -27.5 -75.5t-73.5 -29.5t-73 29.5t-27 75.5zM576 608q0 -33 11.5 -62.5t33 -51.5t50.5 -33.5t63 -11.5q32 0 59.5 11.5t47.5 33.5t31.5 51.5t11.5 62.5q0 31 -11.5 58.5t-31.5 48.5t-47.5 33t-59.5 12q-34 0 -63 -12t-50.5 -33t-33 -48.5t-11.5 -58.5zM783 1457 v199q0 23 7.5 42.5t20.5 33t31.5 22.5t41.5 9t42 -9t32 -22.5t20 -33t7 -42.5v-199q0 -46 -27.5 -75.5t-73.5 -29.5t-73.5 29.5t-27.5 75.5z" />
<glyph unicode="&#xe0e;&#xe3a;" horiz-adv-x="1347" d="M43 117q0 23 8 44.5t23 37.5t35.5 25t43.5 9h27v418q0 26 -8 54q-8 29 -29 55q-21 25 -33 41.5t-15 32.5t1 34q2 16 13 42q29 63 75 122.5t114 104.5t158.5 72t207.5 27q109 0 193.5 -20.5t147.5 -55t108 -83.5t72 -105t39 -119.5t12 -129.5v-975q0 -37 -14.5 -69.5 t-39 -57t-57.5 -39t-71 -14.5q-40 0 -73 16t-59 42q-18 17 -38.5 33.5t-49 28.5t-61.5 20q-33 7 -76 7q-46 0 -85.5 -10t-74 -26.5t-67 -40.5t-67.5 -53q-17 -14 -37 -20t-40.5 -4.5t-40.5 11.5t-33 28q-14 17 -20 37t-4 40.5t12.5 39.5t24.5 35q42 44 91 79t104.5 61 t114.5 40.5t122 14.5q78 0 135.5 -16.5t99.5 -37.5v850q0 42 -14 83t-45 74t-82 54t-127 22q-58 0 -103 -10.5t-77.5 -28.5t-52 -39.5t-28.5 -42.5q19 -17 33.5 -35.5t23.5 -42.5t13.5 -55t4.5 -74v-531q0 -23 -8 -45t-23 -37.5t-35 -25t-43 -9.5h-216q-23 0 -43.5 9.5 t-35.5 25t-23 36.5t-8 46zM893 -694q0 39 15.5 74t41 60.5t59.5 40.5t74 15q37 0 70.5 -15t59 -40.5t40 -60t14.5 -74.5q0 -38 -14.5 -71t-40 -59t-59 -40t-70.5 -14q-39 0 -73.5 14t-60 40t-41 59t-15.5 71z" />
<glyph unicode="&#xe0f;&#xe3a;" horiz-adv-x="1347" d="M43 117q0 23 8 44.5t23 37.5t35.5 25t43.5 9h27v418q0 26 -8 54q-8 29 -29 55q-21 25 -33 41.5t-15 32.5t1 34q2 16 13 42q29 63 75 122.5t114 104.5t158.5 72t207.5 27q109 0 193.5 -20.5t147.5 -55t108 -83.5t72 -105t39 -119.5t12 -129.5v-995q0 -38 -14.5 -69 t-38.5 -53t-56.5 -35t-69.5 -13q-39 0 -72 13.5t-50 46.5q-9 18 -19 33.5t-21 28t-24 19t-27 6.5q-26 0 -45 -18t-29 -44q-15 -38 -50 -61.5t-78 -23.5q-21 0 -40.5 6.5t-36 18t-29.5 27.5q-12 16 -20 36q-11 26 -27.5 44t-43.5 18q-29 0 -50 -20q-21 -19 -32 -45 q-12 -29 -32 -49t-44.5 -29t-51 -9t-52.5 12t-44 30.5t-26.5 43t-7 51t11.5 52.5q20 49 51 84.5t69.5 58.5t82.5 34q43 10 92 10q34 0 65 -8t58 -20.5t50 -31.5t40 -39q16 20 37 36.5t44.5 29.5t50 20.5t54.5 7.5q40 0 70.5 -14t50.5 -31v861q0 42 -14 83t-45 74t-82 54 t-127 22q-58 0 -103 -10.5t-77.5 -28.5t-52 -39.5t-28.5 -42.5q19 -17 33.5 -35.5t23.5 -42.5t13.5 -55t4.5 -74v-531q0 -23 -8 -45t-23 -37.5t-35 -25t-43 -9.5h-216q-23 0 -43.5 9.5t-35.5 25t-23 36.5t-8 46zM893 -694q0 39 15.5 74t41 60.5t59.5 40.5t74 15 q37 0 70.5 -15t59 -40.5t40 -60t14.5 -74.5q0 -38 -14.5 -71t-40 -59t-59 -40t-70.5 -14q-39 0 -73.5 14t-60 40t-41 59t-15.5 71z" />
<glyph unicode="&#xe0e;&#xe38;" horiz-adv-x="1347" d="M43 117q0 23 8 44.5t23 37.5t35.5 25t43.5 9h27v418q0 26 -8 54q-8 29 -29 55q-21 25 -33 41.5t-15 32.5t1 34q2 16 13 42q29 63 75 122.5t114 104.5t158.5 72t207.5 27q109 0 193.5 -20.5t147.5 -55t108 -83.5t72 -105t39 -119.5t12 -129.5v-975q0 -37 -14.5 -69.5 t-39 -57t-57.5 -39t-71 -14.5q-40 0 -73 16t-59 42q-18 17 -38.5 33.5t-49 28.5t-61.5 20q-33 7 -76 7q-46 0 -85.5 -10t-74 -26.5t-67 -40.5t-67.5 -53q-17 -14 -37 -20t-40.5 -4.5t-40.5 11.5t-33 28q-14 17 -20 37t-4 40.5t12.5 39.5t24.5 35q42 44 91 79t104.5 61 t114.5 40.5t122 14.5q78 0 135.5 -16.5t99.5 -37.5v850q0 42 -14 83t-45 74t-82 54t-127 22q-58 0 -103 -10.5t-77.5 -28.5t-52 -39.5t-28.5 -42.5q19 -17 33.5 -35.5t23.5 -42.5t13.5 -55t4.5 -74v-531q0 -23 -8 -45t-23 -37.5t-35 -25t-43 -9.5h-216q-23 0 -43.5 9.5 t-35.5 25t-23 36.5t-8 46zM804 -629q0 23 7.5 42.5t21.5 33.5t32 23q16 9 39 9h231q23 0 41 -9t31.5 -23t21 -34.5t7.5 -41.5v-298q0 -29 -11 -52t-29 -40.5t-44 -27.5t-53 -10q-29 0 -54 10t-44 27.5t-29 41.5q-10 22 -10 51v190h-58q-23 0 -40 8.5t-31 23t-21.5 34.5 t-7.5 42z" />
<glyph unicode="&#xe0f;&#xe38;" horiz-adv-x="1347" d="M43 117q0 23 8 44.5t23 37.5t35.5 25t43.5 9h27v418q0 26 -8 54q-8 29 -29 55q-21 25 -33 41.5t-15 32.5t1 34q2 16 13 42q29 63 75 122.5t114 104.5t158.5 72t207.5 27q109 0 193.5 -20.5t147.5 -55t108 -83.5t72 -105t39 -119.5t12 -129.5v-995q0 -38 -14.5 -69 t-38.5 -53t-56.5 -35t-69.5 -13q-39 0 -72 13.5t-50 46.5q-9 18 -19 33.5t-21 28t-24 19t-27 6.5q-26 0 -45 -18t-29 -44q-15 -38 -50 -61.5t-78 -23.5q-21 0 -40.5 6.5t-36 18t-29.5 27.5q-12 16 -20 36q-11 26 -27.5 44t-43.5 18q-29 0 -50 -20q-21 -19 -32 -45 q-12 -29 -32 -49t-44.5 -29t-51 -9t-52.5 12t-44 30.5t-26.5 43t-7 51t11.5 52.5q20 49 51 84.5t69.5 58.5t82.5 34q43 10 92 10q34 0 65 -8t58 -20.5t50 -31.5t40 -39q16 20 37 36.5t44.5 29.5t50 20.5t54.5 7.5q40 0 70.5 -14t50.5 -31v861q0 42 -14 83t-45 74t-82 54 t-127 22q-58 0 -103 -10.5t-77.5 -28.5t-52 -39.5t-28.5 -42.5q19 -17 33.5 -35.5t23.5 -42.5t13.5 -55t4.5 -74v-531q0 -23 -8 -45t-23 -37.5t-35 -25t-43 -9.5h-216q-23 0 -43.5 9.5t-35.5 25t-23 36.5t-8 46zM804 -629q0 23 7.5 42.5t21.5 33.5t32 23q16 9 39 9h231 q23 0 41 -9t31.5 -23t21 -34.5t7.5 -41.5v-298q0 -29 -11 -52t-29 -40.5t-44 -27.5t-53 -10q-29 0 -54 10t-44 27.5t-29 41.5q-10 22 -10 51v190h-58q-23 0 -40 8.5t-31 23t-21.5 34.5t-7.5 42z" />
<glyph unicode="&#xe0e;&#xe39;" horiz-adv-x="1347" d="M43 117q0 23 8 44.5t23 37.5t35.5 25t43.5 9h27v418q0 26 -8 54q-8 29 -29 55q-21 25 -33 41.5t-15 32.5t1 34q2 16 13 42q29 63 75 122.5t114 104.5t158.5 72t207.5 27q109 0 193.5 -20.5t147.5 -55t108 -83.5t72 -105t39 -119.5t12 -129.5v-975q0 -37 -14.5 -69.5 t-39 -57t-57.5 -39t-71 -14.5q-40 0 -73 16t-59 42q-18 17 -38.5 33.5t-49 28.5t-61.5 20q-33 7 -76 7q-46 0 -85.5 -10t-74 -26.5t-67 -40.5t-67.5 -53q-17 -14 -37 -20t-40.5 -4.5t-40.5 11.5t-33 28q-14 17 -20 37t-4 40.5t12.5 39.5t24.5 35q42 44 91 79t104.5 61 t114.5 40.5t122 14.5q78 0 135.5 -16.5t99.5 -37.5v850q0 42 -14 83t-45 74t-82 54t-127 22q-58 0 -103 -10.5t-77.5 -28.5t-52 -39.5t-28.5 -42.5q19 -17 33.5 -35.5t23.5 -42.5t13.5 -55t4.5 -74v-531q0 -23 -8 -45t-23 -37.5t-35 -25t-43 -9.5h-216q-23 0 -43.5 9.5 t-35.5 25t-23 36.5t-8 46zM403 -638q0 23 8 44.5t22.5 37.5t34.5 25q22 10 45 10h187q23 0 43 -9.5t34.5 -25.5t22.5 -36.5t8 -45.5v-73q0 -46 18 -70t58 -24q78 -1 78 94v67q0 29 10 54.5t29 43.5t44.5 28.5t53.5 10.5q29 0 54 -10.5t43 -28.5t29 -44t11 -54v-67 q0 -68 -19 -128t-60 -104.5t-108 -71t-165 -26.5q-88 0 -150.5 21t-105.5 59t-66 90.5t-28 115.5h-21q-23 0 -44 9.5t-35.5 25.5t-22.5 37t-8 45z" />
<glyph unicode="&#xe0f;&#xe39;" horiz-adv-x="1347" d="M43 117q0 23 8 44.5t23 37.5t35.5 25t43.5 9h27v418q0 26 -8 54q-8 29 -29 55q-21 25 -33 41.5t-15 32.5t1 34q2 16 13 42q29 63 75 122.5t114 104.5t158.5 72t207.5 27q109 0 193.5 -20.5t147.5 -55t108 -83.5t72 -105t39 -119.5t12 -129.5v-995q0 -38 -14.5 -69 t-38.5 -53t-56.5 -35t-69.5 -13q-39 0 -72 13.5t-50 46.5q-9 18 -19 33.5t-21 28t-24 19t-27 6.5q-26 0 -45 -18t-29 -44q-15 -38 -50 -61.5t-78 -23.5q-21 0 -40.5 6.5t-36 18t-29.5 27.5q-12 16 -20 36q-11 26 -27.5 44t-43.5 18q-29 0 -50 -20q-21 -19 -32 -45 q-12 -29 -32 -49t-44.5 -29t-51 -9t-52.5 12t-44 30.5t-26.5 43t-7 51t11.5 52.5q20 49 51 84.5t69.5 58.5t82.5 34q43 10 92 10q34 0 65 -8t58 -20.5t50 -31.5t40 -39q16 20 37 36.5t44.5 29.5t50 20.5t54.5 7.5q40 0 70.5 -14t50.5 -31v861q0 42 -14 83t-45 74t-82 54 t-127 22q-58 0 -103 -10.5t-77.5 -28.5t-52 -39.5t-28.5 -42.5q19 -17 33.5 -35.5t23.5 -42.5t13.5 -55t4.5 -74v-531q0 -23 -8 -45t-23 -37.5t-35 -25t-43 -9.5h-216q-23 0 -43.5 9.5t-35.5 25t-23 36.5t-8 46zM403 -638q0 23 8 44.5t22.5 37.5t34.5 25q22 10 45 10h187 q23 0 43 -9.5t34.5 -25.5t22.5 -36.5t8 -45.5v-73q0 -46 18 -70t58 -24q78 -1 78 94v67q0 29 10 54.5t29 43.5t44.5 28.5t53.5 10.5q29 0 54 -10.5t43 -28.5t29 -44t11 -54v-67q0 -68 -19 -128t-60 -104.5t-108 -71t-165 -26.5q-88 0 -150.5 21t-105.5 59t-66 90.5 t-28 115.5h-21q-23 0 -44 9.5t-35.5 25.5t-22.5 37t-8 45z" />
<glyph unicode="&#xd;" horiz-adv-x="568" />
<glyph unicode=" "  horiz-adv-x="501" />
<glyph unicode="&#x09;" horiz-adv-x="501" />
<glyph unicode="&#xa0;" horiz-adv-x="501" />
<glyph unicode="!" horiz-adv-x="810" d="M245 147q0 33 13 62.5t34.5 51t50.5 34.5t63 13q33 0 62 -13t51 -34.5t34.5 -51t12.5 -62.5t-12.5 -62.5t-34.5 -51t-51.5 -34.5t-61.5 -13q-33 0 -62.5 13t-51 34.5t-34.5 51t-13 62.5zM251 1014v285q0 75 40 113t115 38t114.5 -38t39.5 -113v-285l-62 -543 q-3 -20 -10 -34.5t-20 -22.5t-29 -11.5t-33 -3.5q-20 0 -36 3.5t-27.5 11.5t-20 21.5t-11.5 35.5z" />
<glyph unicode="&#x22;" horiz-adv-x="911" d="M164 1031v308q0 28 8.5 50t24.5 39.5t37.5 26.5t49.5 9q26 0 48 -9t38 -26.5t24.5 -40.5t8.5 -49v-308q0 -27 -8.5 -51t-24.5 -40t-37.5 -26t-49 -10t-49 10t-37.5 26t-24.5 39t-8.5 52zM513 1031v308q0 28 7.5 50t23.5 39.5t37.5 26.5t49.5 9q26 0 48 -9t38 -26.5 t24 -40.5t8 -49v-308q0 -27 -8 -51t-24 -40t-38 -26t-48 -10q-28 0 -49.5 10t-37.5 26t-23.5 39t-7.5 52z" />
<glyph unicode="#" horiz-adv-x="1229" d="M88 491q0 17 5 33.5t17 30.5t31.5 22t45.5 8h108l33 237h-77q-28 0 -47.5 8t-31 21.5t-17 30.5t-5.5 34t5.5 34.5t17 31t31 21.5t47.5 8h106l43 305q3 22 10.5 40t21 32.5t34.5 22t51 7.5q20 0 36.5 -5.5t29.5 -16.5t21.5 -25.5t8.5 -34.5q0 -8 -1 -24t-6 -43l-39 -258 h185l43 305q3 22 10 40t20 32.5t34 21.5q19 8 51 8q20 0 37.5 -5.5t30.5 -16.5t21 -25.5t8 -34.5q0 -8 -2 -24q-3 -16 -6 -43l-37 -258h81q25 0 44 -8t31 -21.5t17 -30.5q5 -18 5 -35t-5 -34t-17 -30.5t-31 -21.5t-44 -8h-110l-32 -237h78q28 0 47 -8t30.5 -22t17.5 -30.5 t6 -33.5t-6 -35t-17.5 -31t-30.5 -21t-47 -8h-106l-45 -304q-3 -21 -9.5 -40.5t-20 -32.5t-34.5 -22t-53 -9q-20 0 -36.5 6t-29.5 17t-21 26t-8 32q0 9 1.5 25.5t4.5 43.5l38 258h-182l-43 -304q-3 -21 -10 -40.5t-20 -32.5t-35 -22t-52 -9q-20 0 -36.5 6t-30 17t-21.5 26 t-8 32q0 9 2 25.5t5 43.5l37 258h-79q-26 0 -45.5 8t-31.5 21t-17 30t-5 36zM507 585h181l35 237h-183z" />
<glyph unicode="$" horiz-adv-x="1297" d="M95 353q0 62 33 95t91 33q40 0 64.5 -12.5t39 -31.5t23 -45t17.5 -53.5t21.5 -53.5t37 -47.5t63.5 -34.5t101 -16v425q-109 20 -195 55.5t-145 87t-89 118.5t-30 152q0 104 36.5 182.5t100 131.5t147 81.5t175.5 31.5v118q0 14 6 27t15 22.5t20.5 15t24.5 5.5 q12 0 24 -5.5t21.5 -15t15.5 -22.5t6 -27v-118q37 -2 86.5 -10.5t101 -26t100.5 -42.5t87 -58t61.5 -75t23.5 -91q0 -29 -10 -53.5t-26.5 -40t-39.5 -24.5t-47 -9q-32 0 -54.5 16t-42 40.5t-39 53.5t-46.5 53.5t-64.5 41.5t-90.5 17v-386q64 -14 124.5 -31.5t114.5 -41 t99 -56t77 -78t49.5 -105t17.5 -137.5q0 -102 -34.5 -180t-97 -131t-151.5 -82.5t-199 -35.5v-127q0 -13 -6 -25t-15.5 -22t-21 -16t-24.5 -6q-11 0 -23.5 6t-21.5 16t-15 22t-6 25v127q-83 3 -151.5 19.5t-123.5 44.5t-95 64.5t-67 78t-40.5 83.5t-13.5 83zM374 1071 q0 -76 51 -122q50 -45 161 -68v363q-50 -1 -89 -16.5t-66.5 -38.5t-42 -54t-14.5 -64zM719 187q43 3 85.5 15.5t75.5 36t53 60.5q20 35 20 87t-21.5 86.5t-56 57.5t-76.5 37q-42 15 -80 23v-403z" />
<glyph unicode="%" horiz-adv-x="1998" d="M145 1025q0 55 7.5 108.5t24 101t42.5 86t63.5 67.5t87.5 45t114 16q99 0 166 -34t107.5 -91t56 -133t15.5 -161q0 -55 -7.5 -107t-25.5 -98.5t-45.5 -85.5t-66.5 -68t-88 -44.5t-112 -15.5q-92 0 -157 31.5t-105.5 87.5t-58.5 132.5t-18 162.5zM360 1029.5 q0 -37.5 4.5 -80t17.5 -78.5t36 -60q23 -25 63 -25q42 0 68 24t39.5 60t18.5 78.5t5 81.5q0 37 -3.5 79t-16.5 78.5t-38 60.5q-27 24 -70 24q-38 0 -62.5 -24t-37 -60.5t-18.5 -78.5t-6 -79.5zM553 45q0 17 6 36q5 20 17 40l684 1293q6 12 14.5 23.5t20 20.5t26 15.5 t31.5 6.5q20 0 37.5 -8t29.5 -20t19.5 -26.5t7.5 -31.5t-6 -35q-6 -20 -17 -40l-684 -1295q-6 -11 -14.5 -22t-19.5 -21t-25.5 -15.5t-32.5 -5.5q-21 0 -38 7t-29.5 19.5t-19.5 27.5t-7 31zM1166 400q0 84 17.5 161.5t58 136t107.5 93.5q68 36 166 36t162.5 -34t103.5 -91 t55.5 -133.5t16.5 -162.5q0 -82 -19.5 -157.5t-59.5 -133t-105 -92.5t-154 -35q-95 0 -161.5 32.5t-108 89t-60.5 131t-19 159.5zM1384 403q0 -34 4 -76t17 -78t38 -60q26 -25 66 -25t64.5 23t38.5 59t19 79q5 41 5 81q0 38 -4.5 80t-17.5 79t-36 61q-23 23 -63 23 q-29 0 -49 -10.5t-34.5 -30t-24 -44t-14.5 -52t-7 -55.5t-2 -54z" />
<glyph unicode="&#x26;" horiz-adv-x="1303" d="M50 369q0 80 24 145.5t65.5 119.5t98 96t119.5 74q-26 30 -50.5 62.5t-43 66t-30 72t-11.5 82.5q0 87 31.5 152.5t86.5 110t125.5 67.5t148 23t138 -15t105 -41t76.5 -60t50.5 -73t27.5 -79t9 -76q0 -59 -19 -112.5t-51.5 -99.5t-77.5 -82t-97 -62l196 -233 q18 37 37.5 76t38.5 68q20 29 46 44.5t56 15.5q23 0 46 -8.5t40.5 -24.5t29 -36t11.5 -43q0 -26 -13 -62t-33 -72t-46 -71q-26 -34 -52 -60l116 -144q28 -33 28 -79q0 -23 -10 -45.5t-29 -39.5t-46 -28.5t-62 -11.5q-17 0 -30 4t-24.5 12t-21.5 18t-19 22l-91 105 q-47 -46 -99 -79t-109.5 -53.5t-118 -30.5t-126.5 -10q-78 0 -140 16t-111 44.5t-85 66t-59 81.5t-34 91.5t-11 95.5zM315 395q0 -44 19 -79t50 -59t71 -37t81 -13q77 0 136 28q60 30 103 88l-274 322q-37 -23 -71 -48t-59 -54.5t-40.5 -65.5t-15.5 -82zM481 1112 q0 -38 10 -66.5t28 -53t42 -46.5t51 -45q24 15 52.5 33.5t52 43t39.5 56.5t16 73q0 26 -11 50t-30.5 42.5t-46.5 28.5t-59 10t-58 -10t-45 -27t-30 -40t-11 -49z" />
<glyph unicode="'" horiz-adv-x="554" d="M157 1031v308q0 28 8.5 50t23.5 39.5t37.5 26.5t49.5 9q26 0 48.5 -9t38.5 -26.5t24 -40.5t8 -49v-308q0 -27 -8 -51t-24 -40t-38.5 -26t-48.5 -10q-27 0 -49.5 10t-37.5 26t-23.5 39t-8.5 52z" />
<glyph unicode="(" horiz-adv-x="663" d="M92 541q0 165 39.5 336t111.5 344q32 72 56 124.5t44 88t37 57t33 33t32 14.5t33 3q25 0 45.5 -7.5t35 -21t23 -31.5t8.5 -38q0 -26 -14 -70.5t-37 -106.5t-48.5 -140t-48 -169.5t-36.5 -195.5t-14 -220q0 -115 14 -220t36.5 -196.5t48 -168.5t48.5 -139t37 -107 q14 -47 14 -73q0 -20 -8.5 -37.5t-23 -30.5t-34.5 -21.5t-46 -8.5q-19 0 -34 4.5t-31 15t-33 31.5t-37 57t-44.5 88t-55.5 124q-72 173 -111.5 345.5t-39.5 336.5z" />
<glyph unicode=")" horiz-adv-x="663" d="M73 -363q0 26 15.5 72t37 108t47.5 139t48 168.5t37 195.5q16 106 16 221q0 116 -15.5 220t-37.5 195.5t-48 169.5t-47.5 140t-37 106.5t-15.5 70.5q0 20 8 38t23.5 31.5t36 21t43.5 7.5q19 0 35.5 -3t32.5 -14.5t32.5 -33t36 -57t44 -88t55.5 -124.5q72 -173 112 -344 t40 -336q0 -164 -40 -336.5t-112 -345.5q-31 -72 -55.5 -124t-44 -88t-36 -57t-32.5 -31.5t-32 -15t-36 -4.5q-24 0 -44 8.5t-35.5 21.5t-23.5 30.5t-8 37.5z" />
<glyph unicode="*" horiz-adv-x="819" d="M40 1224q0 23 9 40.5t22.5 29t27.5 16.5q13 6 25 6q10 0 25 -4t28 -9l148 -53v170q0 44 22 68t63 24t63 -24.5t22 -67.5v-170l149 53q11 6 26 9.5t26.5 3.5t25.5 -5.5t27.5 -17t22 -29t8.5 -40.5q0 -58 -72 -81q-41 -11 -83 -24t-84 -25l116 -149q10 -13 16.5 -27 t6.5 -31q0 -26 -10 -43t-26 -26.5t-31 -13t-24 -3.5q-22 0 -40.5 8.5t-30.5 24.5q-26 40 -53 81t-55 81q-27 -40 -54.5 -80t-53.5 -82q-11 -16 -30 -24.5t-39 -8.5q-8 0 -24 3.5t-32 13t-26 26.5t-10 43q0 17 7.5 31.5t15.5 26.5l115 149l-167 49q-72 23 -72 81z" />
<glyph unicode="+" horiz-adv-x="1199" d="M46 570q0 54 37.5 84.5t100.5 30.5h300v303q0 30 8 55t23 43t36.5 28.5t48.5 10.5q28 0 49.5 -10.5t36.5 -28.5t23 -43.5t8 -54.5v-303h300q63 0 100.5 -30.5t37.5 -84.5q0 -53 -37.5 -84t-100.5 -31h-300v-302q0 -31 -8 -56t-23 -43t-36.5 -28t-49.5 -10q-27 0 -48.5 10 t-36.5 28t-23 43t-8 56v302h-300q-31 0 -57 10t-43.5 26t-27.5 36t-10 43z" />
<glyph unicode="," horiz-adv-x="613" d="M132 147q0 33 12.5 62.5t35 51t51 34.5t61.5 13q48 0 84 -16t59.5 -44.5t36 -70.5t12.5 -91q0 -51 -8.5 -94.5t-22.5 -79.5t-33.5 -66t-42.5 -55q-14 -17 -35.5 -35t-46 -34t-49 -26t-47.5 -10q-32 0 -49.5 17.5t-17.5 40.5q0 20 13 34.5t34 28.5t46.5 30t48.5 39t41 56 q19 33 25 82q-26 -17 -66 -17q-35 0 -61 12.5t-44.5 33t-27.5 48t-9 56.5z" />
<glyph unicode="-" horiz-adv-x="963" d="M58 570.5q0 31.5 10.5 54t28.5 36t42.5 19t52.5 5.5h580q27 0 51 -5.5t42.5 -19t28.5 -36t10 -54t-10 -53.5t-28.5 -36t-43 -20t-50.5 -6h-580q-29 0 -53 6t-42 20t-28.5 36t-10.5 53.5z" />
<glyph unicode="." horiz-adv-x="613" d="M144 156q0 34 12 63t34.5 52t52.5 35q28 12 62 12q35 0 64.5 -12t52 -35t35 -52t12.5 -63q0 -35 -12.5 -64t-35 -52t-52 -35t-64.5 -12q-34 0 -63 12t-51.5 35t-34.5 52t-12 64z" />
<glyph unicode="/" horiz-adv-x="802" d="M26 69q0 17 5.5 34.5t11.5 33.5l504 1274q6 12 13 27.5t20 28t33.5 20.5t51.5 8q19 0 38.5 -7.5t35.5 -20.5t26.5 -31.5t10.5 -44.5q0 -17 -5 -33t-12 -33l-504 -1276l-13 -26t-20 -27t-34 -21t-51 -8q-19 0 -38.5 6.5t-36 20t-26.5 33t-10 42.5z" />
<glyph unicode="0" horiz-adv-x="1170" d="M65 706q0 57 2 118.5t10.5 123t24 121.5t42 113.5t64 99.5t90.5 79t123.5 51.5t163.5 18.5q121 0 207 -33t144 -87.5t91.5 -127.5t51 -153.5t22.5 -165t5 -158.5q0 -81 -5 -166.5t-22.5 -166.5t-51 -153.5t-91.5 -126t-144 -85t-207 -31.5q-91 0 -162.5 17.5t-124.5 50.5 t-90.5 77.5t-64 98t-42 112.5t-24 122t-10.5 126.5t-2 124.5zM363 705.5q0 -43.5 1.5 -95t7 -104t20 -101t39 -86t62 -60.5t92 -23t93 23t63.5 60.5t38 86t20 101t8 103.5q1 52 1 95.5t-1 94t-8 102t-20 99t-38 85t-63.5 60t-93 22.5t-92 -22.5t-62 -60t-38 -85t-20 -99 t-8 -102t-1.5 -94z" />
<glyph unicode="1" horiz-adv-x="1170" d="M147 1017q0 26 7 46t24.5 33t43.5 23t65 16l73 17q55 12 88 35.5t54.5 53t37.5 60t33 56t42.5 41.5t67.5 16q23 0 43.5 -5.5t36 -21t24.5 -41.5q9 -24 9 -64v-1128q0 -37 -8 -69.5t-25 -55t-44.5 -34.5t-69.5 -12q-40 0 -68 12t-45.5 34.5t-25 54t-7.5 70.5v814 q-41 -16 -77.5 -27.5t-70.5 -18t-62 -9.5t-48 -3q-49 0 -73.5 23t-24.5 84z" />
<glyph unicode="2" horiz-adv-x="1170" d="M66 148q0 107 92 224q93 115 277 236q68 43 120.5 78t93.5 64.5t69 55.5t46 55t26 60.5t8 73.5q0 49 -16.5 85t-45 60t-65.5 35.5t-78 11.5q-46 0 -85 -11t-70.5 -36t-56 -65.5t-38.5 -101.5q-7 -28 -16.5 -48.5t-24 -34.5t-34.5 -21.5t-49 -7.5t-55 7.5t-45.5 23t-30 41 t-10.5 62.5q0 61 18.5 117t51.5 104t80.5 87t106 66.5t125 42.5t138.5 15q116 0 208.5 -34.5t157 -93t97.5 -133t33 -158.5q0 -65 -9 -116t-28.5 -93t-47 -76.5t-63.5 -64.5t-80.5 -59t-96.5 -59q-84 -49 -149.5 -88.5t-113.5 -74t-78.5 -65t-38.5 -59.5h584q28 0 51.5 -7 t41 -23t27.5 -39t10 -57q0 -68 -39 -97.5t-105 -29.5h-731q-44 0 -74 13t-49.5 34.5t-29 48t-9.5 52.5z" />
<glyph unicode="3" horiz-adv-x="1170" d="M78 318q0 32 10 57t28.5 44t44 29t55.5 10q33 0 54 -10t37 -27.5t26 -38.5t23 -43t28 -43.5t38.5 -38.5t58.5 -27t86 -10q55 0 95.5 15.5t67.5 42.5t41 65.5t14 84.5q0 34 -8 65t-26.5 54t-52 39t-82.5 22q-20 3 -48.5 5.5t-53 14t-42.5 32t-18 54.5q0 39 10.5 63t32 38 t53.5 21.5t74 8.5q73 5 108 46q34 39 34 108q0 45 -15 77.5t-41 52.5t-60 29.5t-74 9.5q-58 0 -94 -16.5t-60.5 -41t-41.5 -52.5t-36 -52.5t-42 -41t-63 -16.5q-26 0 -49 6t-41 20t-29 37t-11 57q0 61 20.5 110t56.5 87t83.5 66t100 47t107.5 27q53 9 105 9q126 0 215.5 -34 t144 -88t80 -123t25.5 -141q0 -95 -42 -164q-40 -69 -124 -115q55 -16 94.5 -45.5t65 -70t37.5 -89.5t12 -105q0 -118 -41.5 -205t-113.5 -144.5t-169 -86.5q-95 -29 -204 -29q-93 0 -165 18t-125 47.5t-90.5 65.5t-60.5 75t-33 74t-10 64z" />
<glyph unicode="4" horiz-adv-x="1170" d="M26 461q0 39 8.5 65.5t28.5 50.5l602 782q23 31 55 44t73 13t68 -11t45 -30t26 -44.5t8 -57.5v-723h98q25 0 45 -10t34.5 -26t22.5 -37.5t8 -47.5q0 -24 -8 -46t-22.5 -38.5t-34.5 -25.5t-45 -9h-98v-189q0 -32 -8 -58t-24.5 -43t-43 -27t-65.5 -10q-37 0 -64 10t-44 27 t-24 43t-7 58v189h-486q-37 0 -65 15t-47 36.5t-27.5 49t-8.5 50.5zM327 550h333v434h-6z" />
<glyph unicode="5" horiz-adv-x="1170" d="M66 262q0 30 10 56t30.5 44t46.5 29q28 11 60 11t53.5 -14.5t41 -37t39.5 -47.5t47.5 -47.5t64 -37t91.5 -14.5q58 0 105.5 22.5t82 59.5t53 83t18.5 95q0 64 -21.5 110.5t-58 76t-86.5 42.5t-107 13q-41 0 -72.5 -7.5t-57.5 -19t-47.5 -23.5t-42.5 -23t-43 -18t-47 -7 q-55 0 -84.5 20t-42.5 54.5t-11.5 78t8.5 87.5l74 431q4 26 15 49t28 40t39 28t48 11h607q29 0 53 -7.5t42 -22.5t28 -39.5t10 -59t-10 -58t-27.5 -39t-41.5 -22.5t-51 -7h-515l-55 -304l4 -4q28 23 61 40t69 29.5t74 18t77 5.5q95 0 181.5 -28t152.5 -84t105.5 -142.5 t39.5 -204.5q0 -122 -41.5 -216t-115.5 -158t-176.5 -97t-223.5 -33q-88 0 -157.5 14.5t-123 37.5t-91.5 53t-62 62t-35.5 63.5t-11.5 57.5z" />
<glyph unicode="6" horiz-adv-x="1170" d="M63 624q0 221 41 375t118.5 250t186.5 137.5t248 41.5q86 0 158 -23t124 -60t80.5 -83.5t28.5 -92.5q0 -27 -10 -51t-26 -41t-39 -27t-49 -10q-31 0 -55 13t-43.5 31.5t-37.5 41t-40 42t-51 32t-68 12.5q-76 0 -129.5 -34.5t-86.5 -90.5t-48 -125t-15 -138v-35 q32 32 65.5 55t71 39.5t79.5 24.5t92 8q110 0 195.5 -34.5t143 -95t88 -141.5t30.5 -173q0 -124 -40 -216.5t-108 -154.5t-162 -93t-200 -31q-104 0 -185.5 26t-141 71.5t-101.5 106.5t-66.5 133t-36 151t-11.5 159zM369 454q0 -58 15.5 -104t46 -78.5t72 -50t96.5 -17.5 q53 0 95 17.5t71.5 50t45.5 78.5t16 104q0 63 -17.5 110t-48.5 77t-73 44q-40 15 -89 15q-47 0 -89.5 -16t-74.5 -47.5t-49 -77.5t-17 -105z" />
<glyph unicode="7" horiz-adv-x="1170" d="M40 1278.5q0 34.5 10 59t27.5 39.5t40.5 22.5t52 7.5h792q29 0 53.5 -6.5t43 -24t28.5 -44.5t10 -71q0 -30 -14.5 -57.5t-38.5 -59t-59 -71t-73.5 -95.5t-82.5 -131t-88 -177.5t-86 -233.5q-42 -134 -79 -304q-9 -44 -20.5 -73.5t-27 -48.5t-38.5 -27.5t-58 -8.5 q-43 0 -70.5 11.5t-43.5 31.5t-22.5 49t-6.5 61q0 37 11 92t31 119.5t49 138t63.5 149t74 151t83 144t88.5 128.5t93 103h-616q-26 0 -49 7t-40 23t-27 40q-10 22 -10 56.5z" />
<glyph unicode="8" horiz-adv-x="1170" d="M63 425q0 57 14.5 109t42 94.5t69 74t96.5 49.5q-42 20 -75.5 51.5t-57.5 70t-36 83t-12 91.5q0 84 33 154t95 121t151 79.5t202 28.5q112 0 201.5 -28.5t151 -79.5t95 -121t33.5 -154q0 -47 -12.5 -91.5t-36 -83t-57 -70t-76.5 -51.5q55 -18 96.5 -49.5t69 -74t42 -93.5 t14.5 -110q0 -85 -21.5 -151.5t-60 -116.5t-89.5 -85t-108.5 -56.5t-119.5 -31.5t-122 -10q-61 0 -123 10t-119.5 31.5t-108 56.5t-88.5 85t-60.5 116.5t-22.5 151.5zM348 423q0 -51 17.5 -92.5t49 -69.5t75 -42.5t95.5 -14.5q51 0 94.5 14.5t75 42.5t49 69.5t17.5 92.5 q0 32 -11.5 71.5t-39.5 75t-73.5 58.5t-112 23t-111.5 -23t-73 -58.5t-40 -75t-12 -71.5zM376 1028q0 -47 16.5 -81.5t44 -57t66 -34t82.5 -11.5q43 0 82 11.5t66 34t43.5 57t16.5 81.5q0 45 -16.5 79.5t-43.5 58t-66 35t-82 11.5q-44 0 -82.5 -11.5t-66 -35t-44 -58 t-16.5 -79.5z" />
<glyph unicode="9" horiz-adv-x="1170" d="M63 932q0 124 39 216.5t108 154.5t163 93.5t200 31.5q104 0 184.5 -25.5t141 -72t101.5 -107.5t66.5 -133t37 -150.5t11.5 -159.5q0 -221 -42 -375t-118.5 -249.5t-186.5 -137t-247 -41.5q-86 0 -159 23t-124.5 60.5t-79.5 83.5t-28 92q0 26 9 50t25.5 42t40 28t48.5 10 q32 0 55 -13t43.5 -32t37.5 -42t40 -41.5t50.5 -31.5t67.5 -13q77 0 131 34.5t87 90t47.5 124.5t14.5 138v36q-32 -31 -65 -55t-70.5 -40.5t-80.5 -24.5q-44 -8 -93 -8q-109 0 -194 35.5t-142.5 96t-88 141t-30.5 171.5zM351 950q0 -63 17.5 -109t47.5 -76.5t72 -45.5 t91 -15q47 0 89.5 16.5t73.5 48.5t49 76.5t18 104.5q0 58 -15.5 104t-46 78.5t-73 50t-95.5 17.5t-95.5 -17.5t-71.5 -50t-45 -78.5t-16 -104z" />
<glyph unicode=":" horiz-adv-x="613" d="M144 156q0 34 12 63t34.5 52t52.5 35q28 12 62 12q35 0 64.5 -12t52 -35t35 -52t12.5 -63q0 -35 -12.5 -64t-35 -52t-52 -35t-64.5 -12q-34 0 -63 12t-51.5 35t-34.5 52t-12 64zM144 893q0 34 12 63t34.5 51.5t52.5 34.5q28 12 62 12q35 0 64.5 -12t52 -34.5t34.5 -52.5 q13 -28 13 -62q0 -35 -12.5 -64.5t-35 -51.5t-52 -35t-64.5 -13q-34 0 -63 13t-51.5 35t-34.5 51.5t-12 64.5z" />
<glyph unicode=";" horiz-adv-x="613" d="M132 147q0 33 12.5 62.5t35 51t51 34.5t61.5 13q48 0 84 -16t59.5 -44.5t36 -70.5t12.5 -91q0 -51 -8.5 -94.5t-22.5 -79.5t-33.5 -66t-42.5 -55q-14 -17 -35.5 -35t-46 -34t-49 -26t-47.5 -10q-32 0 -49.5 17.5t-17.5 40.5q0 20 13 34.5t34 28.5t46.5 30t48.5 39t41 56 q19 33 25 82q-26 -17 -66 -17q-35 0 -61 12.5t-44.5 33t-27.5 48t-9 56.5zM144 893q0 34 12 63t34.5 51.5t52.5 34.5q28 12 62 12q35 0 64.5 -12t52 -34.5t34.5 -52.5q13 -28 13 -62q0 -35 -12.5 -64.5t-35 -51.5t-52 -35t-64.5 -13q-34 0 -63 13t-51.5 35t-34.5 51.5 t-12 64.5z" />
<glyph unicode="&#x3c;" horiz-adv-x="1291" d="M89 590q0 38 20.5 68t51.5 45l798 365q37 18 61.5 23.5t45.5 5.5q23 0 43 -8t34.5 -21.5t22.5 -33.5t8 -43q0 -18 -3 -34.5t-12.5 -31.5t-27.5 -30q-16 -15 -48 -28l-631 -277l631 -276q32 -13 49 -27.5t26.5 -29.5t12.5 -32.5t3 -32.5q0 -24 -8 -43t-22.5 -33.5 t-33.5 -21.5q-21 -8 -44 -8q-21 0 -46 5q-24 4 -61 21l-798 368q-31 14 -52 44q-20 29 -20 66z" />
<glyph unicode="=" horiz-adv-x="1199" d="M46 369q0 26 9.5 47.5t27.5 37t44 24.5t56 9h834q31 0 56.5 -9t43.5 -24.5t28 -37t10 -47.5t-10 -47.5t-28 -37.5t-43.5 -24.5t-56.5 -8.5h-834q-32 0 -57 10t-43 27t-27.5 37.5t-9.5 43.5zM46 769q0 26 9.5 47.5t27.5 37.5t44 24.5t56 8.5h834q31 0 56.5 -8.5 t43.5 -24.5t28 -37.5t10 -47.5t-10 -47.5t-28 -37.5t-43.5 -24.5t-56.5 -8.5h-834q-32 0 -57 10t-43 27.5t-27.5 37.5t-9.5 43z" />
<glyph unicode="&#x3e;" horiz-adv-x="1291" d="M118 192q0 17 3 33.5t12.5 31.5t27.5 30t49 27l631 276l-631 277q-31 13 -49 28t-27.5 30t-12.5 31.5t-3 34.5q0 23 8 43t22.5 33.5t34 21.5t42.5 8q20 0 46 -5.5t63 -23.5l796 -365q32 -15 52 -45t20 -68q0 -37 -20.5 -66.5t-51.5 -43.5l-796 -368q-37 -17 -63 -21 q-26 -5 -46 -5q-23 0 -42.5 7.5t-34 22t-22.5 33t-8 43.5z" />
<glyph unicode="?" horiz-adv-x="1192" d="M127 1102q0 49 17 95.5t47.5 87.5t73.5 75.5t93.5 60t106.5 39t117 13.5q63 0 123.5 -10t115.5 -31t102.5 -54t80.5 -77.5t53 -101.5t20 -128q0 -66 -21.5 -118t-56 -95t-76.5 -77.5t-80.5 -63.5t-70.5 -53.5t-48 -48.5q-11 -17 -19 -36.5t-15 -38.5t-16 -36t-22 -30 t-34.5 -20.5t-53.5 -7.5q-31 0 -54 11.5t-39 32t-23 44.5q-7 25 -7 48q0 44 14 81t38 68t55 58t62.5 52.5t62 51.5t55 53t38.5 57.5t14 67.5q0 82 -48.5 127.5t-138.5 45.5q-46 0 -77.5 -11.5t-53 -30t-36 -42.5t-26 -49t-23 -48t-27.5 -42t-39 -30.5t-58 -11.5 q-25 0 -48.5 8t-40.5 23t-27 38t-10 54zM412 151q0 35 13 64.5t34.5 52.5t50.5 36t63 13q32 0 60.5 -13t51 -36t35 -53.5t12.5 -63.5q0 -34 -12.5 -63.5t-35 -52.5t-51 -36t-60.5 -13q-33 0 -62.5 13t-51 36t-34.5 52.5t-13 63.5z" />
<glyph unicode="@" horiz-adv-x="1716" d="M127 724q0 107 27 202.5t76 178t119 149t154.5 113.5t180.5 73t203 26q94 0 181 -18t163.5 -53.5t140.5 -89.5t109 -126.5t71 -164.5q26 -90 26 -202q0 -99 -26.5 -176t-69 -134.5t-97 -98t-109.5 -64.5t-107 -34.5t-89 -10.5q-115 0 -118 101h-3q-36 -41 -90 -64 t-114 -23q-59 0 -112 26.5t-91.5 73.5t-61.5 110q-23 64 -23 136q0 67 14 127t39.5 110.5t60.5 90t75.5 67.5t87.5 42.5t96 14.5q44 0 80 -7t65 -22.5t52 -37.5t46 -54l7 35q6 23 16 37t23 21.5t27.5 10.5t27.5 3q17 0 33 -6t27.5 -17t18.5 -26.5t7 -35.5q0 -9 -1.5 -22.5 t-7.5 -34.5l-60 -341q-1 -6 -3.5 -16t-4 -20t-3 -19.5t-1.5 -14.5q0 -18 9 -28.5t29 -10.5q26 0 56 19.5t56 58t43.5 95t17.5 128.5q0 118 -39 210t-108 153t-164 93t-208 32q-75 0 -145.5 -20.5t-130 -57t-109.5 -88.5t-84.5 -113.5t-54.5 -134.5t-20 -151 q0 -131 43 -234.5t119 -175.5t178 -111q103 -39 222 -39q73 0 127.5 10t96 24.5t71.5 31t51.5 30.5t39 24t34.5 10q14 0 27 -6t24 -16.5t17.5 -24.5t6.5 -30q0 -25 -23 -52.5t-62 -53t-89.5 -48.5t-105 -38.5t-110.5 -26t-105 -10.5q-107 0 -205 24.5t-184.5 71t-157 112 t-121 146.5t-77.5 177.5t-27 204.5zM680 680q0 -42 11.5 -74.5t32 -55t49 -34t62.5 -11.5q42 0 77.5 17t59.5 47t38.5 70.5t14.5 86.5q0 37 -10 69t-28.5 53.5t-46.5 34.5q-27 13 -64 13q-44 0 -80 -17.5t-62 -47.5t-40 -69t-14 -82z" />
<glyph unicode="A" horiz-adv-x="1421" d="M71 130q0 13 3.5 28.5t7.5 32t10 32.5t10 28l419 1093q20 54 59 75t98 21h77q27 0 53 -4.5t48 -16.5t41 -34.5t32 -59.5l390 -1074q4 -12 10 -28t11 -32.5t8 -33t3 -27.5q0 -29 -11.5 -55t-33.5 -45.5t-49 -30.5t-59 -11q-53 0 -90 20.5t-55 67.5l-82 234h-522l-83 -234 q-18 -47 -52.5 -67.5t-93.5 -20.5q-33 0 -60.5 10.5t-47.5 28.5t-31 44q-10 27 -10 59zM521 533h378l-183 561h-5z" />
<glyph unicode="B" horiz-adv-x="1401" d="M132 184v1063q0 40 15.5 74.5t41.5 60.5t61 42t74 16h337q47 0 103.5 -1.5t112.5 -7t106.5 -17t87.5 -34.5q39 -24 74.5 -55.5t63 -72t43 -88.5t15.5 -106q0 -49 -11.5 -91.5t-31.5 -79t-49 -66t-63 -52.5q49 -23 89 -57t69 -76.5t45 -93t16 -103.5q0 -55 -14.5 -109 t-43.5 -102.5t-70.5 -90.5t-97 -72t-123.5 -48q-66 -17 -147 -17h-518q-38 0 -71.5 14.5t-59 40.5t-40 59t-14.5 70zM445 251h363q52 0 90.5 14t65.5 40t40 62t13 78q0 47 -22 81t-56.5 55t-79 31t-90.5 10h-324v-371zM445 852h269q66 0 112.5 12.5t75 35t43 54t14.5 68.5 q0 52 -20 85t-53.5 50.5t-78 24.5t-93.5 7h-269v-337z" />
<glyph unicode="C" horiz-adv-x="1442" d="M78 721q0 101 20 197t59.5 179.5t98.5 153t137.5 119.5t175 77.5t213.5 27.5q95 0 173.5 -17.5t143.5 -46.5t113.5 -67.5t82.5 -80.5t51.5 -83.5t18.5 -79.5v-9q1 -61 -37 -99q-40 -40 -108 -40q-36 0 -62 10.5t-45.5 29.5t-36 42t-35.5 47.5t-40.5 47.5t-51.5 41.5 t-70.5 29.5t-96.5 11q-78 0 -148 -32.5t-121.5 -95t-83.5 -154t-32 -208.5q0 -97 22.5 -186t70 -156t122.5 -106.5t181 -39.5q65 0 110.5 20.5t79.5 49t59.5 64.5t50 66.5t51.5 51.5q25 19 63 22q31 3 58.5 -6t47.5 -26t33 -40t16 -52q2 -13 2 -26q0 -39 -14 -77 q-18 -50 -54.5 -96t-90 -85.5t-118.5 -68.5t-139.5 -45.5t-154.5 -16.5q-168 0 -300.5 48.5t-224.5 142.5t-141 235.5t-49 326.5z" />
<glyph unicode="D" horiz-adv-x="1438" d="M132 192v1055q0 55 13 91t37.5 59t59 31.5t76.5 8.5h390q87 0 171 -13.5t158.5 -46.5t137 -87t108 -134t70.5 -188q25 -107 25 -248q0 -171 -45.5 -305t-131.5 -226.5t-211.5 -140.5t-286.5 -48h-385q-42 0 -76.5 9.5t-59 31.5t-37.5 59t-13 92zM444 252h276 q63 0 113.5 19.5t88.5 52.5t65 78.5t44 97.5t25 108q7 57 7 112q0 107 -21 192.5t-63.5 146t-107.5 93t-151 32.5h-276v-932z" />
<glyph unicode="E" horiz-adv-x="1249" d="M132 184v1063q0 40 15.5 74.5t41.5 60.5t61 42t74 16h750q26 0 50.5 -10t42 -29t27.5 -42t10 -50t-10 -50t-27.5 -41t-42 -28.5t-50.5 -10.5h-632v-315h583q26 0 49 -10t40.5 -27.5t27.5 -40.5t10 -49t-10 -49t-27.5 -40t-40.5 -27t-49 -10h-583v-355h638q26 0 49 -10 t40.5 -27t27.5 -40t10 -51q0 -26 -10 -49.5t-27.5 -41t-40.5 -27.5t-49 -10h-763q-38 0 -71.5 14.5t-59 40.5t-40 59t-14.5 70z" />
<glyph unicode="F" horiz-adv-x="1176" d="M132 132v1115q0 40 15.5 74.5t41.5 60.5t61 42t74 16h703q26 0 49.5 -10t42.5 -29t29 -42t10 -50t-10 -50t-29 -41t-42 -28.5t-50 -10.5h-585v-315h497q26 0 49 -10t40 -27.5t27.5 -40.5t10.5 -49t-10.5 -49t-27.5 -40t-40 -27t-49 -10h-497v-479q0 -31 -12 -58.5 t-33 -46t-49 -30t-60 -11.5t-60.5 11.5t-49.5 30t-33.5 46t-12.5 58.5z" />
<glyph unicode="G" horiz-adv-x="1548" d="M66 721q0 182 53.5 322.5t149 235.5t229.5 144q136 50 297 50q88 0 162 -16.5t133 -44t105 -63.5t76.5 -74.5t46 -76t15.5 -69.5q0 -43 -13.5 -70.5t-35 -43.5t-48 -23t-51.5 -7q-29 0 -49.5 10t-36.5 26t-30.5 36t-31 41t-37.5 41t-51 36t-72 25.5t-101 9.5 q-82 0 -154 -29t-124.5 -90t-82.5 -158q-31 -98 -31 -233q0 -107 25.5 -193.5t75 -148t124 -95.5t171.5 -34q72 0 132.5 22.5t104 63.5t68 98.5t27.5 127.5h-208q-26 0 -51.5 6t-46 20.5t-33.5 39t-13 61.5q0 61 32 94t92 33h392q69 0 99 -34.5t30 -102.5v-569 q0 -23 -7.5 -43t-22 -34.5t-34 -23t-44.5 -8.5q-34 0 -56.5 10.5t-38 33t-24.5 58t-16 82.5q-34 -43 -75.5 -79t-92.5 -61t-112 -39t-135 -14q-123 0 -221 27.5t-174 78t-130 119.5t-88.5 152.5t-51 178t-16.5 194.5z" />
<glyph unicode="H" horiz-adv-x="1474" d="M132 132v1174q0 32 12.5 59t33.5 46.5t49 31.5q29 11 61 11t60 -11.5t49 -31t33 -46t12 -59.5v-439h590v439q0 32 12.5 59t33.5 46.5t49 31t60 11.5q31 0 60 -11.5t50 -31t33 -46t12 -59.5v-1174q0 -31 -12 -58.5t-33 -46t-49 -30.5q-30 -11 -61 -11q-32 0 -60 11.5 t-49 30t-33.5 46t-12.5 58.5v476h-590v-476q0 -31 -12 -58.5t-33 -46t-49 -30t-60 -11.5t-60.5 11.5t-49.5 30t-33.5 46t-12.5 58.5z" />
<glyph unicode="I" horiz-adv-x="613" d="M153 132v1174q0 32 11.5 59t33 46.5t49 31t60.5 11.5q31 0 59.5 -11.5t50 -31t33 -46t11.5 -59.5v-1174q0 -31 -11.5 -58.5t-33 -46t-49 -30t-60.5 -11.5q-32 0 -60 11.5t-49.5 30t-33 46t-11.5 58.5z" />
<glyph unicode="J" horiz-adv-x="1100" d="M14 366q0 43 10.5 79.5t29 62t46.5 39t64 13.5q43 0 70.5 -15t43.5 -41t23 -59t7 -69q0 -69 42 -106t128 -37q39 0 70.5 12.5t55.5 38.5t36 67t12 97v845q0 35 11 65t32 51t50.5 32.5t63.5 11.5q36 0 65.5 -11.5t50.5 -32.5t32 -50q11 -31 11 -66v-849q0 -110 -32 -197 t-94.5 -147.5t-154 -93t-207.5 -32.5q-96 0 -167 19.5t-123 52t-85.5 73.5t-54 85t-28.5 85.5t-8 76.5z" />
<glyph unicode="K" horiz-adv-x="1362" d="M132 145v1150q0 34 11 63.5t32 51t50 33.5q28 11 66 11q37 0 66 -11.5t50.5 -33t32.5 -50t11 -64.5v-480l522 575q23 24 50.5 41.5t56.5 24t60 -1.5t60 -36q23 -23 33.5 -48.5t9 -52.5t-14.5 -53t-33 -46l-344 -363l395 -599q20 -31 35 -63t18 -63.5t-10 -60.5t-48 -55 q-34 -26 -70 -32q-14 -2 -28 -2q-21 0 -41 6q-34 8 -62 32q-29 22 -49 57l-366 561l-174 -174v-317q0 -36 -11 -64.5t-32.5 -50t-50.5 -33t-66 -11.5q-38 0 -66.5 11.5t-49.5 33t-32 50t-11 64.5z" />
<glyph unicode="L" horiz-adv-x="1140" d="M132 187v1108q0 34 11 63.5t32 51t49.5 33t64.5 11.5q38 0 66 -11.5t48 -33t31.5 -50t11.5 -64.5v-1027h530q35 0 65 -8.5t52.5 -25.5t35.5 -42t13 -58q0 -32 -13 -57t-35.5 -42.5t-52.5 -26t-65 -8.5h-656q-44 0 -78.5 9.5t-59 31t-37.5 56.5t-13 90z" />
<glyph unicode="M" horiz-adv-x="1787" d="M132 141v1139q0 49 16 80t42 48.5t59 24t66 6.5h71q40 0 69 -8t50.5 -25.5t39 -45t28.5 -67.5l323 -901h5l317 901q13 40 29.5 67.5t38.5 45t52 25.5t69 8h65q34 0 67 -6.5t58.5 -24t41.5 -49t16 -79.5v-1139q0 -30 -8 -58t-26 -49.5t-46 -34.5t-70 -13q-41 0 -69 13 t-46.5 34.5t-26 49.5t-7.5 58v723l11 161l-34 -145l-296 -802q-17 -49 -53 -70.5t-91 -21.5q-52 0 -89 21q-35 22 -52 71l-297 803l-33 147l10 -165v-722q0 -30 -8.5 -58t-26 -49.5t-46 -34.5t-69 -13t-69.5 13t-46 34.5t-26 49.5t-9 58z" />
<glyph unicode="N" horiz-adv-x="1483" d="M132 141v1120q0 101 48 146t148 45q49 0 89.5 -21t66.5 -66l561 -907h6v838q0 78 39 117t111 39q71 0 110.5 -39t39.5 -117v-1109q0 -95 -43.5 -148t-141.5 -53q-37 0 -63 4t-45.5 14t-34.5 27.5t-29 40.5l-556 884h-6v-815q0 -78 -39.5 -116.5t-110.5 -38.5 q-70 0 -110 38q-40 39 -40 117z" />
<glyph unicode="O" horiz-adv-x="1550" d="M59 720q0 98 19.5 191.5t59 177t99.5 154t139 121t178.5 79.5t217.5 29q121 0 221 -29t180 -79.5t140.5 -121t100 -154t59 -177t19.5 -191.5t-19.5 -191.5t-59 -176.5t-100 -152.5t-140.5 -120t-180 -78t-221 -27.5q-120 0 -218.5 27.5t-177.5 78t-139 120t-99.5 152.5 t-59 176.5t-19.5 191.5zM372 720q0 -59 10 -117.5t30 -111.5t52.5 -98.5t77 -79.5t102.5 -52q56 -19 128 -19t131 18.5t105 52.5t77.5 79.5t53.5 98.5t31 111t9 118q0 59 -9 117.5t-31 111.5t-53.5 99t-77.5 80t-104 54q-60 19 -132 19t-129 -19.5t-101.5 -53.5t-77 -80 t-52.5 -99t-30 -111.5t-10 -117.5z" />
<glyph unicode="P" horiz-adv-x="1326" d="M132 132v1161q0 32 12.5 59.5t33.5 46t49 29.5q29 12 61 12h497q121 0 211 -30t150.5 -88.5t90.5 -143t30 -191t-30 -188.5t-90.5 -136.5t-151.5 -83.5q-85 -27 -195 -27h-15h-343v-420q0 -31 -12 -58.5t-33 -46t-49 -30t-60 -11.5t-60.5 11.5t-49.5 30t-33.5 46 t-12.5 58.5zM442 799h281h8q55 0 97 12q45 13 73.5 38t43 60.5t14.5 78.5t-14.5 78.5t-43 60.5t-73.5 38.5t-105 13.5h-281v-380z" />
<glyph unicode="Q" horiz-adv-x="1550" d="M59 714q0 98 19.5 192.5t59 178t99.5 153.5t139 120t178.5 79t217.5 29q121 0 221 -29t180 -79t140.5 -120t100 -153.5t59 -178t19.5 -192.5q0 -70 -10 -140t-32 -135t-53.5 -124t-71.5 -108l89 -75q22 -17 32.5 -39t12 -46.5t-5.5 -50t-25 -45.5q-17 -22 -40 -35.5 t-46.5 -17t-48 3t-46.5 23.5l-144 110q-73 -34 -154.5 -50.5t-176.5 -16.5q-120 0 -218.5 27.5t-177.5 78t-139 119.5t-99.5 152.5t-59 177t-19.5 191.5zM372 714q0 -59 10 -117t30 -111.5t52.5 -99t77 -79t102.5 -52.5q56 -19 128 -19q17 0 34.5 1.5t31.5 1.5l-32 25 q-21 17 -32.5 39t-13 46.5t6.5 50t25 46.5q17 22 39.5 35.5t46 16.5t48 -2.5t47.5 -23.5l116 -89q51 69 71 153q19 86 19 178q0 59 -9 117.5t-31 111.5t-53.5 99.5t-77.5 80t-104 53.5q-60 19 -132 19t-129 -19.5t-101.5 -53t-77 -80t-52.5 -99.5t-30 -112t-10 -117z" />
<glyph unicode="R" horiz-adv-x="1401" d="M135 147v1103q0 55 13 91t37.5 57.5t58.5 31.5t76 10h525q94 0 166 -17.5t124.5 -46t88 -66.5t57 -82t30.5 -91.5t9 -93.5q0 -58 -16.5 -114t-46.5 -102.5t-74.5 -79.5t-99.5 -47v-4q60 -9 98.5 -38.5t60.5 -74t30 -101.5q6 -45 5 -94v-27v-14q1 -38 5 -68 q6 -36 13 -65.5t13.5 -54t6.5 -47.5q0 -28 -13 -51.5t-34 -40t-47.5 -25.5t-54.5 -9q-43 0 -73 13t-51.5 33.5t-33.5 46.5t-18 51.5t-8.5 48.5t-2.5 37q0 92 -9.5 159t-33.5 109.5t-66.5 62t-106.5 19.5h-314v-419q0 -36 -10.5 -65.5t-31 -51t-49 -33t-64.5 -11.5 t-65.5 11.5t-50 33t-32 51.5t-11.5 65zM449 805h317q45 0 88 8t77 28t54 57.5t20 97.5q0 58 -16 95.5t-46 59t-72.5 30t-94.5 8.5h-327v-384z" />
<glyph unicode="S" horiz-adv-x="1326" d="M95 331q0 29 10 53.5t27.5 43t42 29t54.5 10.5q43 0 71 -19.5t51 -49t47.5 -63t60.5 -62t89.5 -48t135.5 -19.5q62 0 110 16.5t80.5 42.5t50 60.5t17.5 71.5q0 22 -6 44.5t-21.5 42.5t-41.5 37.5t-68 27.5l-363 93q-72 19 -126 45.5t-93 57t-62.5 65t-37.5 72t-19.5 75.5 t-5.5 77q0 81 23 144t62.5 112t93.5 83.5t116 57t130.5 33.5t136.5 11q63 0 127.5 -12.5t126.5 -35t116 -52.5t94 -67.5t62 -80.5q20 -39 19 -81v-8q-1 -31 -13.5 -54.5t-32 -41t-45 -26t-54.5 -8.5q-38 0 -62.5 16t-46.5 39.5t-46 51.5t-58.5 51t-84 39t-124.5 16 q-55 0 -99 -12t-72.5 -34.5t-43.5 -54t-15 -69.5q0 -37 19 -62.5t51 -43.5t71 -29.5t77 -19.5l270 -62q109 -26 179.5 -70t112.5 -99.5t58.5 -118t16.5 -126.5q0 -97 -36 -180.5t-109 -144t-181 -95.5t-253 -35q-101 0 -185 17t-149 44t-114 64t-80 77t-46 82t-15 82z" />
<glyph unicode="T" horiz-adv-x="1180" d="M12 1302q0 29 9 53.5t26.5 43t41 30t52.5 11.5h899q28 0 52 -11.5t41.5 -30t26.5 -43t9 -53.5t-9 -53.5t-26.5 -43t-41.5 -29.5t-52 -11h-297v-1030q0 -31 -12 -59t-33 -47.5t-50 -31t-60 -11.5q-32 0 -61 11.5t-50.5 31t-33.5 46.5q-12 29 -12 60v1030h-290 q-29 0 -52.5 11t-41 29.5t-26.5 43t-9 53.5z" />
<glyph unicode="U" horiz-adv-x="1491" d="M135 540v765q0 31 11.5 58.5t33.5 47.5t50 31q29 11 61 11t60 -11t48.5 -31t33 -47.5t12.5 -58.5v-765q0 -148 79 -226q78 -78 233 -78q144 0 217 78t73 226v765q0 31 12 58.5t33 47.5t49 31t60 11t60.5 -11t50 -31t33 -47.5t11.5 -58.5v-765q0 -141 -40 -247 t-116.5 -176.5t-187.5 -105t-255 -34.5q-148 0 -264 32.5t-195 101.5t-121 175.5t-42 253.5z" />
<glyph unicode="V" horiz-adv-x="1283" d="M30 1304v7q0 37 16 67q16 32 51 53t93 21q63 0 102 -34q36 -33 59 -105l288 -973h5l298 973q23 72 59 105.5t90.5 33.5t90.5 -19t53.5 -50.5t17.5 -75t-19 -90.5l-405 -1123q-11 -35 -29 -56.5t-42 -34t-55 -16.5q-29 -4 -66.5 -4t-67.5 4t-54.5 16.5t-42.5 33.5 q-20 22 -31 57l-392 1123q-17 45 -19 87z" />
<glyph unicode="W" horiz-adv-x="1825" d="M30 1308q0 37 14 64.5t35.5 44.5t49 26t55.5 9q61 0 98.5 -30t51.5 -100l187 -925h6l212 916q5 29 17.5 55t32.5 44.5t50 28.5q28 11 71 11t73.5 -9.5t51.5 -27.5t33 -44t21 -58l216 -916h3l190 925q14 70 50 100t94 30q27 0 55 -9t49.5 -26t35.5 -44.5t14 -64.5 q0 -24 -5 -47t-11 -44l-274 -1082q-11 -40 -25.5 -69t-37.5 -47t-55 -25.5t-75 -7.5q-46 0 -77 9t-53 28.5t-36 49t-24 70.5l-207 856h-6l-207 -856q-10 -41 -24 -70.5t-35.5 -49t-53 -28.5t-77.5 -9q-44 0 -75.5 7.5t-54 25.5t-37.5 47t-26 69l-274 1082q-6 23 -11 45 t-5 46z" />
<glyph unicode="X" horiz-adv-x="1166" d="M30 126q0 31 11 62t30 60l329 492l-334 470q-26 40 -30 83q-1 8 -1 16q0 34 14 63q17 36 53 60t90 24q28 0 49 -8t37 -19.5t27.5 -24.5t18.5 -26l261 -410l259 407q11 20 24 34.5t27.5 24t34 14.5t45.5 5q47 0 83 -21t55 -54q17 -30 17 -66v-8q-1 -40 -30 -80l-338 -484 l338 -498q23 -35 33 -66.5t7.5 -60.5t-20 -54.5t-49 -46t-65 -27t-63.5 0t-56 25.5t-45 50l-266 432l-252 -417q-22 -35 -50 -57q-30 -22 -62 -30q-19 -5 -38 -5q-13 0 -27 2q-33 6 -62 28q-29 21 -42 50t-13 60z" />
<glyph unicode="Y" horiz-adv-x="1244" d="M32 1307q0 39 18 71q19 33 55 54.5t87 21.5q28 0 49 -5.5t38.5 -17t30.5 -29.5t26 -41l292 -511l291 511q14 26 27.5 44t30.5 28.5t35.5 15.5t44.5 5q46 0 82 -20t54.5 -53t18.5 -74t-25 -83l-405 -648v-435q0 -36 -11 -65.5t-32.5 -49.5t-50 -31.5t-66.5 -11.5 q-37 0 -66 11.5t-50 31.5t-31.5 49.5t-10.5 65.5v435l-406 648q-26 41 -26 83z" />
<glyph unicode="Z" horiz-adv-x="1298" d="M43 158q0 38 14.5 66.5t37.5 54.5l736 890h-572q-34 0 -63.5 9t-52 26t-35.5 42.5t-13 58.5q0 31 13 57t35.5 42.5t52 25.5t63.5 9h841q30 0 57 -7.5t47 -24t31.5 -45.5t11.5 -69q0 -30 -11.5 -59.5t-31.5 -55.5l-749 -910h637q34 0 64.5 -8.5t53.5 -25.5t36 -42t13 -58 q0 -32 -13 -57t-36 -42.5t-53.5 -26t-64.5 -8.5h-864q-44 0 -78.5 8t-59 26t-36 48t-11.5 76z" />
<glyph unicode="[" horiz-adv-x="642" d="M134 -276v1635q0 55 14.5 89t38 53.5t54 26.5t61.5 7h219q29 0 52 -5.5t40.5 -20t26.5 -35.5q9 -20 9 -51q0 -32 -9 -53.5t-26.5 -34.5t-40.5 -19.5t-52 -6.5h-111v-1534h111q29 0 52 -6.5t40.5 -20t26.5 -35t9 -51.5q0 -32 -9 -53t-26.5 -34.5t-40.5 -20t-52 -6.5h-219 q-31 0 -61.5 7t-54 27.5t-38.5 53.5q-14 33 -14 88z" />
<glyph unicode="\" horiz-adv-x="802" d="M26 1392q0 25 10 43.5t26.5 32.5t36 20.5t38.5 6.5q31 0 51.5 -8t33.5 -20.5t21 -26.5t12 -27l504 -1275q6 -17 11.5 -34.5t5.5 -32.5q0 -25 -10.5 -43.5t-26.5 -32.5t-36 -21t-38 -7q-31 0 -51.5 8t-33.5 21t-20 27t-13 27l-504 1275q-6 17 -11.5 34.5t-5.5 32.5z" />
<glyph unicode="]" horiz-adv-x="642" d="M-9 -338.5q0 30.5 9.5 52t26 35t41 20t52.5 6.5h110v1534h-110q-29 0 -53 6.5t-40.5 19.5t-26 34.5t-9.5 53.5q0 31 9.5 51.5t26 35t41 20t52.5 5.5h217q32 0 63.5 -7t54.5 -26.5t37.5 -53.5t14.5 -89v-1635q0 -55 -14.5 -88t-37.5 -53.5t-54 -27.5q-32 -7 -64 -7h-217 q-29 0 -53 6.5t-40.5 20t-26 35t-9.5 52z" />
<glyph unicode="^" horiz-adv-x="1332" d="M158 645q0 22 6.5 43.5t21.5 47.5l347 628q14 26 29 44t32 27t35 13t38 4t38 -4t34.5 -13t31.5 -26.5t30 -44.5l345 -630q15 -26 20.5 -46.5t5.5 -42.5q0 -11 -4 -24t-16 -24t-32 -18t-52 -7q-23 0 -43 3.5t-37 12t-31.5 24.5t-29.5 42l-260 479l-264 -479 q-14 -26 -28.5 -42t-32 -24.5t-36 -11.5t-42.5 -3q-32 0 -53 7.5t-32.5 17.5t-16 23t-4.5 24z" />
<glyph unicode="_" horiz-adv-x="1010" d="M0 -193q0 20 6.5 38t18.5 32t29 21q18 7 38 7h828q20 0 36.5 -7t29.5 -21t19 -32t6 -38t-6 -39t-19 -31.5t-29.5 -20.5t-36.5 -8h-828q-20 0 -37.5 8t-29.5 20.5t-18.5 31.5t-6.5 39z" />
<glyph unicode="`" horiz-adv-x="722" d="M164.5 1408q-3.5 23 5.5 46t34 45q26 23 52 28t50.5 -3.5t48.5 -30t45 -49.5l121 -160q26 -31 30.5 -66.5t-8.5 -62t-40.5 -41t-66.5 -5.5q-7 3 -15 5.5t-17 8.5t-20.5 16t-26.5 26l-144 157q-19 20 -32 41.5t-16.5 44.5z" />
<glyph unicode="a" horiz-adv-x="1120" d="M52 272q0 91 31 151.5t85 98t124.5 57.5t151.5 29l172 20q26 3 47.5 8.5t38.5 17t26 31t9 51.5t-14.5 54t-38.5 37t-56 21.5t-68 6.5q-52 0 -88.5 -11.5t-63 -28.5t-47 -38.5t-39 -39t-39.5 -29t-48 -11.5q-26 0 -48.5 8.5t-38.5 24.5t-24.5 36t-8.5 42q0 43 29 90 t86 85.5t140 63.5q82 24 192 24q100 0 185 -17t145 -53t94 -93.5t34 -135.5v-510q0 -32 4 -52t12 -34.5t17.5 -24.5t16.5 -19.5t13.5 -20t8.5 -25.5q2 -27 -8 -48t-28.5 -34.5t-42.5 -20.5q-22 -9 -48 -9h-8q-48 0 -84 10q-39 12 -64.5 34t-38.5 54t-15 72 q-41 -46 -85.5 -79t-93 -53.5t-99.5 -28.5q-54 -9 -108 -9q-61 0 -117 21t-100.5 59t-72 93.5t-27.5 124.5zM334 287q0 -26 10 -47t30.5 -38.5t50 -26t65.5 -8.5q57 0 103 17.5t78 47.5t49 67.5t17 77.5v115q-11 -11 -27 -19t-32.5 -13t-33 -8t-28.5 -6l-102 -17 q-43 -6 -77 -17.5t-57 -28t-34.5 -40t-11.5 -56.5z" />
<glyph unicode="b" horiz-adv-x="1224" d="M104 112v1204q0 72 38 110q37 37 106 37t108 -37.5t39 -109.5v-394h4q45 70 125.5 108t181.5 38q80 0 145.5 -20t117 -57.5t90 -88t63 -110t37.5 -126.5t13 -138q0 -141 -39 -245t-103.5 -172.5t-151 -102.5t-181.5 -34q-55 0 -104 11.5t-90.5 34.5t-73.5 57.5t-49 80.5 h-4v-46q0 -66 -35 -102q-36 -36 -102 -36q-71 0 -103 35q-32 37 -32 103zM374 518q0 -63 14.5 -120.5t46.5 -101.5t80 -71q49 -26 116 -26q60 1 106 27t78 70t47 101t15 121q0 35 -5 72.5t-16 74t-29.5 69t-46 57t-64 39.5t-85.5 15q-71 0 -120 -29.5t-79 -76t-44 -105 t-14 -116.5z" />
<glyph unicode="c" horiz-adv-x="1071" d="M48 501q0 127 35 232t102.5 180.5t168.5 118t235 42.5q91 0 168 -24.5t133 -63t88.5 -87.5t32.5 -101q0 -32 -11.5 -56.5t-30.5 -40.5t-43.5 -24.5t-51.5 -8.5q-23 0 -39.5 7.5t-29.5 17.5t-23 23t-20 27q-12 17 -25.5 34.5t-34.5 31t-50.5 22.5t-69.5 9q-42 0 -85 -16 t-78.5 -55t-57 -104.5t-21.5 -163.5q0 -68 16 -122t46 -92.5t74.5 -59.5t102.5 -21q37 0 66 9.5t49 23.5t34.5 33t28.5 36q12 17 23.5 31.5t26.5 27t34.5 19.5t45.5 7q29 0 52 -9.5t39 -26t25 -37t9 -44.5q0 -31 -12 -65.5t-36.5 -69t-60.5 -65t-85 -53.5t-111 -36.5 t-137 -13.5q-132 0 -231 39.5t-163.5 110t-96 167t-31.5 211.5z" />
<glyph unicode="d" horiz-adv-x="1224" d="M52 528q0 70 12 137.5t37.5 127t63.5 110t89 88t117.5 57.5t145.5 20q101 0 182 -37t125 -109h5v394q0 72 37.5 109.5t108.5 37.5q69 0 107 -37.5t38 -109.5v-1204q0 -66 -33 -102t-103 -36q-67 0 -102 35q-35 37 -35 103v46h-3q-19 -46 -50 -80.5t-72.5 -57.5 t-91.5 -34.5t-104 -11.5q-95 0 -181 34t-150.5 102.5t-103.5 172.5t-39 245zM346 518q0 -64 15.5 -121t46.5 -101t77 -70t108 -27q67 0 115.5 26.5t79.5 70.5t46 102q16 57 16 120q0 58 -14.5 116.5t-45 105t-79.5 76.5q-46 29 -110 29h-8q-49 0 -86.5 -15t-64.5 -39.5 t-46 -57t-29.5 -69t-15.5 -74t-5 -72.5z" />
<glyph unicode="e" horiz-adv-x="1153" d="M52 501q0 127 36 232t105 180t167.5 116t224.5 41q80 0 150 -19t127 -52t100 -78t73.5 -98.5t44.5 -112.5t14 -120q0 -37 -5.5 -63t-20 -43t-38.5 -25q-25 -8 -59 -8h-637q3 -55 21.5 -102t52 -80t81 -51.5t106.5 -18.5q53 0 89.5 10.5t63.5 26.5t47 34.5t38.5 34.5 t39 27t49.5 11q26 0 46.5 -10t36 -26t24 -37t8.5 -41q0 -43 -21 -80t-56.5 -65.5t-80.5 -50t-94 -35.5t-99 -20.5t-91 -6.5q-98 0 -176.5 21.5t-139 59t-104 89t-70.5 109.5t-40 123t-13 128zM334 634h495q-5 50 -26 92.5t-52 73.5t-72 49t-89 18q-51 0 -94.5 -17.5 t-75 -47.5t-53 -72.5t-33.5 -95.5z" />
<glyph unicode="f" horiz-adv-x="630" d="M6 952q0 47 26.5 71t87.5 24h36v131q0 69 25 121t68 88t100 53t118 17q38 0 73 -7t60 -24.5t39.5 -43.5t14.5 -63q0 -20 -7.5 -37.5t-19.5 -31.5t-28.5 -21.5t-35.5 -7.5q-17 0 -32 3q-13 3 -30 3q-30 0 -43.5 -19t-13.5 -49v-112h53q63 0 95.5 -21.5t32.5 -73.5 t-32.5 -73t-95.5 -21h-53v-740q0 -36 -11 -62.5t-30.5 -44.5t-45.5 -27.5t-57 -9.5q-32 0 -59.5 9.5t-46 27.5t-28.5 45.5t-10 61.5v740h-36q-61 0 -87.5 23t-26.5 71z" />
<glyph unicode="g" horiz-adv-x="1199" d="M52 504q0 144 37.5 250.5t100.5 177t146.5 105t177.5 34.5q55 0 101.5 -13t87 -36t71.5 -56t51 -73h4v37q0 69 34 105q33 36 99 36q69 0 101.5 -36t32.5 -105v-865q0 -136 -39 -234.5t-109 -163t-166.5 -95.5t-211.5 -31q-56 0 -110.5 7.5t-104.5 23.5t-91.5 37.5t-72 49 t-47.5 60.5t-17 68q0 27 10 51t26 40.5t38 26t47 9.5q30 0 53.5 -11.5t44.5 -29t42 -36t45.5 -36t54.5 -29t74 -11.5q66 0 113.5 18t78.5 57.5t45.5 101.5t14.5 148v64h-5q-20 -29 -50 -55.5t-67.5 -46t-81 -31t-86.5 -11.5q-116 0 -205 36.5t-148 102t-89 158t-30 201.5z M346 513q0 -52 13 -102.5t41.5 -92.5t73 -67t108.5 -25q49 0 90.5 17.5t73.5 54t50 92.5t18 136t-15.5 139t-42.5 97.5t-68 57t-93 18.5q-72 0 -119 -25t-76.5 -68.5t-41.5 -103t-12 -128.5z" />
<glyph unicode="h" horiz-adv-x="1185" d="M104 115v1216q0 28 10 51t28.5 39t43.5 25q24 8 53 8t54 -8.5t44 -24.5t29.5 -39t10.5 -51v-402h6q35 43 72 72.5t77.5 45.5t82.5 23t88 7q115 0 188.5 -31.5t116.5 -88.5t60.5 -137t17.5 -178v-527q0 -30 -12.5 -54t-32.5 -41t-46.5 -25.5t-54.5 -8.5t-54 8.5 t-45.5 25.5t-32 41.5t-12.5 53.5v475q0 130 -41.5 195t-141.5 65q-57 0 -99 -17.5t-69 -53.5t-40 -93.5t-13 -136.5v-434q0 -31 -11.5 -54.5t-32 -40.5t-46.5 -26q-26 -8 -54 -8q-29 0 -55 9t-46 25.5t-31.5 41t-11.5 53.5z" />
<glyph unicode="i" horiz-adv-x="495" d="M104 124v808q0 30 11.5 54.5t30 41t45 26t57.5 9.5q30 0 56.5 -9.5t45.5 -26t30.5 -41t11.5 -54.5v-808q0 -30 -11.5 -55.5t-30.5 -44t-45.5 -28.5t-56.5 -10q-31 0 -57.5 10t-45 28.5t-30 43t-11.5 56.5zM104 1306q0 30 11.5 56t30 46t45 32t57.5 12q30 0 56.5 -12 t45.5 -32t30.5 -46t11.5 -56t-11.5 -56t-30.5 -46t-45.5 -31.5t-56.5 -11.5q-31 0 -57.5 11.5t-45 31.5t-30 46t-11.5 56z" />
<glyph unicode="j" horiz-adv-x="524" d="M-33 -311q0 55 24 78q23 23 69 23h34q20 0 30.5 15.5t10.5 36.5v1080q0 28 6 54t23 46.5t44.5 32t70.5 11.5q42 0 70 -11.5t44 -32t23 -46.5t7 -54v-1050q0 -78 -15.5 -136.5t-51 -95.5t-91 -56t-135.5 -19q-84 0 -124 31q-39 30 -39 93zM132 1306q0 30 12 56t30.5 46 t45 32t56.5 12q31 0 57.5 -12t45 -32t30 -46t11.5 -56t-11.5 -56t-30 -46t-45 -31.5t-57.5 -11.5q-30 0 -56.5 11.5t-45 31.5t-30.5 46t-12 56z" />
<glyph unicode="k" horiz-adv-x="1058" d="M104 127v1189q0 35 10 62t28.5 45t44.5 27.5t58 9.5q65 0 104 -37q40 -35 40 -107v-659l317 357q21 23 49 39.5t60 16.5q25 0 49 -10t43.5 -28t31 -42t11.5 -51q0 -20 -2.5 -33t-8.5 -23t-14 -20q-9 -9 -18 -19l-210 -225l297 -403q8 -10 18 -34t10 -60q0 -27 -10 -53 t-28 -44.5t-43 -30t-54 -11.5q-26 0 -46 5.5t-36 15.5t-27.5 21.5t-18.5 23.5l-269 386l-101 -110v-198q0 -71 -39 -107.5t-105 -36.5q-32 0 -58 8.5t-44.5 27t-28.5 45.5q-10 28 -10 63z" />
<glyph unicode="l" horiz-adv-x="521" d="M117 124v1201q0 30 11.5 54t31 41t45 25.5t57.5 8.5q30 0 56 -8.5t45.5 -25.5t31 -41.5t11.5 -53.5v-1201q0 -30 -11.5 -55.5t-31 -44t-46 -28.5t-55.5 -10q-30 0 -56.5 10t-46 28.5t-31 43t-11.5 56.5z" />
<glyph unicode="m" horiz-adv-x="1804" d="M102 130v793q0 66 35.5 105.5t98.5 39.5q64 0 100 -40t36 -105v-37h5q56 86 145 134t198 48q37 0 78.5 -10t79.5 -30.5t71 -56t52 -85.5q30 43 64 76.5t73.5 57t87 36t106.5 12.5q75 0 142 -18.5t117.5 -60t80 -108t29.5 -164.5v-587q0 -29 -6.5 -55.5t-23 -46t-45 -31 t-68.5 -11.5q-42 0 -70 11.5t-44 31t-23 46t-7 55.5v518q0 39 -10 73t-31.5 59.5t-53.5 41.5t-73 16t-77.5 -17t-64 -48t-44 -73.5t-16.5 -93.5v-476q0 -29 -6.5 -55.5t-23 -46t-44.5 -31t-69 -11.5t-69 11.5t-44 31t-23.5 46t-7.5 55.5v518q0 39 -9 73t-29.5 59.5 t-51.5 41.5t-71 16t-78 -17t-67 -48t-45.5 -73.5t-16.5 -93.5v-476q0 -29 -7.5 -55.5t-23 -46t-43.5 -31t-70 -11.5t-70 11.5t-44 31t-22.5 46t-6.5 55.5z" />
<glyph unicode="n" horiz-adv-x="1188" d="M104 128v805q0 65 30 104t99 39q68 0 99 -40t31 -103v-37q32 40 68 73t79.5 56t95 37t113.5 14q43 0 87 -8t84 -25.5t76 -46t62 -70.5t42 -98t16 -128v-572q0 -29 -7.5 -54.5t-23 -45t-43 -31t-70.5 -11.5q-42 0 -69.5 11.5t-44 31t-23 45t-6.5 54.5v514q0 43 -12 80 t-35 63.5t-57.5 41t-81.5 14.5q-37 0 -77.5 -15t-72 -44t-53 -71.5t-21.5 -94.5v-488q0 -29 -6.5 -54.5t-23 -45t-44 -31t-69.5 -11.5t-69 11.5t-43.5 31t-23 45t-6.5 54.5z" />
<glyph unicode="o" horiz-adv-x="1185" d="M53 521q0 126 38.5 227.5t109 174t169.5 112t223 39.5t224 -39.5t170.5 -112t109 -173.5t38.5 -228q0 -125 -38.5 -226.5t-109 -173.5t-170.5 -111t-224 -39q-122 0 -222 39t-170.5 111t-109 173.5t-38.5 226.5zM343 521q0 -63 11.5 -121.5t40 -103.5t77.5 -74 q49 -28 121 -28q75 0 124 28.5t78.5 73.5t41.5 104q13 58 13 121q0 64 -12.5 123t-42 105t-79.5 73q-48 28 -123 28q-72 0 -121 -27.5t-77.5 -73.5t-40 -105t-11.5 -123z" />
<glyph unicode="p" horiz-adv-x="1224" d="M104 -271v1206q0 66 33 101t102 35q66 0 101.5 -34.5t35.5 -101.5v-47h4q19 47 50 81.5t72.5 56.5t90.5 33.5t104 11.5q95 0 181.5 -33t151 -102t103.5 -172.5t39 -245.5q0 -69 -13 -136.5t-37.5 -128t-63 -111t-90 -88t-117 -57.5t-145.5 -20q-101 0 -181.5 38 t-125.5 109h-4v-395q0 -72 -39 -108q-39 -37 -108 -37t-106.5 36.5t-37.5 108.5zM374 527q0 -58 14 -115.5t44 -105t78 -76.5q49 -28 121 -28q49 0 85.5 14t64 38.5t46 58t29.5 69.5t16 73t5 72q0 65 -15 122.5t-47 101.5t-78 70t-106 26q-67 0 -115.5 -26t-80.5 -70.5 t-46.5 -102.5t-14.5 -121z" />
<glyph unicode="q" horiz-adv-x="1224" d="M52 518q0 142 39 245.5t103.5 172.5t151 102t181.5 33q55 0 104 -11.5t90.5 -33.5t73.5 -56.5t49 -81.5h4v47q0 66 35 101q36 35 102 35q71 0 103 -34.5t32 -101.5v-1206q0 -72 -38 -108q-37 -37 -106 -37t-108 36.5t-39 108.5v395h-4q-45 -71 -125.5 -109t-181.5 -38 q-80 0 -145.5 20t-117 57.5t-90 88t-63 111t-37.5 127.5q-13 68 -13 137zM347 527q0 -35 5 -72t16 -73t29.5 -69.5t46 -58t64 -38.5t85.5 -14q69 0 119 28.5t80 76t44 105t14 115.5q0 63 -14.5 121t-46.5 102.5t-80 70.5q-49 26 -116 26q-62 -2 -107 -27t-77 -69t-47 -101.5 t-15 -122.5z" />
<glyph unicode="r" horiz-adv-x="754" d="M104 124v803q0 32 10 57t27 42t40 25.5t52 8.5q28 0 51.5 -8.5t41 -25.5t27.5 -42t10 -57v-102h3q11 45 30.5 87.5t47.5 75t67 52.5t91 20q34 0 63 -10t50 -29t33 -44t12 -55q0 -41 -13 -68t-32 -44t-44.5 -24.5t-51.5 -7.5h-34q-44 0 -80 -16t-61.5 -53.5t-40 -98 t-14.5 -149.5v-337q0 -29 -6.5 -55t-23 -44.5t-44 -30t-69.5 -11.5t-69 11.5t-43.5 30t-23 44.5t-6.5 55z" />
<glyph unicode="s" horiz-adv-x="1064" d="M72 242q0 23 7 44.5t21.5 39t37.5 27.5q20 10 52 10t56.5 -13.5t47.5 -33t46 -42.5t51.5 -43.5t66 -33.5t88.5 -13q40 0 71 8t53.5 22t34.5 33q12 18 12 41q0 27 -11.5 46.5t-34 34t-53 25.5t-71.5 21l-173 40q-63 16 -117.5 36t-96.5 52.5t-65 81.5t-23 121 q0 59 18.5 106t50.5 83t75 61.5t92 41.5t101 23t104 7q54 0 109 -7t105.5 -20t92 -31.5t73 -43t49 -54t17.5 -62.5q0 -26 -8.5 -49t-24.5 -40.5t-37.5 -27.5t-50.5 -10t-51 10t-41.5 24.5t-40 31.5t-44 31.5t-54.5 24.5t-73 10q-39 0 -70 -5.5t-53 -15.5t-33.5 -27.5 t-11.5 -40.5q0 -26 11.5 -42t32.5 -27.5t49 -18.5t62 -16l124 -27q42 -9 84.5 -21t82.5 -30t76 -42t63.5 -55t42.5 -70.5t15 -91.5q0 -59 -18 -107t-49.5 -85.5t-74.5 -66.5t-93.5 -47.5t-105.5 -27t-109 -8.5q-100 0 -188.5 20t-154.5 55.5t-105 82t-39 101.5z" />
<glyph unicode="t" horiz-adv-x="660" d="M0 953q0 48 27.5 71t87.5 23h49v180q0 69 39 105.5t104 36.5q63 0 102.5 -36.5t39.5 -105.5v-180h87q63 0 96 -21t33 -73t-33 -73.5t-96 -21.5h-87v-587q0 -67 75 -67h40q48 0 74.5 -24t26.5 -71q0 -61 -51.5 -93.5t-155.5 -32.5q-78 0 -134 15.5t-92 47.5t-52 79.5 t-16 110.5v622h-49q-60 0 -87.5 23t-27.5 72z" />
<glyph unicode="u" horiz-adv-x="1205" d="M112 347v572q0 29 6.5 54.5t23 45t44 31t69.5 11.5t69 -11.5t44.5 -31t24.5 -45t7 -54.5v-516q0 -43 11.5 -79t34.5 -62t58 -41t81 -15q37 0 76.5 15t72 44t52.5 70.5t20 96.5v487q0 29 7.5 54.5t24 45t44.5 31t68 11.5q42 0 70 -11.5t44 -31t23 -45t7 -54.5v-804 q0 -65 -31 -104.5t-98 -39.5q-68 0 -99 39t-31 105v36q-31 -40 -68 -72.5t-81 -57t-95 -37.5q-52 -13 -113 -13q-43 0 -86.5 8t-84.5 25.5t-76 46t-61.5 70.5t-42 97.5t-15.5 128.5z" />
<glyph unicode="v" horiz-adv-x="987" d="M20 938q3 38 20.5 65.5t47.5 44t70 16.5q41 0 67 -14.5t41.5 -34t23.5 -39.5t11 -31l191 -654h5l191 654q3 11 10.5 31t24 39.5t43 34t66.5 14.5q41 0 71 -16q29 -17 47 -46q20 -32 20 -71q0 -35 -14 -76l-268 -760q-10 -29 -22 -50.5t-32.5 -36t-52.5 -21.5 q-31 -7 -86 -7q-54 0 -87.5 8t-53.5 23t-31 36.5t-21 50.5l-270 759q-12 36 -12 68v13z" />
<glyph unicode="w" horiz-adv-x="1510" d="M22 928q2 38 14.5 66t40 47t67.5 23q35 3 60.5 -6.5t44.5 -29t30.5 -46t20.5 -58.5l149 -612h5l123 569q9 42 20.5 76t31 58.5t49.5 37.5q26 11 65 11h12q50 0 82.5 -13t52 -36.5t30 -57t20.5 -76.5l127 -569h4l141 612q6 32 16 58t28 45.5t43.5 29t62.5 7.5 q43 -3 71.5 -21t43.5 -46.5t17 -64.5v-8q0 -32 -11 -64l-220 -723q-15 -52 -30 -81.5t-36 -47t-49 -21.5t-71 -4q-45 0 -75 8.5t-49.5 27t-32.5 49t-23 72.5l-140 560h-4l-140 -565q-11 -43 -22.5 -71.5t-31.5 -47.5t-50.5 -26t-73.5 -7t-72 4t-49 21.5t-35 47.5 q-17 30 -31 81l-216 713q-11 36 -11 69q1 5 1 9z" />
<glyph unicode="x" horiz-adv-x="923" d="M22 115q0 19 10 41.5t28 50.5l219 323l-223 318q-22 32 -26 70q-1 7 -1 13q0 30 13 57q16 33 50.5 55.5t86.5 22.5q34 0 63 -16t53 -56l179 -274l160 262q15 27 32 44t32.5 25.5t33 11.5t34.5 3q25 0 48 -10.5t41 -27.5t28 -39q11 -24 11 -47q0 -32 -8 -54 q-8 -21 -21 -41l-214 -317l222 -328q11 -18 19.5 -36.5t8.5 -50.5q0 -26 -10 -50.5t-28.5 -42.5t-45 -28.5t-61.5 -10.5q-23 0 -41 5.5t-34 18t-29 30.5t-27 38l-164 263l-189 -299q-14 -23 -43 -40q-27 -16 -68 -16q-26 0 -51 9t-44.5 27t-31.5 42.5t-12 53.5z" />
<glyph unicode="y" horiz-adv-x="993" d="M19 927q0 29 10.5 55t29.5 44t45 29t54 11q58 0 95.5 -30.5t51.5 -79.5l205 -608l181 589q7 28 19.5 51t28.5 40t38 28q24 10 52 10q57 0 88 -20.5t45 -50.5q11 -26 11 -57v-9q-2 -36 -14 -68l-348 -972q-26 -73 -55 -128.5t-67 -93t-88 -57t-117 -19.5q-48 0 -82.5 11.5 t-56 29.5t-31.5 42t-10 50q0 28 9 50t27 36t42 21.5t53 7.5h29q14 0 27.5 1.5t27.5 10t25 27.5q10 18 19 50l20 72l-328 795q-9 26 -16 44.5t-11.5 34.5t-6.5 29t-2 24z" />
<glyph unicode="z" horiz-adv-x="1052" d="M40 112q0 32 9 57q9 27 29 47l538 606h-414q-21 0 -41 6t-36.5 19.5t-27.5 35t-11 52.5t11 52t27.5 34t37.5 19q19 5 40 5h679q58 0 88 -34.5t30 -90.5q0 -23 -11.5 -48t-32.5 -48l-529 -601h470q20 0 40 -5.5t37.5 -19.5t27.5 -35q10 -19 10 -51q0 -31 -10 -53 t-27.5 -34.5t-37.5 -18.5t-40 -6h-729q-32 0 -55.5 9.5t-39.5 25t-24 35t-8 42.5z" />
<glyph unicode="{" horiz-adv-x="754" d="M32 541q0 19 5.5 37t18.5 32.5t32 23t44 8.5q21 0 39.5 3.5t34.5 17.5t24.5 42.5t8.5 74.5v477q0 144 67.5 210.5t203.5 66.5h155q41 0 67.5 -24t26.5 -70q0 -49 -26.5 -75t-67.5 -26h-52q-23 0 -40 -5.5t-30 -20t-20 -37.5t-7 -55v-466q0 -47 -12 -81.5t-30.5 -56.5 t-41.5 -36t-47.5 -21t-47.5 -10.5t-40 -5.5v-5q17 -2 40 -5t47.5 -10.5t47.5 -20.5t41.5 -36t30.5 -56.5t12 -82.5v-466q0 -32 7 -55t20 -37.5t30 -21t40 -6.5h52q41 0 67.5 -26t26.5 -73q0 -46 -26.5 -70.5t-67.5 -24.5h-155q-136 0 -203 67q-68 65 -68 209v478 q0 48 -8.5 76t-24.5 41.5t-34.5 17.5t-39.5 4q-25 0 -44 8.5t-32 23t-18.5 33t-5.5 35.5z" />
<glyph unicode="|" horiz-adv-x="501" d="M118 -314v1787q0 27 10 50.5t29 40t42.5 25.5t51.5 9q27 0 50.5 -9t42.5 -25.5t29 -40t10 -50.5v-1787q0 -27 -10 -50t-29 -39.5t-42.5 -26t-50.5 -9.5q-28 0 -51.5 9.5t-42.5 26t-29 39.5t-10 50z" />
<glyph unicode="}" horiz-adv-x="754" d="M-3 -357q0 47 26 73t68 26h50q23 0 41 6.5t31 21t20 36.5q7 24 7 56v466q0 48 11 82t30 57t42 36t47.5 20.5t47.5 10.5t41 5v5q-17 2 -40.5 5.5t-48 10.5t-47.5 21t-42 36t-30 55.5t-11 82.5v466q0 32 -7 55t-20 37.5t-31 20t-41 5.5h-50q-41 0 -67.5 26t-26.5 75 q0 46 26 70t68 24h154q135 0 203 -67t68 -210v-477q0 -47 9 -75t24 -42t34 -17.5t39 -3.5q26 0 44.5 -8.5t31.5 -23t19 -31.5t6 -38q0 -18 -6 -36t-19 -32.5t-31.5 -23t-44.5 -8.5q-20 0 -39 -4t-34 -17.5t-24 -42.5t-9 -75v-478q0 -144 -68 -210t-203 -66h-154 q-41 0 -67.5 24.5t-26.5 70.5z" />
<glyph unicode="~" horiz-adv-x="1199" d="M81 442q0 43 19.5 90t55.5 84.5t87 60.5t114 23q42 0 83 -9.5t81.5 -24.5t78.5 -32.5t72.5 -31.5t65.5 -24.5t55 -10.5q26 0 47 9t38.5 22t33 28.5t30 28.5t32 21.5t37.5 8.5q23 0 39 -8.5t26 -21.5t14 -30t4 -35q0 -43 -19 -89t-56 -83.5t-90 -61t-123 -23.5 q-38 0 -78 9t-78.5 25t-76 32.5t-72 31.5t-65 25.5t-54.5 10.5q-26 0 -47 -9t-38.5 -22t-33 -28.5t-30 -28.5t-32 -22t-37.5 -9q-23 0 -39 9t-26 22t-14 30t-4 33z" />
<glyph unicode="&#xa2;" horiz-adv-x="1176" d="M107 703q0 109 27 201t81 163t135.5 114t190.5 53v125q0 15 6 26.5t14.5 20t20 13t24.5 4.5q12 0 23.5 -4.5t21 -13t14.5 -20t5 -26.5v-121q79 -5 144.5 -29t112 -59t72.5 -79q26 -43 26 -89q0 -29 -10 -52t-28 -37.5t-41.5 -22t-49.5 -7.5q-29 0 -47 9t-31.5 25 t-24.5 34.5t-26 36t-38 32t-59 20.5v-595q34 7 56.5 23t38 34.5t28 38.5t27.5 37t36.5 27.5t53.5 10.5q26 0 47.5 -8.5t36 -23t23 -34t8.5 -39.5q0 -42 -21.5 -88.5t-64.5 -87.5t-110 -70t-159 -38v-132q0 -15 -5 -26.5t-14.5 -20t-21 -12.5t-23 -4t-24 4t-21 12.5t-14.5 20 t-6 26.5v132q-112 8 -194 48t-135.5 105.5t-79.5 152.5q-25 89 -25 190zM374 703q0 -110 43 -182q41 -72 124 -92v585q-31 -9 -61.5 -30.5t-53.5 -59t-37.5 -92t-14.5 -129.5z" />
<glyph unicode="&#xa3;" horiz-adv-x="1205" d="M52 697q0 43 24 69q22 26 68 26h55q-15 23 -28.5 52t-23 62t-15 67t-5.5 64q0 60 17 115t49 100t76.5 82t99 63t118 39.5t132.5 13.5q87 0 157.5 -14.5t126.5 -39.5t98.5 -57.5t70.5 -70t42.5 -77t14.5 -78.5q0 -33 -11.5 -59t-30.5 -43t-46 -26t-59 -9t-53.5 10 t-35 27.5t-23 39t-20 43t-24.5 43.5t-37 39t-56 27t-82 10q-43 0 -84 -13t-72 -37.5t-50.5 -61t-19.5 -83.5q0 -26 5.5 -56.5t15 -61.5t21.5 -60q11 -27 23 -50h213q60 0 90.5 -23t30.5 -72t-30.5 -71.5t-90.5 -22.5h-154q4 -11 7 -22t3 -25q0 -43 -17.5 -89.5t-45 -89.5 t-63.5 -82t-74 -67l4 -5q26 10 49 21t49 19.5t54.5 14.5t63.5 6q47 0 86 -6.5t73.5 -14t68 -13t70.5 -5.5q13 0 33 3t40.5 7t40.5 7.5t31 3.5q26 0 48 -9t36 -26.5t22 -40.5t8 -49q0 -45 -19.5 -76.5t-52 -51.5t-72.5 -30q-42 -9 -82 -9q-49 0 -101.5 11.5t-108 26t-116 26 t-123.5 11.5q-29 0 -53.5 -3t-43 -8.5t-33 -12t-27.5 -13.5q-13 -6 -24.5 -13.5t-23 -12.5t-24 -8.5t-26.5 -3.5q-32 0 -55.5 11t-39.5 29t-23 42.5t-7 52.5q0 32 14 61t37.5 56t49 56t48.5 63t38.5 73.5t15.5 86.5q0 26 -6.5 51.5t-15.5 46.5h-104q-47 0 -76.5 23t-29.5 71 z" />
<glyph unicode="&#xa5;" horiz-adv-x="1424" d="M150 1316.5q0 39.5 20 71.5t57.5 50.5t89.5 18.5q31 0 53.5 -10t38.5 -25t26 -31q9 -16 14 -26l262 -500l264 500q6 10 15 26t25 31t39 25t55 10q49 0 86.5 -18t58 -49t21.5 -71t-25 -85l-259 -425h118q16 0 31 -5.5t25 -15.5t16 -24.5t6 -30.5q0 -17 -6 -31t-16 -24 t-24.5 -15.5t-31.5 -5.5h-209l-33 -58v-56h242q16 0 31 -6.5t25 -16.5t16 -24t6 -29q0 -18 -6 -31t-16 -23.5t-24.5 -16.5t-31.5 -6h-242v-259q0 -35 -10 -64.5t-30.5 -49.5t-49 -31.5t-66.5 -11.5q-37 0 -65 11.5t-47.5 31.5t-30.5 49t-11 65v259h-243q-17 0 -30 6 t-23 16.5t-16 23.5t-6 31q0 15 6 29t16 24t23 16q13 7 30 7h243v56l-33 58h-210q-17 0 -30 5.5t-23 15.5t-16 24.5t-6 30.5t6 30.5t16 24.5t23 16q13 5 30 5h121l-259 425q-26 43 -26 82.5z" />
<glyph unicode="&#xa9;" horiz-adv-x="1595" d="M48 711q0 104 27 200.5t77 178.5t118 150t151.5 116t179.5 74.5t198 26.5t197.5 -26.5t179 -74.5t152.5 -116t118 -150t75.5 -178.5t26.5 -200.5q0 -106 -26.5 -204t-75.5 -181t-118 -150t-152.5 -114.5t-179 -72t-197.5 -24.5t-198 24.5t-179.5 72t-151.5 114.5 t-118 150t-77 180t-27 205zM236 711q0 -126 42 -234t116.5 -186t178.5 -122.5t226 -44.5q78 0 150.5 20t135.5 57.5t114 90t87 118t56 141.5q20 77 20 160q0 84 -20 159.5t-56 139.5t-87 116.5t-114 89.5t-135 56.5t-151 19.5q-82 0 -155.5 -19.5t-136 -56.5t-112 -89.5 t-85.5 -116.5t-55 -139.5t-19 -159.5zM418 710q0 92 27 170t77.5 135.5t122.5 90t164 32.5q78 0 138 -22.5t102.5 -58t64 -77t21.5 -80.5q0 -26 -9 -44t-21 -29.5t-25.5 -16.5t-22.5 -5q-22 0 -37 5t-25 15t-17 21.5t-15 26.5q-8 17 -19 33.5t-27.5 30t-42.5 22.5 q-24 9 -65 9t-76 -17.5t-58.5 -50.5t-37 -80.5t-13.5 -105t13.5 -105t38 -82.5t59 -53.5t77.5 -18.5q35 0 59.5 8.5t41.5 21.5t28.5 30.5t23.5 34.5q8 14 17 27t19.5 23.5t26 16t35.5 5.5q36 0 58 -21.5t22 -61.5q0 -19 -10 -45t-28.5 -54t-47.5 -57t-65 -50.5t-81.5 -35 t-98.5 -13.5q-89 0 -162 33t-124.5 90t-79.5 135.5t-28 167.5z" />
<glyph unicode="&#xab;" horiz-adv-x="1091" d="M102 560q0 43 18 81.5t53 61.5l190 138q14 10 32 21q20 11 46 11q20 0 36.5 -9t28.5 -22.5t19.5 -31.5t7.5 -38q0 -32 -19 -58t-45 -44l-161 -110l161 -111q26 -17 45 -43t19 -58q0 -20 -7.5 -38t-19.5 -31.5t-28.5 -22t-36.5 -8.5q-26 0 -45 10t-33 20l-190 140 q-35 23 -53 61t-18 81zM559 560q0 43 17 81.5t52 61.5l193 138q14 10 31.5 21t43.5 11q20 0 37 -9t29.5 -22.5t19 -31.5t6.5 -38q0 -32 -17.5 -58t-44.5 -44l-160 -110l160 -111q26 -17 44 -43t18 -58q0 -20 -6.5 -38t-19 -31.5t-29.5 -22t-37 -8.5q-26 0 -43.5 10t-31.5 20 l-193 140q-35 23 -52 61t-17 81z" />
<glyph unicode="&#xad;" horiz-adv-x="963" d="M58 570.5q0 31.5 10.5 54t28.5 36t42.5 19t52.5 5.5h580q27 0 51 -5.5t42.5 -19t28.5 -36t10 -54t-10 -53.5t-28.5 -36t-43 -20t-50.5 -6h-580q-29 0 -53 6t-42 20t-28.5 36t-10.5 53.5z" />
<glyph unicode="&#xae;" horiz-adv-x="1595" d="M48 711q0 104 27 200.5t77 178.5t118 150t151.5 116t179.5 74.5t198 26.5t197.5 -26.5t179 -74.5t152.5 -116t118 -150t75.5 -178.5t26.5 -200.5q0 -106 -26.5 -204t-75.5 -181t-118 -150t-152.5 -114.5t-179 -72t-197.5 -24.5t-198 24.5t-179.5 72t-151.5 114.5 t-118 150t-77 180t-27 205zM236 711q0 -126 42 -234t116.5 -186t178.5 -122.5t226 -44.5q78 0 150.5 20t135.5 57.5t114 90t87 118t56 141.5q20 77 20 160q0 84 -20 159.5t-56 139.5t-87 116.5t-114 89.5t-135 56.5t-151 19.5q-82 0 -155.5 -19.5t-136 -56.5t-112 -89.5 t-85.5 -116.5t-55 -139.5t-19 -159.5zM504 396v612q0 23 7 40.5t20 28t29 15.5t33 5h254q67 0 121 -11.5t91.5 -38.5t57 -73.5t19.5 -116.5q0 -55 -16 -96.5t-41.5 -70t-59.5 -44t-69 -17.5l130 -171q12 -17 19.5 -35t8.5 -36t-6.5 -34t-24.5 -30q-20 -16 -41.5 -19.5 t-42 3.5t-38.5 21.5t-32 34.5l-189 266h-51v-233q0 -46 -26 -69t-64 -23q-18 0 -34 5.5t-28.5 16.5t-19.5 28.5t-7 41.5zM683 772h154q21 0 41.5 4t34.5 14.5t23 28.5q9 16 9 45q0 27 -9 45t-23 27.5t-34.5 13t-41.5 3.5h-154v-181z" />
<glyph unicode="&#xbb;" horiz-adv-x="1091" d="M104 348q0 32 17 58t45 43l159 111l-159 110q-26 17 -44 43q-18 27 -18 59q0 20 6.5 38t18.5 31.5t29.5 22.5t37.5 9q26 0 43 -10.5t32 -21.5l193 -138q34 -23 51.5 -61.5t17.5 -81.5t-17.5 -81t-51.5 -61l-193 -140q-15 -10 -32 -20t-43 -10q-20 0 -37.5 8.5t-29.5 22 t-18.5 31.5t-6.5 38zM559 348q0 32 18.5 58t44.5 43l161 111l-161 110q-26 17 -45 43q-18 27 -18 59q0 20 7 38t19.5 31.5t29 22.5t36.5 9q26 0 44.5 -10.5t33.5 -21.5l190 -138q34 -23 52 -61.5t18 -81.5t-18 -81t-52 -61l-190 -140q-15 -10 -33 -20q-19 -10 -45 -10 q-20 0 -36.5 8.5t-29 22t-19.5 31.5t-7 38z" />
<glyph unicode="&#xbc;" horiz-adv-x="1769" d="M92 1164q0 20 4.5 33t16 21.5t28.5 13t43 8.5l46 7q35 6 55 20.5t34.5 33t23 38.5t20 36.5t29 27.5t46.5 11q40 0 60 -17t20 -64v-659q0 -23 -4 -42.5t-15.5 -33t-32 -21t-48.5 -7.5q-55 0 -79.5 29t-24.5 75v445q-40 -19 -81 -23q-40 -4 -71.5 -4t-50.5 17t-19 55z M461 19q0 30 21 67l706 1331q6 9 12.5 19t15.5 18.5t21.5 13t26.5 4.5q16 0 30 -6t24.5 -14.5t16.5 -21.5t6 -25q0 -14 -6 -30.5t-16 -35.5l-706 -1332q-5 -8 -11.5 -18.5t-16 -18t-21 -13t-25.5 -5.5q-18 0 -31.5 6t-24.5 15.5t-16.5 21t-5.5 24.5zM1001 262q0 29 5 45 t14 26l368 447q12 13 22 24t24.5 17.5t31.5 10t40 3.5t43.5 -5.5t34.5 -17t21.5 -29t7.5 -37.5v-415h49q31 0 50 -21.5t19 -54.5q0 -35 -19 -55.5t-50 -20.5h-49v-104q0 -19 -4.5 -34t-16 -26.5t-30 -17.5t-47.5 -6t-49 6t-31.5 17.5t-16 26t-4.5 34.5v104h-315 q-26 0 -44 7.5t-30.5 20t-18 27t-5.5 28.5zM1187 331h227v284h-4z" />
<glyph unicode="&#xbd;" horiz-adv-x="1769" d="M92 1164q0 20 4.5 33t16 21.5t28.5 13t43 8.5l46 7q35 6 55 20.5t34.5 33t23 38.5t20 36.5t29 27.5t46.5 11q40 0 60 -17t20 -64v-659q0 -23 -4 -42.5t-15.5 -33t-32 -21t-48.5 -7.5q-55 0 -79.5 29t-24.5 75v445q-40 -19 -81 -23q-40 -4 -71.5 -4t-50.5 17t-19 55z M418 19q0 30 21 67l706 1331q6 9 12.5 19t15.5 18.5t21.5 13t26.5 4.5q16 0 29.5 -6t24.5 -14.5t16.5 -21.5t5.5 -25q0 -14 -5.5 -30.5t-15.5 -35.5l-706 -1332q-6 -8 -12 -18.5t-15.5 -18t-21 -13t-26.5 -5.5q-17 0 -30.5 6t-24.5 15.5t-16.5 21t-5.5 24.5zM1056 101 q0 63 54 125.5t173 132.5q66 38 111.5 64t72 47.5t37.5 46t11 60.5q0 23 -10 40.5t-27.5 30t-40.5 19.5t-49 7q-52 0 -92 -24.5t-60 -77.5q-6 -18 -12 -30t-14.5 -20t-21.5 -12.5t-33 -4.5t-37.5 4.5t-29.5 14t-19.5 25t-7.5 36.5q0 54 27 100.5t73 80t108.5 53t133.5 19.5 q76 0 135.5 -17t101.5 -49t65 -75t23 -92q0 -58 -12 -99.5t-36.5 -75t-62.5 -59.5q-37 -28 -88 -54q-53 -29 -94 -49t-70.5 -37.5t-47.5 -30.5t-24 -24h344q45 0 69.5 -22t24.5 -66q0 -49 -24.5 -68.5t-69.5 -19.5h-478q-27 0 -46.5 8.5t-32 21.5t-18.5 32t-6 39z" />
<glyph unicode="&#xbe;" horiz-adv-x="1769" d="M95 766q0 38 25 60t70 22q29 0 45 -9.5t26 -22t18.5 -28.5t24.5 -30t40.5 -23t67.5 -9q36 0 62.5 8.5t44 23t26 33t8.5 39t-5 37t-17.5 29.5t-34 22t-52.5 12q-13 2 -32 4.5t-35.5 9t-28 19.5t-11.5 36q0 26 7 42t21.5 24.5t34.5 12t49 5.5q43 3 63.5 26t20.5 60 q0 20 -9.5 34.5t-24.5 24.5t-36.5 16t-44.5 6q-38 0 -61 -8.5t-37.5 -21t-25 -27.5t-22 -26.5t-27.5 -20.5q-15 -8 -41 -8q-18 0 -34.5 3.5t-29 11.5t-19.5 22t-7 33q0 36 14.5 65t38 52t55 40t66.5 27.5t71 16t67 5.5q87 0 147.5 -20t98.5 -52t55 -73.5t17 -83.5 q0 -56 -30.5 -96.5t-91.5 -66.5v-4q38 -9 65 -25.5t44.5 -39.5t24.5 -52.5t7 -62.5q0 -69 -27.5 -121t-75 -86.5t-110.5 -51.5t-137 -17q-60 0 -108.5 10.5t-83 27t-59 39t-40 45t-21.5 44t-6 38.5zM543 19q0 14 5.5 30.5t15.5 36.5l706 1331q6 9 12.5 19t16 18.5t21 13 t25.5 4.5q16 0 30.5 -6t25 -14.5t16.5 -21.5t6 -25q0 -14 -6 -30.5t-17 -35.5l-704 -1332q-6 -8 -12.5 -18.5t-16.5 -18t-21.5 -13t-26.5 -5.5q-17 0 -30 6t-24 15.5t-16.5 21t-5.5 24.5zM1001 262q0 29 5 45t14 26l368 447q12 13 22 24t24.5 17.5t31.5 10t40 3.5t43.5 -5.5 t34.5 -17t21.5 -29t7.5 -37.5v-415h49q31 0 50 -21.5t19 -54.5q0 -35 -19 -55.5t-50 -20.5h-49v-104q0 -19 -4.5 -34t-16 -26.5t-30 -17.5t-47.5 -6t-49 6t-31.5 17.5t-16 26t-4.5 34.5v104h-315q-26 0 -44 7.5t-30.5 20t-18 27t-5.5 28.5zM1187 331h227v284h-4z" />
<glyph unicode="&#xd7;" horiz-adv-x="1162" d="M109 222q0 21 10.5 40.5t27.5 37.5l268 270l-268 271q-17 17 -27.5 36t-10.5 42q0 27 9.5 49.5t27 39t40.5 26t50 9.5q20 0 40.5 -11.5t34.5 -26.5l271 -268l269 268q14 15 33.5 26.5t41.5 11.5q26 0 49.5 -9.5t41 -26t27.5 -39t10 -49.5q0 -23 -10 -42t-27 -36 l-270 -271l270 -270q17 -18 27 -37.5t10 -40.5q0 -28 -10 -50t-27.5 -39.5t-40.5 -26t-50 -8.5q-20 0 -39.5 11.5t-35.5 25.5l-269 268l-271 -268q-14 -14 -34.5 -25.5t-40.5 -11.5q-27 0 -50 8.5t-40.5 26t-27 39.5t-9.5 50z" />
<glyph unicode="&#xf7;" horiz-adv-x="1199" d="M58 570.5q0 31.5 10.5 54t28.5 36t42.5 19t52.5 5.5h817q28 0 52.5 -5.5t42.5 -19t28.5 -36t10.5 -54t-10.5 -53.5t-28.5 -36t-42.5 -20t-52.5 -6h-817q-29 0 -53 6t-42 20t-28.5 36t-10.5 53.5zM433 158q0 35 14 66.5t36 54.5t51.5 37.5t64.5 14.5t65 -14.5t53 -37.5 t36 -54.5t13 -66.5q0 -31 -13 -59t-36 -50.5t-52.5 -35.5t-62.5 -13t-64 12t-54 34t-37 50.5t-14 61.5zM433 985q0 35 14 65t36 53t51.5 36.5t64.5 13.5t65 -13.5t53 -36.5t36 -53t13 -65q0 -33 -13 -62.5t-36 -52.5t-52.5 -36t-62.5 -13t-64 13t-54 36t-37 52.5t-14 62.5z " />
<glyph unicode="&#xe01;" horiz-adv-x="1297" d="M44.5 834q-4.5 16 0.5 34q4 16 15 42q29 63 75 122.5t114 104.5t158.5 72t205.5 27q110 0 195 -20.5t148.5 -55t107 -83.5t70.5 -105t40 -119.5t13 -129.5v-585q0 -31 -12.5 -58t-33.5 -46.5t-48 -30t-59 -10.5t-59 10.5t-48 30t-33.5 46.5t-12.5 58v605q0 42 -13 83 t-44.5 74t-82.5 54t-128 22q-57 0 -102.5 -10.5t-78 -28.5t-52 -39.5t-26.5 -42.5q38 -34 57 -87q20 -54 20 -120v-513q0 -31 -12.5 -57t-32.5 -45t-47.5 -29.5t-59.5 -10.5q-31 0 -58 10.5t-47.5 29.5t-32 45t-11.5 57v516q0 26 -8 54q-8 29 -30 55q-20 25 -31.5 41.5 t-16 32.5z" />
<glyph unicode="&#xe02;" horiz-adv-x="1105" d="M14 1089q0 26 9.5 47.5t26 37t38 26t47.5 10.5h206q26 0 45.5 -10.5t34.5 -26t25 -37t16 -47.5l140 -609l141 629q6 30 23 53t41.5 38t54.5 21q28 6 60 0q31 -6 56.5 -21.5t42 -38.5t22 -52t-2.5 -59l-224 -847q-11 -46 -29 -85.5t-45.5 -69t-63.5 -46t-80 -16.5t-79 17 t-62.5 46t-46 69t-30.5 85l-203 765h-42q-26 0 -47.5 8.5t-38 26t-26 39t-9.5 47.5z" />
<glyph unicode="&#xe03;" horiz-adv-x="1173" d="M37 1109.5q2 25.5 14 47.5t32.5 38.5t47.5 24.5q26 7 52 3.5t48 -16t38 -32.5t25 -46q6 -22 20 -34t34.5 -12t33.5 12t21 34q7 20 21 38t31 30.5t38 19.5t44 7q29 0 55.5 -11t45.5 -30t30.5 -45t11.5 -55q-3 -79 -13 -137.5t-28 -105.5t-46.5 -85.5t-68.5 -79.5 q-24 -24 -38 -54.5t-22 -62.5t-10 -66t-2 -64q0 -46 11.5 -81.5t32.5 -58.5t50.5 -36t64.5 -13q33 0 61 9.5t48 30.5t31.5 54t11.5 79v668q0 32 12.5 58t33 44.5t48 29.5t57.5 11q32 0 58.5 -11t47.5 -29.5t33 -45.5q13 -25 13 -57v-688q0 -110 -37.5 -189t-99.5 -131 t-145 -76.5t-173 -24.5q-93 0 -176.5 26.5t-147.5 79.5t-102 132t-38 183q0 72 3 131t17 108.5t45 93t89 86.5q13 10 27 21q12 10 26.5 21t28.5 23q-6 -3 -15 -4.5t-18.5 -3t-18 -3t-13.5 -1.5q-27 0 -66 7t-79.5 27.5t-75 59t-54.5 100.5q-8 26 -6 51.5z" />
<glyph unicode="&#xe04;" horiz-adv-x="1339" d="M112 135v579q0 66 11.5 130.5t37.5 122.5t68.5 107t105 85t146 56.5t191.5 20.5q107 0 190.5 -20.5t144.5 -56.5t103.5 -85t68 -107t37 -122.5t11.5 -130.5v-579q0 -31 -11.5 -57t-32.5 -45t-48 -29q-26 -11 -58 -11t-59 10.5t-47.5 29.5t-32.5 45t-12 57v602 q0 42 -13.5 84.5t-44 77t-79.5 56t-117 21.5q-69 0 -118.5 -21.5t-81 -56t-47.5 -77t-16 -84.5v-112q43 43 92 72t108 45q26 5 51 1.5t47 -16.5t36 -33t22 -46q5 -26 1.5 -52t-16.5 -47.5t-33 -36.5t-46 -21q-69 -13 -119.5 -42t-81.5 -70.5t-46 -96t-15 -121.5v-26 q0 -31 -11.5 -57t-31.5 -45t-47.5 -29.5t-57.5 -10.5q-32 0 -58.5 10.5t-47 29.5t-32 45t-11.5 57z" />
<glyph unicode="&#xe05;" horiz-adv-x="1350" d="M112 135v607q0 72 11.5 141.5t42.5 131t83 111.5q51 50 131 84q12 5 31.5 11t41.5 7.5t45 -3t46 -18.5l131 -88l137 88q22 14 43.5 17.5t41 2t35.5 -6.5t27 -10q81 -32 134 -82.5t85.5 -111.5t46 -131t13.5 -143v-607q0 -31 -11.5 -57t-32 -45t-47.5 -29.5t-58 -10.5 q-32 0 -59.5 10.5t-47.5 29.5t-31.5 45t-11.5 57v645q0 21 -3 45.5t-7.5 47.5t-12.5 44q-9 22 -23 36l-156 -101q-60 -43 -126 0l-159 98q-10 -17 -18 -38.5t-12 -44.5t-7 -44.5t-3 -42.5v-169q43 43 92 71.5t108 44.5q26 6 51 2.5t47 -16.5t36 -33t22 -46q5 -26 1.5 -52 t-16.5 -47.5t-33 -37.5t-46 -20q-69 -13 -119.5 -42t-81.5 -70.5t-46 -96.5t-15 -121v-12q0 -31 -11.5 -57t-32 -45t-47.5 -29.5t-59 -10.5t-58.5 10.5t-47.5 29.5t-32.5 45t-11.5 57z" />
<glyph unicode="&#xe06;" horiz-adv-x="1306" d="M65.5 1109.5q2.5 25.5 14.5 47.5t32 38.5t48 24.5q26 7 52 3.5t48 -16t38 -32.5t25 -46q5 -22 19.5 -34t34.5 -12t34 13q12 13 21 33q7 20 22 38t34 30.5t42 19.5t46 7q29 0 56.5 -10t47.5 -29t31.5 -44.5t11.5 -57.5v-112q0 -54 -15 -98.5t-40.5 -82.5t-58 -71.5 t-66.5 -61.5q-26 -21 -42.5 -38t-26.5 -36t-14.5 -43t-4.5 -62q0 -46 18.5 -89t53.5 -76.5t84.5 -53.5t111.5 -20q37 0 68 12.5t53.5 34.5t34 54t11.5 69v668q0 32 12 58.5t33 46t48.5 30.5t59 11t59 -11t48.5 -30.5t33 -46t12 -58.5v-644q0 -100 -21.5 -185t-72 -146.5 t-136 -94.5t-213.5 -33q-49 0 -94 11.5t-84.5 33t-72.5 49.5t-59 60q0 -30 -11.5 -55t-31 -44t-47 -30t-55.5 -11q-31 0 -57.5 11t-46.5 30t-31.5 44t-11.5 55v311q0 48 0.5 84.5t5 67t14 55.5t26 49t43 47.5t65.5 50.5q40 29 65.5 48.5t39.5 39.5q-12 -8 -30 -12.5 t-32 -4.5q-27 0 -66 7t-79.5 27.5t-75 59t-54.5 100.5q-9 26 -6.5 51.5z" />
<glyph unicode="&#xe07;" horiz-adv-x="982" d="M65.5 638q2.5 27 14.5 51.5t33.5 43.5t50.5 27q29 12 58 12t53.5 -11t44.5 -30.5t30 -47.5l151 -427q6 -17 16 -24t23 -7t21.5 8.5t8.5 19.5v712h-63q-26 0 -46 9.5t-36 26t-25 38.5q-8 21 -8 47t8.5 48t24.5 38.5t37 27.5q19 10 45 10h248q25 0 46 -10.5t36 -27 t24 -38.5t9 -48v-798q0 -84 -26 -144t-70.5 -98.5t-106.5 -56.5t-131 -18q-71 0 -123.5 16t-90.5 47.5t-65 75.5q-27 46 -47 100l-137 372q-10 29 -7.5 56z" />
<glyph unicode="&#xe08;" horiz-adv-x="1190" d="M106.5 930q2.5 29 18.5 56q35 58 83 104t108.5 78.5t132.5 50t156 17.5q57 0 115 -9t112 -30t101.5 -54.5t82.5 -82t55.5 -114t20.5 -150.5q0 -60 -17.5 -133t-48 -156.5t-70.5 -179t-88 -200.5q-28 -67 -86 -104t-134 -37q-39 0 -73.5 9t-63.5 27t-49.5 45.5t-35.5 62.5 l-114 315h-44q-26 0 -47.5 9.5t-37.5 26.5t-24.5 39.5t-8.5 48.5t8.5 48t24.5 39.5t37.5 27.5t47.5 10h193q26 0 44 -10t31.5 -27.5t23 -39.5t17.5 -48l74 -223q11 33 27 72.5t30.5 80.5t27.5 82t23 77t15.5 66.5t5.5 47.5q0 95 -48.5 149.5t-149.5 54.5q-66 0 -113 -31.5 t-74 -93.5q-13 -29 -37 -47t-53.5 -25t-60.5 -4t-57 16q-29 14 -47.5 36.5t-27 48t-6 54.5z" />
<glyph unicode="&#xe09;" horiz-adv-x="1297" d="M109 433v107q0 32 11.5 58t32 45t48 29.5t58.5 10.5q32 0 59.5 -10.5t47.5 -29.5t31.5 -46t11.5 -57v-128q0 -39 13 -70t37.5 -53.5t59 -34.5t77.5 -12q74 0 127 22.5t88.5 62t52.5 93.5q17 52 17 116v207q0 40 -11.5 82t-40 75t-76 53t-119.5 20q-49 0 -86.5 -7 t-66.5 -21.5t-47.5 -33t-31.5 -38.5q-16 -26 -40 -43.5t-50.5 -23t-55 -1.5t-54.5 19q-26 16 -43.5 39.5t-24 51t-2.5 56.5q3 28 21 54q31 48 76 86t105.5 66t135 43.5t164.5 15.5q110 0 194.5 -20.5t145.5 -55t102 -83.5t65.5 -106.5t35 -121t10.5 -129.5v-596 q0 -30 -11.5 -55.5t-32 -44t-47 -28.5t-56.5 -10q-31 0 -57.5 10t-46.5 29.5t-31.5 45t-11.5 56.5q-32 -33 -73 -61.5t-88 -48.5t-96 -31q-51 -12 -100 -12q-124 0 -206 33t-131 94.5t-69.5 145.5t-20.5 186z" />
<glyph unicode="&#xe0a;" horiz-adv-x="1162" d="M32.5 1092q2.5 24 12.5 44t27 34.5t40 23.5q31 10 60.5 16.5t54 10t44.5 5t33 1.5q76 0 136.5 -19t101 -56t57.5 -95t6 -134q67 14 107 57.5t54 118.5q6 31 22 56.5t40 42t53 23t61 2.5q31 -6 58 -21t43.5 -37.5t23.5 -52t0 -64.5q-6 -34 -18 -67t-30 -62t-42 -54 q-24 -24 -57 -44q43 -26 68.5 -66.5t40 -83t18 -83.5t3.5 -72v-124q0 -72 -18 -131t-50 -106.5t-75 -82.5t-95 -57t-109.5 -33t-114.5 -11q-61 0 -120.5 11.5t-113 35.5t-98 59t-77 82.5t-51.5 105.5t-19 127v95q0 46 3 82t10.5 63.5t17.5 49.5t24.5 43t33 42.5t41.5 50.5 q32 37 52 64.5t21 56.5q3 20 -9 31.5t-32 11.5q-33 0 -87 -14q-23 -6 -46.5 -3t-43 13t-34.5 27t-22.5 40t-5 47zM409 409q0 -46 14.5 -81.5t39 -60.5t56 -38t69.5 -13q33 0 62.5 10t51 31.5t34.5 56t13 81.5v121q0 51 -16.5 94.5t-46 73.5t-71.5 47.5t-94 20.5 q-14 -22 -30 -45q-16 -24 -36 -53q-17 -23 -26 -40.5t-13 -34.5t-5 -36q-2 -19 -2 -42v-92z" />
<glyph unicode="&#xe0b;" horiz-adv-x="1190" d="M37 1109.5q2 25.5 14 47.5t32.5 38.5t47.5 24.5q26 7 52 3.5t48 -16t38 -32.5t25 -46q6 -22 20 -34t34.5 -12t33.5 13t21 33q7 20 21 38t31 30.5t39 19.5t45 7q28 0 55 -10t46.5 -28t30 -44t7.5 -59q-3 -43 -8 -80.5t-13 -70.5q64 14 101 53.5t48 116.5q6 30 22 54.5 t39.5 41t52.5 22.5q28 7 59 3q32 -6 58 -20t41.5 -36t23 -51.5t0.5 -64.5q-6 -36 -17 -67t-28 -59t-41.5 -53t-59.5 -45q46 -26 72 -66.5t40.5 -85t19 -88t4.5 -74.5v-121q0 -72 -18 -132t-50.5 -106.5t-77.5 -81.5t-96.5 -58t-109 -33t-118.5 -10q-91 0 -176.5 26.5 t-151.5 79.5t-106.5 132t-40.5 183q0 72 3 131t17 108.5t45 93t89 86.5q16 13 30 24q13 10 27 22.5t22 23.5q-11 -8 -29 -12.5t-33 -4.5q-27 0 -66 7t-79.5 27.5t-75 59t-54.5 100.5q-8 26 -6 51.5zM452 428q0 -46 13 -81.5t37 -58.5t55 -36t65 -13q35 0 65 9.5t52.5 30.5 t35.5 54t13 79v101q0 49 -14.5 92t-40.5 77t-62.5 54.5t-80.5 23.5q-13 -23 -30 -43q-19 -20 -36 -42q-23 -26 -36 -55.5t-21.5 -62.5t-11.5 -66t-3 -63z" />
<glyph unicode="&#xe0c;" horiz-adv-x="1919" d="M56.5 834q-3.5 16 0.5 34q3 16 15 42q29 63 73 122.5t108.5 104.5t151.5 72t200 27q105 0 186.5 -20.5t142 -55t102 -83.5t67 -105t36 -119.5t10.5 -129.5v-187q0 -64 16 -117t44.5 -92.5t71.5 -62.5q41 -22 96 -22q28 0 52 8.5t40.5 29t25 53.5t8.5 79v659q0 32 12.5 58 t33.5 46t48 30t59 10t59 -10t48 -30t33.5 -46t12.5 -58v-638q0 -109 -17.5 -194.5t-60.5 -144.5t-116 -90q-71 -30 -184 -30q-44 0 -88 13t-82 34.5t-70 48.5q-33 26 -53 54q0 -30 -11.5 -55.5t-31 -44t-46.5 -28.5t-57 -10t-56.5 10t-46 28.5t-31 44.5t-11.5 56v615 q0 40 -12.5 81.5t-40.5 73.5t-74 53t-115 23q-53 0 -94.5 -9.5t-70 -26t-47.5 -38t-27 -45.5q76 -72 76 -207v-412h29q23 0 44 -9t35 -25t22 -37t8 -45q0 -23 -8 -45t-22 -37.5t-34.5 -25t-44.5 -9.5h-220q-23 0 -43.5 9.5t-35 25t-23 36.5t-8.5 46v531q0 26 -7 55 q-7 31 -30 57q-20 25 -32 41.5t-15.5 32.5z" />
<glyph unicode="&#xe0d;" horiz-adv-x="1919" d="M56.5 834q-3.5 16 0.5 34q3 16 15 42q29 63 73 122.5t108.5 104.5t151.5 72t200 27q105 0 186.5 -20.5t142 -55t102 -83.5t67 -105t36 -119.5t10.5 -129.5v-190q0 -95 34 -147t94 -52q55 0 97 26.5t71.5 72t43.5 103.5q14 57 14 121v414q0 32 12.5 58t33.5 46t48 30 t59 10t59 -10t48 -30t33.5 -46t12.5 -58v-892q0 -123 -30.5 -231.5t-95 -189.5t-164 -127t-239.5 -46q-66 0 -128.5 14.5t-118 45t-101.5 73.5q-45 46 -75 103q-15 32 -17 60t7.5 51t29 41t45.5 31t54.5 14.5t54.5 -7t47 -27.5t34 -44q13 -26 32.5 -46.5t41 -33.5t46 -20 t45.5 -7q67 0 111.5 21.5t71 57t38 78t11.5 85.5v117q-52 -45 -116.5 -71t-142.5 -26q-115 0 -192 30.5t-124 88.5t-67 144t-20 196v186q0 42 -12.5 83t-40.5 74t-74 54t-115 22q-49 0 -88.5 -10t-70.5 -26.5t-51.5 -37.5t-31.5 -41q37 -36 58 -90q21 -57 21 -123v-412h29 q23 0 44 -9t35 -25t22 -37t8 -45q0 -23 -8 -45t-22 -37.5t-34.5 -25t-44.5 -9.5h-220q-23 0 -43.5 9.5t-35 25t-23 36.5t-8.5 46v531q0 26 -7 55q-7 31 -30 57q-20 25 -32 41.5t-15.5 32.5z" />
<glyph unicode="&#xe0e;" horiz-adv-x="1347" d="M43 117q0 23 8 44.5t23 37.5t35.5 25t43.5 9h27v418q0 26 -8 54q-8 29 -29 55q-21 25 -33 41.5t-15 32.5t1 34q2 16 13 42q29 63 75 122.5t114 104.5t158.5 72t207.5 27q109 0 193.5 -20.5t147.5 -55t108 -83.5t72 -105t39 -119.5t12 -129.5v-975q0 -37 -14.5 -69.5 t-39 -57t-57.5 -39t-71 -14.5q-40 0 -73 16t-59 42q-18 17 -38.5 33.5t-49 28.5t-61.5 20q-33 7 -76 7q-46 0 -85.5 -10t-74 -26.5t-67 -40.5t-67.5 -53q-17 -14 -37 -20t-40.5 -4.5t-40.5 11.5t-33 28q-14 17 -20 37t-4 40.5t12.5 39.5t24.5 35q42 44 91 79t104.5 61 t114.5 40.5t122 14.5q78 0 135.5 -16.5t99.5 -37.5v850q0 42 -14 83t-45 74t-82 54t-127 22q-58 0 -103 -10.5t-77.5 -28.5t-52 -39.5t-28.5 -42.5q19 -17 33.5 -35.5t23.5 -42.5t13.5 -55t4.5 -74v-531q0 -23 -8 -45t-23 -37.5t-35 -25t-43 -9.5h-216q-23 0 -43.5 9.5 t-35.5 25t-23 36.5t-8 46z" />
<glyph unicode="&#xe0f;" horiz-adv-x="1347" d="M43 117q0 23 8 44.5t23 37.5t35.5 25t43.5 9h27v418q0 26 -8 54q-8 29 -29 55q-21 25 -33 41.5t-15 32.5t1 34q2 16 13 42q29 63 75 122.5t114 104.5t158.5 72t207.5 27q109 0 193.5 -20.5t147.5 -55t108 -83.5t72 -105t39 -119.5t12 -129.5v-995q0 -38 -14.5 -69 t-38.5 -53t-56.5 -35t-69.5 -13q-39 0 -72 13.5t-50 46.5q-9 18 -19 33.5t-21 28t-24 19t-27 6.5q-26 0 -45 -18t-29 -44q-15 -38 -50 -61.5t-78 -23.5q-21 0 -40.5 6.5t-36 18t-29.5 27.5q-12 16 -20 36q-11 26 -27.5 44t-43.5 18q-29 0 -50 -20q-21 -19 -32 -45 q-12 -29 -32 -49t-44.5 -29t-51 -9t-52.5 12t-44 30.5t-26.5 43t-7 51t11.5 52.5q20 49 51 84.5t69.5 58.5t82.5 34q43 10 92 10q34 0 65 -8t58 -20.5t50 -31.5t40 -39q16 20 37 36.5t44.5 29.5t50 20.5t54.5 7.5q40 0 70.5 -14t50.5 -31v861q0 42 -14 83t-45 74t-82 54 t-127 22q-58 0 -103 -10.5t-77.5 -28.5t-52 -39.5t-28.5 -42.5q19 -17 33.5 -35.5t23.5 -42.5t13.5 -55t4.5 -74v-531q0 -23 -8 -45t-23 -37.5t-35 -25t-43 -9.5h-216q-23 0 -43.5 9.5t-35.5 25t-23 36.5t-8 46z" />
<glyph unicode="&#xe10;" horiz-adv-x="1185" d="M106.5 930q2.5 29 18.5 56q35 58 83 104t108.5 78.5t132.5 50t156 17.5q46 0 93 -7q48 -5 95 -19q19 7 33.5 23.5t24.5 36.5q14 29 38 47.5t53 26t59 4t59 -19.5q29 -15 46 -39.5t25.5 -53t5.5 -59.5q-5 -30 -20 -56q-17 -26 -38.5 -46.5t-48.5 -35.5q28 -46 45 -105.5 t17 -136.5q0 -60 -17.5 -131.5t-46.5 -155t-69 -177t-86 -200.5q-15 -31 -38 -58.5t-51.5 -47t-63.5 -30t-72 -10.5q-39 0 -74 11.5t-65.5 33t-52 50t-36.5 63.5l-108 301h-44q-26 0 -47.5 9.5t-37.5 26.5t-24.5 39.5t-8.5 48.5t8.5 48t24.5 39.5t37.5 27.5t47.5 10h193 q26 0 44 -10t31.5 -27.5t23 -39.5t17.5 -48l74 -223q11 33 27 72.5t30.5 80.5t27.5 82t23 77t15.5 66.5t5.5 47.5q0 95 -48.5 149.5t-149.5 54.5q-66 0 -113 -31.5t-74 -93.5q-13 -29 -37 -47t-53.5 -25t-60.5 -4t-57 16q-29 14 -47.5 36.5t-27 48t-6 54.5zM115 -353 q15 68 43.5 109.5t64 63.5t72 29t68.5 7q45 -3 83 -22q38 -18 61 -50q9 13 21.5 26.5t28 23t32.5 16t36 6.5q35 0 63.5 -18.5t45.5 -47.5q0 26 10.5 50.5t27.5 41.5t41.5 28t50.5 11t50.5 -9.5t41.5 -25.5t27.5 -39t10.5 -49v-152q0 -26 -10.5 -49t-27 -39t-39.5 -25 q-24 -10 -50 -10q-20 0 -39.5 6.5t-36 18t-28 27.5t-19.5 33q-8 26 -24.5 40.5t-41.5 14.5q-29 0 -48 -21.5t-27 -56.5q-5 -26 -27.5 -44t-51.5 -18t-50.5 18t-27.5 46q-8 34 -25.5 55t-43.5 21t-43 -18t-26 -48q-6 -20 -17.5 -36t-28.5 -25.5t-36 -12.5t-39 3t-36 17.5 t-24.5 28t-11.5 35.5t0 40z" />
<glyph unicode="&#xe11;" horiz-adv-x="1306" d="M60.5 1112.5q2.5 25.5 14 47.5t32 38.5t49.5 24.5q25 7 51 3.5t47.5 -16t38.5 -32.5q15 -20 24 -46q6 -22 20 -34t34.5 -12t34.5 13t21.5 33t22 38.5t34 31t41.5 19.5t45 7q49 0 88 -27t53 -73q88 60 155 85t113 25q68 0 110.5 -20t65.5 -57.5t32 -89.5q8 -51 8 -118 v-821q0 -31 -13 -57t-33 -44.5t-47.5 -29.5t-58.5 -11q-32 0 -59.5 11t-47.5 29.5t-33 45.5q-13 25 -13 56v752v26.5t-1.5 25.5t-6 19t-12.5 7q-12 0 -36.5 -16.5t-56 -44t-70.5 -64t-79 -80.5q-49 -51 -82 -90t-55 -76t-30.5 -76.5t-8.5 -89.5v-290q0 -31 -12 -57t-33 -45 t-48.5 -29.5t-57.5 -10.5q-32 0 -58.5 10.5t-47.5 29.5t-33 45t-12 57v268q0 46 1.5 80.5t6.5 63.5t14 52t23.5 47.5t37.5 51.5q20 28 52 62q38 44 66.5 72.5t45.5 48.5q-14 -7 -32.5 -10.5t-27.5 -3.5q-27 0 -65.5 7t-77 27.5t-73.5 59t-55 100.5q-8 26 -5.5 51.5z" />
<glyph unicode="&#xe12;" horiz-adv-x="2043" d="M112 141v601q0 72 16 141.5t50 131t89.5 111.5t134.5 84q11 5 30.5 11t41 7.5t45.5 -3.5q22 -4 45 -18l133 -88l135 88q22 14 44.5 17.5t41 2t35.5 -6.5q15 -5 26 -10q81 -32 137 -82.5t90.5 -111.5t50.5 -131t16 -143v-198q0 -63 16 -117.5t44.5 -93.5t71.5 -62 q41 -22 95 -22q29 0 53.5 9.5t40.5 29t24.5 52t8.5 80.5v646q0 31 12.5 58.5t33 47.5t48 32.5t59.5 12.5t59 -12.5t48 -32.5t33 -48q12 -27 12 -58v-625q0 -110 -17 -195.5t-61.5 -144t-119.5 -90t-192 -31.5q-40 0 -81 13t-77 33t-68 47.5t-55 57.5v-9q0 -30 -11.5 -54.5 t-30 -43t-45 -28.5t-57.5 -10q-30 0 -56.5 10t-45.5 28.5t-30.5 43t-11.5 56.5v633q0 55 -20 102.5t-66 82.5l-127 -84q-28 -17 -61.5 -18.5t-67.5 18.5l-130 87q-46 -36 -67.5 -84.5t-21.5 -103.5v-381l161 170h-13q-20 0 -36.5 7t-29 19.5t-19.5 29.5t-7 37q0 21 7 36.5 t19.5 28.5t29.5 20.5t36 7.5h245q23 0 42.5 -9t34 -22.5t23 -33t8.5 -41.5q0 -20 -6 -40t-20 -34l-478 -515q-23 -25 -55.5 -39t-69.5 -14q-36 0 -67 11t-55 32t-37 49.5t-13 64.5z" />
<glyph unicode="&#xe13;" horiz-adv-x="1919" d="M56.5 834q-3.5 16 0.5 34q3 16 15 42q29 63 73 122.5t108.5 104.5t151.5 72t200 27q105 0 186.5 -20.5t142 -55t102 -83.5t67 -105t36 -119.5t10.5 -129.5v-303q0 -47 8.5 -80t26 -52.5t40.5 -29t53 -9.5q55 0 97 22.5t71.5 62t43.5 93.5t14 117v530q0 32 12.5 58 t33.5 46t48 30t59 10t59 -10t48 -30t33.5 -46t12.5 -58v-950q0 -30 -11.5 -55.5t-32 -44t-46.5 -28.5t-57 -10q-30 0 -57 10t-46.5 28.5t-31.5 43t-12 54.5v9q-23 -32 -53.5 -58.5t-65 -47.5t-74 -33t-81.5 -12q-115 0 -191.5 31.5t-121 90t-63 144t-18.5 195.5v302 q0 40 -12.5 81t-40.5 73.5t-74 53.5t-115 22q-49 0 -88.5 -10t-70.5 -26.5t-51.5 -37.5t-31.5 -41q37 -36 58 -89q21 -55 21 -121v-415h29q23 0 44 -9t35 -25t22 -37t8 -45q0 -23 -8 -45t-22 -37.5t-34.5 -25t-44.5 -9.5h-220q-23 0 -43.5 9.5t-35 25t-23 36.5t-8.5 46v534 q0 26 -7 54q-7 29 -30 55q-20 25 -32 41.5t-15.5 32.5z" />
<glyph unicode="&#xe14;" horiz-adv-x="1385" d="M112 137v580q0 66 13 130.5t41 122t73.5 106.5t110.5 84t150 55q88 21 197 21q108 0 192 -20.5t149 -55.5t109.5 -84t72.5 -106.5t40.5 -122t12.5 -130.5v-583q0 -32 -11.5 -58t-31.5 -45t-47.5 -29.5t-59.5 -10.5q-31 0 -58.5 10.5t-48 29.5t-32 46t-11.5 57v606 q0 42 -15 84.5t-48 75.5t-85.5 54.5t-127.5 21.5q-76 0 -130 -21.5t-88.5 -54.5t-50.5 -75.5t-16 -84.5v-360l170 166h-22q-20 0 -36.5 7t-29 19.5t-19.5 29.5t-7 37q0 21 7 36.5t19.5 28.5t29.5 20.5t36 7.5h251q23 0 42.5 -9t33.5 -22.5t23 -33t9 -41.5q0 -20 -6 -39.5 t-23 -39.5l-490 -510q-23 -24 -53 -38.5t-68 -14.5q-34 0 -64.5 11t-53.5 31t-36 48t-13 63z" />
<glyph unicode="&#xe15;" horiz-adv-x="1385" d="M112 137v605q0 72 16 141.5t50 131t89.5 111.5t134.5 84q11 5 30.5 11t41 7.5t45.5 -3.5q22 -4 45 -18l133 -88l135 88q22 14 44.5 17.5t41 2t35.5 -6.5q15 -5 26 -10q81 -32 137 -82.5t90.5 -111.5t50.5 -131t16 -143v-608q0 -32 -11.5 -58t-31.5 -45t-47.5 -29.5 t-59.5 -10.5q-31 0 -58.5 10.5t-48 29.5t-32 46t-11.5 57v632q0 25 -5 50t-15.5 48t-26.5 45.5t-39 39.5l-127 -84q-28 -15 -61 -18q-34 -2 -68 18l-130 88q-23 -17 -40 -40t-27.5 -47.5t-16 -50.5t-5.5 -49v-386l170 166h-22q-20 0 -36.5 7t-29 19.5t-19.5 29.5t-7 37 q0 21 7 36.5t19.5 28.5t29.5 20.5t36 7.5h251q23 0 42.5 -9t33.5 -22.5t23 -33t9 -41.5q0 -20 -6 -39.5t-23 -39.5l-490 -510q-23 -24 -53 -38.5t-68 -14.5q-34 0 -64.5 11t-53.5 31t-36 48t-13 63z" />
<glyph unicode="&#xe16;" horiz-adv-x="1297" d="M44.5 834q-4.5 16 0.5 34q4 16 15 42q29 63 75 122.5t114 104.5t158.5 72t205.5 27q110 0 195 -20.5t148.5 -55t107 -83.5t70.5 -105t40 -119.5t13 -129.5v-588q0 -31 -12.5 -57t-33.5 -45.5t-48 -30.5t-59 -11t-59 11t-48 30.5t-33.5 45.5t-12.5 57v608q0 42 -13 83 t-44.5 74t-82.5 54t-128 22q-57 0 -102.5 -10.5t-78 -28.5t-52 -39.5t-26.5 -42.5q38 -34 56 -87q18 -54 18 -120v-415h28q24 0 44.5 -9t35 -25t22.5 -37t8 -45q0 -23 -8 -45t-22.5 -37.5t-34.5 -25t-45 -9.5h-217q-23 0 -43 9.5t-35.5 25t-23 36.5t-7.5 46v534q0 26 -8 54 q-8 29 -30 55q-20 25 -31.5 41.5t-16 32.5z" />
<glyph unicode="&#xe17;" horiz-adv-x="1297" d="M112 130v963q0 30 11.5 55.5t30.5 43.5t45.5 28t56.5 10q31 0 57.5 -10t45 -28t30 -43.5t11.5 -55.5v-19q75 75 160 114.5t177 39.5q124 0 209 -30t138.5 -87t78 -139t24.5 -186v-656q0 -32 -11.5 -58t-32 -45.5t-48 -30t-58.5 -10.5q-32 0 -59.5 10.5t-47.5 30 t-31.5 45.5t-11.5 58v659q0 87 -46 128.5t-138 41.5q-72 0 -127 -21.5t-91 -60.5t-54.5 -93.5t-18.5 -118.5v-535q0 -32 -11.5 -58t-32 -45.5t-47.5 -30t-59 -10.5t-59 10.5t-47.5 30t-32 45.5t-11.5 58z" />
<glyph unicode="&#xe18;" horiz-adv-x="1232" d="M109 366v109q0 32 11.5 58t32 45.5t48 30t58.5 10.5q32 0 59.5 -10.5t47.5 -30t31.5 -45.5t11.5 -58v-109q0 -38 18.5 -63t49 -41.5t66.5 -24t73 -7.5q33 0 70 6t68.5 22t52 41.5t20.5 66.5q0 24 -3 43.5t-13 37.5t-29 33t-50 31t-77.5 32t-111.5 36q-91 23 -170 52 t-137.5 67.5t-92.5 93.5t-34 128q2 58 21.5 104t54 81t79 59t96.5 39t107 22q57 8 112 8q83 0 158 -13t138.5 -42.5t110.5 -75.5q45 -45 74 -111q11 -29 12.5 -58.5t-7.5 -55.5t-28.5 -47t-50.5 -32q-28 -12 -58.5 -12t-57 10t-49.5 30.5t-37.5 49t-33 47.5t-43 30.5 t-53.5 17t-61 8.5q-33 3 -66 1t-59 -10t-42.5 -20.5t-16.5 -29.5q0 -14 16 -26.5t39 -24t53 -23t59 -20t55 -15.5t41 -12q78 -21 142 -41.5t115.5 -45.5t89.5 -56t63 -71.5t37.5 -94.5t12.5 -124q0 -69 -19.5 -125.5t-55 -99.5t-83.5 -74.5t-105.5 -52t-121.5 -29t-131 -8.5 q-100 0 -192.5 21.5t-162 68.5t-111 121t-41.5 178z" />
<glyph unicode="&#xe19;" horiz-adv-x="1297" d="M112 422v658q0 32 11.5 58t32 44.5t47.5 29.5t59 11t58.5 -11t46.5 -29.5t32 -45.5q11 -25 11 -57v-654q0 -43 14 -76t37.5 -55.5t57.5 -34.5t77 -12q72 0 127 22t91 62t54 93t18 118v537q0 32 12 58t32 44.5t47.5 29.5t59.5 11q31 0 58 -11t47 -29.5t32 -45.5 q13 -25 13 -57v-962q0 -30 -11.5 -55.5t-31 -43.5t-46.5 -28t-55 -10q-31 0 -57.5 10t-46 28t-31 44t-11.5 55v14q-75 -74 -159 -113t-176 -39q-124 0 -210 30t-139 87t-77 139t-24 186z" />
<glyph unicode="&#xe1a;" horiz-adv-x="1297" d="M112 495v585q0 32 11.5 58t32 44.5t47.5 29.5t58 11t58 -11t47 -29.5t31.5 -44.5t11.5 -58v-605q0 -43 11.5 -86t39.5 -78t74 -56q45 -22 114 -22q68 0 113 21.5t72.5 56.5t39 78t11.5 86v605q0 32 12.5 58t33 44.5t48 29.5t57.5 11q32 0 58.5 -11t47.5 -29.5t33.5 -44.5 t12.5 -58v-585q0 -66 -10.5 -130.5t-35 -122.5t-63 -107t-99 -85t-142.5 -56t-189 -20q-108 0 -189.5 20t-141 56t-99 85t-63 107t-33.5 122.5t-10 130.5z" />
<glyph unicode="&#xe1b;" horiz-adv-x="1296" d="M112 495v585q0 32 11.5 58t32 44.5t46.5 29.5t57 11q32 0 59.5 -11t47.5 -29.5t31.5 -44.5t11.5 -58v-605q0 -43 11.5 -86t39 -78t73.5 -56.5t115 -21.5q68 0 113 21.5t72.5 56.5t39 78t11.5 86v1135q0 32 11.5 57.5t32.5 44.5t48 29q26 10 58 10t59 -10t47.5 -29 t32.5 -44.5t12 -57.5v-1115q0 -66 -9.5 -130.5t-34 -122.5t-64 -107t-99 -85t-141.5 -56t-189 -20q-108 0 -190 20t-142 56t-98.5 85t-62.5 107t-33.5 122.5t-9.5 130.5z" />
<glyph unicode="&#xe1c;" horiz-adv-x="1388" d="M112 354v704q0 32 11.5 58.5t32.5 47.5t48 33q26 13 58 13h209q26 0 47 -10.5t36.5 -27.5t24.5 -38.5t9 -47.5t-9 -49t-24.5 -39.5t-36.5 -26t-47 -9.5h-59v-562q0 -86 18.5 -126.5t50.5 -40.5q24 0 38.5 16.5t22.5 46t10 68.5t2 85v90q0 28 11 52.5t29.5 42.5t44.5 27.5 t55 9.5t55 -9.5t44.5 -27.5t30 -42.5t11.5 -52.5v-90q0 -46 3 -85t11.5 -68.5t24.5 -46t43 -16.5q26 0 42.5 40.5t16.5 126.5v680q0 32 11.5 58t32.5 44.5t48 29.5q26 11 58 11t59 -11t47.5 -29.5t32.5 -45.5q12 -25 12 -57v-726q0 -98 -23.5 -170t-67 -118t-104 -69 t-134.5 -23q-81 0 -146 26t-108 81q-40 -49 -102 -78t-143 -29q-76 0 -138.5 23t-106.5 69t-68 118t-24 170z" />
<glyph unicode="&#xe1d;" horiz-adv-x="1388" d="M112 354v704q0 32 11.5 58.5t32.5 47.5t48 33q26 13 58 13h209q26 0 47 -10.5t36.5 -27.5t24.5 -38.5t9 -47.5t-9 -49t-24.5 -39.5t-36.5 -26t-47 -9.5h-59v-562q0 -86 18.5 -126.5t50.5 -40.5q24 0 38.5 16.5t22.5 46t10 68.5t2 85v90q0 28 11 52.5t29.5 42.5t44.5 27.5 t55 9.5t55 -9.5t44.5 -27.5t30 -42.5t11.5 -52.5v-90q0 -46 3 -85t11.5 -68.5t24.5 -46t43 -16.5q26 0 42.5 40.5t16.5 126.5v1208q0 32 11.5 58t32.5 45.5t48 29.5q26 10 58 10t59 -10t47.5 -29.5t32.5 -46t12 -57.5v-1254q0 -98 -23.5 -170t-67 -118t-104 -69t-134.5 -23 q-81 0 -146 26t-108 81q-40 -49 -102 -78t-143 -29q-76 0 -138.5 23t-106.5 69t-68 118t-24 170z" />
<glyph unicode="&#xe1e;" horiz-adv-x="1618" d="M68 1103q5 29 20.5 52t40.5 40q24 17 55.5 24.5t62.5 3t57 -19t44 -37.5t25 -54l128 -588l174 599q6 22 19.5 40.5t31 31.5t39 21t44.5 8t45.5 -8t40.5 -21.5t31 -32.5t19 -39l172 -593l127 582q6 31 24.5 54t44.5 37.5t56.5 19t62 -3t56 -24.5t40.5 -40t20 -52t-4 -60 l-251 -945q-6 -26 -21 -46t-36 -35.5t-45.5 -23t-52.5 -7.5q-29 0 -53.5 8.5t-44.5 23t-36 35.5q-15 19 -22 45l-174 592l-172 -592q-7 -26 -22 -46t-35 -35.5t-45 -22.5q-24 -8 -53 -8t-54 7.5t-46 23t-35.5 35.5t-20.5 46l-253 945q-9 31 -4 60z" />
<glyph unicode="&#xe1f;" horiz-adv-x="1618" d="M68 1103q5 29 20.5 52t40.5 40q24 17 55.5 24.5t62.5 3t57 -19t44 -37.5t25 -54l128 -588l174 599q6 22 19.5 40.5t31 31.5t39 21t44.5 8t45.5 -8t40.5 -21.5t31 -32.5t19 -39l172 -593l263 1110q5 32 24 55.5t45 38t56.5 19t62.5 -4.5q32 -7 55.5 -23.5t39.5 -40.5 t21 -52t-4 -60l-387 -1474q-6 -26 -21 -46t-36 -35.5t-45.5 -23t-52.5 -7.5q-29 0 -53.5 8.5t-44.5 23t-36 35.5q-15 19 -22 45l-174 592l-172 -592q-7 -26 -22 -46t-35 -35.5t-45 -22.5q-24 -8 -53 -8t-54 7.5t-46 23t-35.5 35.5t-20.5 46l-253 945q-9 31 -4 60z" />
<glyph unicode="&#xe20;" horiz-adv-x="1347" d="M43 117q0 23 8 44.5t23 37.5t35.5 25t43.5 9h27v418q0 26 -8 54q-8 29 -29 55q-21 25 -33 41.5t-15 32.5t1 34q2 16 13 42q29 63 75 122.5t114 104.5t158.5 72t207.5 27q109 0 193.5 -20.5t147.5 -55t108 -83.5t72 -105t39 -119.5t12 -129.5v-593q0 -32 -12 -58 t-33.5 -45.5t-48.5 -30t-59 -10.5t-59.5 10.5t-47.5 30t-32 45.5t-12 58v613q0 42 -14 83t-45 74t-82 54t-127 22q-58 0 -103 -10.5t-77.5 -28.5t-52 -39.5t-28.5 -42.5q19 -17 33.5 -35.5t23.5 -42.5t13.5 -55t4.5 -74v-531q0 -23 -8 -45t-23 -37.5t-35 -25t-43 -9.5h-216 q-23 0 -43.5 9.5t-35.5 25t-23 36.5t-8 46z" />
<glyph unicode="&#xe21;" horiz-adv-x="1297" d="M112 122v958q0 32 11.5 58t32 44.5t47.5 29.5t59 11t59 -11t47.5 -29.5t31.5 -45.5q12 -25 12 -57v-537q0 -63 18.5 -117t54.5 -94t90 -62q56 -22 128 -22q41 0 75 12t58.5 34.5t37.5 55.5t13 76v654q0 32 11.5 58t31.5 44.5t47.5 29.5t59.5 11q31 0 58.5 -11t48 -29.5 t31.5 -45.5q12 -25 12 -57v-658q0 -104 -24.5 -186t-78 -139t-138.5 -87t-209 -30q-46 0 -92 10t-89 31.5t-82 53.5t-74 72v-25q0 -30 -11.5 -55t-30 -43t-45 -28t-57.5 -10q-30 0 -56.5 10t-45.5 28t-30.5 43t-11.5 55z" />
<glyph unicode="&#xe22;" horiz-adv-x="1264" d="M92 389q0 89 28 157q30 67 93 105q-30 24 -53 53.5t-38 61.5t-23 64q-7 31 -7 63q0 63 16 110.5t44 83t64.5 59t77 37.5t83.5 20q43 7 81 7h98q26 0 49 -10.5t40 -27.5t26.5 -40t9.5 -49t-9.5 -48.5t-26.5 -39.5t-40 -26.5t-49 -9.5h-61q-27 0 -47 -7t-33 -18t-20 -25 q-6 -16 -6 -31q0 -23 8 -41.5t23 -33.5t36.5 -24.5t50.5 -12.5h60q23 0 44 -8.5t36 -24.5t24.5 -36t9.5 -43t-9.5 -44.5t-24.5 -36t-36 -24t-44 -9.5h-49q-24 -1 -46.5 -7t-39.5 -20.5t-27 -41.5t-10 -74q0 -43 20 -74.5t53 -54.5t75 -34.5t85 -11.5q49 0 90.5 14.5t72 44.5 t47.5 77.5t17 113.5v609q0 32 11.5 57.5t32 44t47.5 30t59 11.5t58 -11.5t46 -30t32 -44.5t12 -57v-648q0 -113 -41 -199.5t-113 -145.5t-167 -88t-204 -29q-66 0 -132.5 10t-125.5 33t-111 58t-88.5 81t-57.5 105t-21 131z" />
<glyph unicode="&#xe23;" horiz-adv-x="1097" d="M75.5 321.5q2.5 29.5 14.5 55.5t34 46q23 21 52 32q31 12 60 9t54 -15.5t43 -34t30 -50.5q21 -69 71.5 -101.5t125.5 -32.5q26 0 56.5 6t55.5 19t41 37q16 25 16 59q0 26 -14 45.5t-42 37.5t-70 36q-41 17 -99 40q-86 33 -162.5 67t-132.5 75.5t-88 97.5t-32 134 q0 64 17.5 115.5t49 90t73.5 65.5t90 44.5t100.5 25.5t104.5 8q81 0 153 -14.5t131 -45.5t100.5 -82t67.5 -126q9 -29 7.5 -58t-14.5 -53.5t-35 -44.5t-51 -29q-29 -8 -58 -6t-54 15t-44 34.5t-29 50.5t-25.5 50t-36 34t-45 18.5t-49 5.5t-50 -5.5t-46.5 -16.5t-35 -29 t-14 -44q0 -20 13 -36t39 -33t68 -34.5t102 -37.5q124 -45 204.5 -89t126.5 -91.5t64 -99t18 -112.5q0 -105 -37 -177.5t-102.5 -117.5t-153.5 -63.5t-190 -18.5q-81 0 -153 16t-132 51t-106 89t-73 131q-12 28 -9.5 57.5z" />
<glyph unicode="&#xe24;" horiz-adv-x="1272" d="M44.5 834q-4.5 16 0.5 34q4 16 15 42q29 63 75 122.5t114 104.5t158.5 72t205.5 27q110 0 195 -20.5t148.5 -55t107 -83.5t70.5 -105t40 -119.5t13 -129.5v-978q0 -32 -12.5 -58.5t-33.5 -45t-48 -30t-59 -11.5t-59 11.5t-48 30t-33.5 45t-12.5 58.5v998q0 42 -13 83 t-44.5 74t-82.5 54t-128 22q-57 0 -102.5 -10.5t-78 -28.5t-52 -39.5t-26.5 -42.5q38 -34 56 -87q18 -54 18 -120v-415h28q24 0 44.5 -9t35 -25t22.5 -37t8 -45q0 -23 -8 -45t-22.5 -37.5t-34.5 -25t-45 -9.5h-217q-23 0 -43 9.5t-35.5 25t-23 36.5t-7.5 46v534q0 26 -8 54 q-8 29 -30 55q-20 25 -31.5 41.5t-16 32.5z" />
<glyph unicode="&#xe25;" horiz-adv-x="1267" d="M76 334q0 63 18 112t51.5 88t81 66.5t108.5 49t133.5 39t156.5 31.5q43 9 85.5 19t75 25.5t52.5 36t20 49.5q0 43 -18 69t-47.5 39t-65.5 15.5t-73 2.5q-39 0 -73 -5.5t-61.5 -19.5t-48.5 -37q-22 -24 -36 -59q-12 -28 -32 -48.5t-46 -33.5t-56 -14.5t-62 7.5 q-30 9 -51.5 30.5t-32.5 48t-12.5 57.5t10.5 60q30 78 82.5 130.5t119.5 84t147 45.5t168 14q57 0 115.5 -7.5t112.5 -23.5t100.5 -44t82 -69t55.5 -98.5t20 -132.5v-734q0 -32 -12 -57t-32 -44.5t-47 -29.5q-25 -10 -57 -10t-59 10t-47.5 29.5t-31.5 45.5q-12 24 -12 56 v427q-49 -31 -99.5 -45t-91.5 -22q-52 -10 -104 -20.5t-93 -25.5t-67 -36.5t-26 -56.5q0 -37 16.5 -63t43.5 -41.5t58.5 -21.5t64.5 -6h25.5t27.5 3q25 4 47.5 0t41 -15t31.5 -29.5t16 -44.5q4 -23 -0.5 -45.5t-16.5 -40.5t-29.5 -31t-40.5 -19q-40 -8 -76 -12.5t-73 -4.5 q-90 0 -168.5 18.5t-138 60.5t-94.5 110q-36 70 -36 168z" />
<glyph unicode="&#xe26;" horiz-adv-x="1347" d="M43 117q0 23 8 44.5t23 37.5t35.5 25t43.5 9h27v418q0 26 -8 54q-8 29 -29 55q-21 25 -33 41.5t-15 32.5t1 34q2 16 13 42q29 63 75 122.5t114 104.5t158.5 72t207.5 27q109 0 193.5 -20.5t147.5 -55t108 -83.5t72 -105t39 -119.5t12 -129.5v-976q0 -32 -12 -58.5 t-33.5 -46t-48.5 -30.5t-59 -11t-59.5 11t-47.5 30.5t-32 46t-12 58.5v996q0 42 -14 83t-45 74t-82 54t-127 22q-58 0 -103 -10.5t-77.5 -28.5t-52 -39.5t-28.5 -42.5q19 -17 33.5 -35.5t23.5 -42.5t13.5 -55t4.5 -74v-531q0 -23 -8 -45t-23 -37.5t-35 -25t-43 -9.5h-216 q-23 0 -43.5 9.5t-35.5 25t-23 36.5t-8 46z" />
<glyph unicode="&#xe27;" horiz-adv-x="1156" d="M102.5 327q1.5 30 13 56t32.5 47q22 19 51 31q29 11 59 9.5t56 -14t46 -34.5t30 -50q12 -35 30 -61t39.5 -43t47.5 -26t53 -9q49 0 88.5 21.5t67 68t42 116t14.5 166.5q0 95 -14.5 165.5t-42 117.5t-66 69t-89.5 22q-27 0 -52.5 -8.5t-47.5 -26t-39.5 -43t-28.5 -60.5 q-10 -29 -30.5 -50.5t-46.5 -34.5t-55.5 -14.5t-59.5 10.5q-29 11 -51 31.5t-33.5 46t-13 56t9.5 59.5q26 66 69.5 120.5t101 93t128 59t149.5 20.5q136 0 234.5 -46t163 -128.5t96.5 -199.5t32 -259q0 -143 -32 -259.5t-96.5 -199.5t-163 -127.5t-234.5 -44.5 q-83 0 -153.5 20t-127.5 59t-99 94t-68 121q-11 29 -9.5 59z" />
<glyph unicode="&#xe28;" horiz-adv-x="1339" d="M112 135v579q0 66 11.5 130.5t37.5 122.5t68.5 107t105 85t146 56.5t191.5 20.5q72 0 133.5 -9.5t111.5 -26.5q19 10 35 25.5t24 35.5q19 41 50 62.5t76 21.5q28 0 53.5 -11.5t44 -30.5t28.5 -44t9 -54q-3 -52 -34 -88t-75 -63q54 -72 76.5 -160t22.5 -180v-579 q0 -31 -11.5 -57t-32.5 -45t-48 -29q-26 -11 -58 -11t-59 10.5t-47.5 29.5t-32.5 45t-12 57v602q0 42 -13.5 84.5t-44 77t-79.5 56t-117 21.5q-69 0 -118.5 -21.5t-81 -56t-47.5 -77t-16 -84.5v-112q43 43 92 72t108 45q26 5 51 1.5t47 -16.5t36 -33t22 -46q5 -26 1.5 -52 t-16.5 -47.5t-33 -36.5t-46 -21q-69 -13 -119.5 -42t-81.5 -70.5t-46 -96t-15 -121.5v-26q0 -31 -11.5 -57t-31.5 -45t-47.5 -29.5t-57.5 -10.5q-32 0 -58.5 10.5t-47 29.5t-32 45t-11.5 57z" />
<glyph unicode="&#xe29;" horiz-adv-x="1344" d="M112 495v585q0 32 11.5 58t32 44.5t47.5 30t59 11.5t59 -11.5t47.5 -30t32 -44.5t11.5 -58v-605q0 -43 13 -86t43 -78t80.5 -56.5t123.5 -21.5q75 0 123.5 21.5t77 56.5t41 78t12.5 86v71h-245q-27 0 -51 9t-42 26t-28 39t-10 51v95q0 27 10 49.5t28 39t42 26t51 9.5 q26 0 50 -8.5t42 -24.5t28 -38q11 -24 11 -50h114v311q0 32 12 58t32.5 44.5t47.5 30t59 11.5t59.5 -11.5t48 -30t33 -44.5t12.5 -58v-311h14q23 0 43.5 -8.5t34 -24t21.5 -36t8 -43.5t-8 -43.5t-21.5 -35.5t-34 -23.5t-43.5 -8.5h-14v-51q0 -66 -11 -130.5t-36 -122.5 t-67 -107t-104 -85t-146 -56t-194 -20q-112 0 -197 20t-147.5 56t-103.5 85t-66.5 107t-35.5 122.5t-10 130.5z" />
<glyph unicode="&#xe2a;" horiz-adv-x="1267" d="M76 334q0 63 18 112t51.5 88t81 66.5t108.5 49t133.5 39t156.5 31.5q43 9 85.5 19t75 25.5t52.5 36t20 49.5q0 43 -18 69t-47.5 39t-65.5 15.5t-73 2.5q-39 0 -73 -5.5t-61.5 -19.5t-48.5 -37q-22 -24 -36 -59q-12 -28 -32 -48.5t-46 -33.5t-56 -14.5t-62 7.5 q-30 9 -51.5 30.5t-32.5 48t-12.5 57.5t10.5 60q30 78 82.5 130.5t119.5 84t147 45.5t168 14q57 0 115.5 -7.5t113.5 -23.5q14 10 27 24.5t22 31.5q18 41 49 62.5t76 21.5q29 0 54 -11.5t43.5 -30.5t29.5 -44t8 -54q-3 -49 -31 -85q-28 -37 -71 -63q24 -39 37 -87t13 -109 v-734q0 -32 -12 -57t-32 -44.5t-47 -29.5q-25 -10 -57 -10t-59 10t-47.5 29.5t-31.5 45.5q-12 24 -12 56v427q-49 -31 -99.5 -45t-91.5 -22q-52 -10 -104 -20.5t-93 -25.5t-67 -36.5t-26 -56.5q0 -37 16.5 -63t43.5 -41.5t58.5 -21.5t64.5 -6h25.5t27.5 3q25 4 47.5 0 t41 -15t31.5 -29.5t16 -44.5q4 -23 -0.5 -45.5t-16.5 -40.5t-29.5 -31t-40.5 -19q-40 -8 -76 -12.5t-73 -4.5q-90 0 -168.5 18.5t-138 60.5t-94.5 110q-36 70 -36 168z" />
<glyph unicode="&#xe2b;" horiz-adv-x="1270" d="M112 130v950q0 32 11.5 58t32 44.5t47.5 30t59 11.5t59 -11.5t47.5 -30t32 -44.5t11.5 -58v-233l561 354q25 16 52.5 21t54 -1t49.5 -21.5t39 -40.5q16 -24 20 -51.5t-1.5 -54t-21.5 -49.5t-39 -39l-89 -58q37 -27 61.5 -64t39 -81.5t21 -96.5t6.5 -109v-426 q0 -32 -12.5 -58t-32.5 -45.5t-47.5 -30t-58.5 -10.5q-32 0 -58.5 10.5t-47.5 30t-32.5 45.5t-11.5 58v446q0 29 -3 56.5t-11.5 49t-23 38.5t-37.5 26l-377 -243v-373q0 -32 -11.5 -58t-32 -45.5t-47.5 -30t-59 -10.5t-59 10.5t-47.5 30t-32 45.5t-11.5 58z" />
<glyph unicode="&#xe2c;" horiz-adv-x="1579" d="M69 1103q6 29 21 52t40.5 40t55.5 25q31 7 62 2.5t57 -19t44 -37.5q20 -23 25 -54l118 -628l168 455q8 21 21 39t30.5 31t38.5 21q22 8 45 8q49 0 83 -28q32 -28 49 -71l179 -472l73 329q9 41 12.5 72t-0.5 54.5t-20 40t-45 25.5q-19 6 -35.5 16t-28 25.5t-18.5 34.5 t-7 39q0 23 8 43t21.5 36t31.5 26q19 10 40 15q57 10 97.5 35t60.5 68q17 38 52.5 61.5t79.5 23.5q32 0 58 -11.5t46 -31.5t31.5 -47.5t11.5 -57.5q0 -35 -14 -63t-37.5 -49.5t-51.5 -39.5q-28 -17 -56 -31q51 -59 70.5 -129t-3.5 -146l-211 -716q-15 -46 -54 -74.5 t-90.5 -28.5t-90 28.5t-53.5 74.5l-191 522l-184 -522q-14 -46 -53 -74.5t-91 -28.5q-26 0 -49.5 7t-42.5 21.5t-32 33t-20 41.5l-249 954q-9 31 -3 60z" />
<glyph unicode="&#xe2d;" horiz-adv-x="1249" d="M72 564q0 26 8.5 48t23 39t36 26.5t47.5 9.5h340q26 0 47 -9.5t36 -26.5t23.5 -39t8.5 -48q0 -25 -8.5 -47t-23.5 -39t-36 -26.5t-47 -9.5h-141q11 -46 34.5 -84t54 -66t69 -43.5t84.5 -15.5q60 0 107 24.5t79.5 72t49.5 116t17 156.5q0 181 -63 276t-193 95 q-35 0 -70 -7.5t-67 -23t-57.5 -37t-41.5 -50.5q-15 -28 -35 -48.5t-44.5 -33.5t-54 -14.5t-62.5 7.5q-30 9 -52.5 30.5t-34 49t-12 57.5t13.5 59q32 63 83.5 115t118 88t146.5 54.5t169 18.5q155 0 262.5 -49t174.5 -134.5t97 -201.5t30 -251q0 -84 -13.5 -163 t-42.5 -149.5t-73.5 -128t-107 -99.5t-143 -65t-181.5 -23q-98 0 -177 21t-139.5 60t-105.5 93t-73.5 120t-43 141t-17.5 155z" />
<glyph unicode="&#xe2e;" horiz-adv-x="1244" d="M72 564q0 26 8.5 48t23 39t36 26.5t47.5 9.5h340q26 0 47 -9.5t36 -26.5t23.5 -39t8.5 -48q0 -25 -8.5 -47t-23.5 -39t-36 -26.5t-47 -9.5h-141q11 -46 34.5 -84t54 -66t69 -43.5t84.5 -15.5q60 0 107 24.5t79.5 72t49.5 116t17 156.5q0 181 -63 276t-193 95 q-35 0 -70 -7.5t-67 -23t-57.5 -37t-41.5 -50.5q-15 -28 -35 -48.5t-44.5 -33.5t-54 -14.5t-62.5 7.5q-30 9 -52.5 30.5t-34 49t-12 57.5t13.5 59q32 63 83.5 115t118 88t146.5 54.5t169 18.5q69 0 126.5 -10t108.5 -27q17 10 33.5 26t25.5 34q18 41 49 62q28 22 75 22 q28 0 54 -11.5t45 -30.5t29 -44t7 -54q-3 -52 -33 -88.5t-77 -62.5l-4 -3q66 -86 95.5 -200.5t29.5 -248.5q0 -84 -13.5 -163t-42.5 -149.5t-73.5 -128t-107 -99.5t-143 -65t-181.5 -23q-98 0 -177 21t-139.5 60t-105.5 93t-73.5 120t-43 141t-17.5 155z" />
<glyph unicode="&#xe2f;" horiz-adv-x="1303" d="M115 847q0 69 18 122t49 93.5t73 68t88.5 44.5t97 26t99.5 9h115q26 0 47 -10.5t37 -27.5t24.5 -38.5t8.5 -47.5t-8.5 -49t-24.5 -39.5t-37 -26t-47 -9.5h-115q-60 0 -89 -32q-29 -31 -29 -86q0 -26 9.5 -53.5t32.5 -49t60.5 -34.5t94.5 -13q133 0 203 45q71 44 71 145 v197q0 32 12 57.5t32.5 44t47 30t58.5 11.5q31 0 58 -11.5t47 -30t32 -44.5t12 -57v-954q0 -32 -12 -57t-32 -44.5t-47 -29.5t-58 -10q-32 0 -58.5 10t-47 29.5t-32.5 45.5q-12 24 -12 56v371q-55 -29 -122.5 -45.5t-142.5 -16.5q-127 0 -223.5 29.5t-160.5 83t-96.5 130 t-32.5 168.5z" />
<glyph unicode="&#xe30;" horiz-adv-x="751" d="M115 291v101q0 26 10 47.5t26.5 37t39 24.5t48.5 9t48.5 -9t39 -24.5t26.5 -37t10 -47.5h213q23 0 41.5 -9t32.5 -23t22 -34.5t8 -43.5t-8 -42.5t-22 -33.5t-32.5 -23t-41.5 -9h-337q-26 0 -48.5 9t-39 24t-26.5 36.5t-10 47.5zM115 890v101q0 26 10 47.5t26.5 36.5 t39 23.5t48.5 8.5t48.5 -8.5t39 -23.5t26.5 -36.5t10 -47.5h213q23 0 41.5 -9t32.5 -23t22 -34.5t8 -43.5t-8 -43t-22 -34.5t-32.5 -23t-41.5 -8.5h-337q-26 0 -48.5 8.5t-39 24.5t-26.5 37.5t-10 47.5z" />
<glyph unicode="&#xe31;" d="M-793 1506v104q0 27 10.5 50t28 39.5t42 26t52.5 9.5t51.5 -9.5t41.5 -26t29 -39.5t11 -50h488q23 0 43 -8.5t34.5 -24.5t22.5 -37.5t8 -44.5t-8 -45t-22.5 -37t-33.5 -24t-44 -9h-621q-27 0 -52 10t-42.5 25.5t-28 38.5t-10.5 52z" />
<glyph unicode="&#xe32;" horiz-adv-x="1044" d="M36 906q-1 30 10 60q26 66 72 116.5t103 84.5t122.5 51.5t134.5 17.5q95 0 178.5 -25.5t145 -76.5t96.5 -130.5t35 -185.5v-688q0 -32 -12 -58t-33 -45.5t-48.5 -30t-57.5 -10.5q-32 0 -58.5 10.5t-47.5 30t-33 45.5t-12 58v648q0 103 -39 150.5t-114 47.5 q-52 0 -89.5 -28.5t-55.5 -84.5q-12 -29 -33 -51.5t-48 -35.5t-57.5 -14.5t-59.5 8.5q-28 12 -51.5 33t-35 47t-12.5 56z" />
<glyph unicode="&#xe33;" horiz-adv-x="1044" d="M-521 1601q0 54 19.5 100t53 79.5t79.5 54t98 20.5t97.5 -20.5t80 -54t55.5 -79.5t21 -100q0 -52 -21 -98t-55.5 -79t-80.5 -53q-45 -20 -97 -20t-98 20t-79.5 53t-53 79t-19.5 98zM-363 1601q0 -17 7.5 -33.5t20 -29.5t30 -21t34.5 -8q19 0 35.5 8t29.5 21t21 29.5 t8 33.5q0 19 -8 36.5t-21 30t-30 20.5t-34.5 8t-35 -8t-30 -20.5t-20 -30t-7.5 -36.5zM36 906.5q1 -30.5 12.5 -56.5t34.5 -48q24 -22 52 -32q29 -11 59.5 -9t57.5 15t49 34.5t32 52.5q17 57 55 85t90 28q75 0 114 -46q39 -49 39 -152v-648q0 -32 12 -58t33 -45.5t48.5 -30 t57.5 -10.5q32 0 58.5 10.5t47.5 30t33 45.5t12 58v688q0 106 -35 185.5t-96.5 130.5t-145 76.5t-178.5 25.5q-69 0 -134.5 -17.5t-122.5 -51.5t-102 -84q-47 -51 -73 -117q-11 -29 -10 -59.5z" />
<glyph unicode="&#xe34;" d="M-1198 1495q0 23 8 44.5t21.5 37.5t33.5 24.5t43 8.5h885q23 0 43 -8.5t33.5 -24.5t21.5 -37.5t8 -44.5t-8 -45t-21.5 -37t-33.5 -24t-43 -9h-885q-23 0 -43 9t-33.5 24t-21.5 37t-8 45z" />
<glyph unicode="&#xe35;" d="M-1198 1495q0 23 8 44.5t21.5 37.5t33.5 24.5t43 8.5h692v63q0 29 11.5 55t30 44t44.5 28t56 10q29 0 55.5 -10t45.5 -28t30 -43q12 -27 12 -56v-157q0 -28 -11.5 -53.5t-30.5 -44t-45 -28.5t-56 -10h-834q-23 0 -43 9t-33.5 24t-21.5 37t-8 45z" />
<glyph unicode="&#xe36;" d="M-1198 1495q0 23 8 44.5t21.5 37.5t33.5 24.5t43 8.5h559v9q0 46 17.5 87.5t47.5 72t70.5 47.5t87.5 17q46 0 87.5 -18t71.5 -49t47.5 -72.5t17.5 -87.5q0 -52 -17.5 -94.5t-47.5 -74t-71.5 -49.5t-87.5 -18h-782q-23 0 -43 9t-33.5 24t-21.5 37t-8 45zM-389 1619 q0 -16 6 -30t16.5 -24t26 -16.5t30.5 -6.5q18 0 31.5 6.5t25 16.5t17.5 24.5t6 29.5q0 17 -6 31.5t-17.5 25t-26 17t-30.5 6.5q-17 0 -31.5 -6.5t-25 -17t-16.5 -25t-6 -31.5z" />
<glyph unicode="&#xe37;" d="M-1198 1495q0 23 8 44.5t21.5 37.5t33.5 24.5t43 8.5h411v89q0 25 9.5 45.5t25 35t37 22.5t46.5 8q24 0 46 -8t37.5 -22.5t25 -35t9.5 -45.5v-89h94v89q0 25 10 45.5t25.5 35t37.5 22.5t45 8q24 0 46.5 -8t38.5 -22.5t24.5 -35t8.5 -45.5v-183q0 -28 -11.5 -53.5 t-30.5 -44t-45 -28.5t-56 -10h-834q-23 0 -43 9t-33.5 24t-21.5 37t-8 45z" />
<glyph unicode="&#xe38;" d="M-544 -252q0 23 8 42.5t21.5 34t31.5 22.5q16 9 39 9h231q23 0 41 -8.5t31.5 -23t21 -34.5t7.5 -42v-304q0 -29 -11 -53.5t-29 -41.5t-44 -26.5t-53 -9.5q-29 0 -54 9.5t-44 26.5t-29 41.5t-10 53.5v196h-58q-23 0 -40 8.5t-30.5 23t-21.5 34.5t-8 42z" />
<glyph unicode="&#xe39;" d="M-945 -261q0 23 8 45t22.5 37.5t34.5 25.5q22 9 45 9h187q23 0 43 -9.5t34.5 -25t22.5 -36.5t8 -46v-73q0 -46 18 -70t58 -24q78 -1 78 94v68q0 28 10 53.5t29 43.5t45 28.5t53 10.5q29 0 54 -10.5t43 -28.5t29 -44t11 -53v-68q0 -68 -19 -127.5t-60 -104.5t-108 -71.5 t-165 -26.5q-88 0 -150.5 21t-105.5 59t-66 90.5t-28 116.5h-21q-23 0 -44 9t-35.5 25t-22.5 37t-8 45z" />
<glyph unicode="&#xe3a;" d="M-449 -279q0 39 15.5 72.5t41 59.5t60 40.5t73.5 14.5q37 0 71 -14.5t59 -40.5t40.5 -60.5t15.5 -72t-15.5 -72t-40.5 -59t-59 -40.5t-71 -16q-39 0 -73.5 16t-60 40.5t-41 59t-15.5 72.5z" />
<glyph unicode="&#xe3e;" />
<glyph unicode="&#xe3f;" horiz-adv-x="1401" d="M132 184v1063q0 40 15.5 74.5t41.5 60.5t61 42t74 16h298v130q0 14 6 27t15 22.5t21.5 15t23.5 5.5q12 0 24 -5.5t21.5 -15t15.5 -22.5t6 -27v-131q43 0 87 -3t85 -9.5t78.5 -18t65.5 -28.5q39 -24 74.5 -55.5t63 -72t43 -88.5t15.5 -106q0 -49 -11.5 -91.5t-31.5 -79 t-49 -66t-63 -52.5q49 -23 89 -57t69 -76.5t45 -93t16 -103.5q0 -55 -14.5 -109t-43.5 -102.5t-70.5 -90.5t-97 -72t-123.5 -48q-66 -17 -147 -17h-80v-147q0 -13 -6 -25t-15.5 -22t-21.5 -16t-24 -6q-11 0 -23.5 6t-21.5 16t-15 22t-6 25v147h-305q-38 0 -71.5 14.5 t-59 40.5t-40 59t-14.5 70zM445 251h177v371h-177v-371zM445 852h177v337h-177v-337zM755 251h53q52 0 90.5 14t65.5 40t40 62t13 78q0 47 -20.5 81t-54 55t-77.5 31q-41 10 -87 10h-23v-371zM755 852q56 3 94 17t62.5 36t36 51.5t11.5 65.5q0 48 -16 79t-43 49.5 t-64.5 27.5t-80.5 10v-336z" />
<glyph unicode="&#xe40;" horiz-adv-x="551" d="M124 130v949q0 31 11.5 58t33 45.5t49 30t59 11.5t59 -11.5t47.5 -30t32.5 -46t12.5 -57.5v-949q0 -32 -12.5 -58t-32.5 -45.5t-48 -30.5q-27 -10 -58.5 -10t-59 10.5t-49 30t-33 45.5t-11.5 58z" />
<glyph unicode="&#xe41;" horiz-adv-x="996" d="M112 130v949q0 31 11.5 58t33.5 45.5t49 30t59 11.5t59 -11.5t47.5 -30t32.5 -46t12 -57.5v-949q0 -32 -12 -58t-32.5 -45.5t-48.5 -30.5q-26 -10 -58 -10t-59 10.5t-49 30t-33.5 45.5t-11.5 58zM582 130v949q0 31 11.5 58t32.5 45.5t48 30t59 11.5t59 -11.5t48 -30 t32.5 -46t11.5 -57.5v-949q0 -32 -11.5 -58t-32.5 -45.5t-49 -30t-58 -10.5q-32 0 -59 10.5t-48 30t-32.5 45.5t-11.5 58z" />
<glyph unicode="&#xe42;" horiz-adv-x="613" d="M-23 1675q0 26 9.5 47.5t26 38t38 26t47.5 9.5h527q24 0 46 -9.5t38.5 -25.5t25 -38t8.5 -47q0 -26 -8.5 -47.5t-25 -37.5t-39 -24.5t-45.5 -8.5h-251q16 -13 29 -33t22.5 -43t14.5 -48.5t5 -48.5v-1140h27q26 0 47 -10t36 -26t24 -39t9 -48q0 -26 -9 -48t-24 -38 t-36 -26t-47 -10h-213q-26 0 -46 10t-36 26t-24.5 39t-8.5 47v1296q0 49 -26 89t-70 58q-32 15 -51.5 44.5t-19.5 65.5z" />
<glyph unicode="&#xe43;" horiz-adv-x="613" d="M-86.5 1527q-2.5 24 4.5 50q20 69 57 119.5t85 84t105 49.5t114 16q64 0 124.5 -14.5t107 -47t74.5 -82.5q28 -49 28 -121q0 -24 -5.5 -46.5t-15.5 -42.5t-24 -39t-28 -37q-17 -24 -33.5 -46t-29.5 -47.5t-22 -55t-10 -63.5v-959h30q26 0 47 -10t36 -26t23.5 -39t8.5 -48 q0 -26 -8.5 -48t-23.5 -38t-36 -26t-47 -10h-213q-26 0 -46 10t-36 26t-24.5 39t-8.5 47v1082q0 39 11.5 72.5t28.5 64.5t37.5 58t40.5 53q29 34 49 62q20 30 20 56q0 5 -3 14.5t-8.5 17.5t-17 13.5t-31.5 5.5q-42 0 -73 -31.5t-45 -81.5q-8 -26 -23 -44t-36 -29.5 t-45 -15.5q-23 -3 -49 4q-25 7 -44 22t-31 36.5t-14.5 45.5z" />
<glyph unicode="&#xe44;" horiz-adv-x="613" d="M-154 1676q0 25 9.5 47t25 38t37.5 25.5t47 9.5h527q26 0 48 -9.5t37.5 -26t25.5 -39t10 -46.5q0 -38 -20 -66.5t-52 -43.5q-46 -20 -71 -59.5t-25 -87.5v-1173h27q26 0 47 -10t36 -26t24 -39t9 -48q0 -26 -9 -48t-24 -38t-36 -26t-47 -10h-213q-26 0 -46 10t-36 26 t-24.5 39t-8.5 47v1263q0 23 6 48.5t14.5 48.5t21.5 42.5t30 33.5h-251q-25 0 -47 8.5t-37.5 24.5t-25 37.5t-9.5 47.5z" />
<glyph unicode="&#xe45;" horiz-adv-x="1044" d="M36 906q-1 30 10 60q26 66 72 116.5t103 84.5t122.5 51.5t134.5 17.5q95 0 178.5 -25.5t145 -76.5t96.5 -130.5t35 -185.5v-1082q0 -31 -12 -57t-33 -45.5t-48.5 -29.5t-57.5 -10q-32 0 -58.5 10t-47.5 29.5t-33 46t-12 56.5v1042q0 103 -39 150.5t-114 47.5 q-52 0 -89.5 -28.5t-55.5 -84.5q-12 -29 -33 -51.5t-48 -35.5t-57.5 -14.5t-59.5 8.5q-28 12 -51.5 33t-35 47t-12.5 56z" />
<glyph unicode="&#xe46;" horiz-adv-x="1232" d="M101 749q-6 78 4 149t44.5 131t93.5 106t149 73q13 3 32.5 8t39.5 5t41.5 -5.5t38.5 -23.5l72 -69l64 71q17 17 38.5 23.5t44.5 5t43.5 -6t34.5 -8.5q92 -26 147 -72.5t83.5 -109.5t37 -136.5t8.5 -149.5v-1004q0 -31 -12 -57t-33 -45.5t-48.5 -29.5t-58.5 -10 q-32 0 -59.5 10t-47.5 29.5t-32 46t-12 56.5v1027v53.5t-2.5 59t-8 53t-18.5 36.5l-107 -101q-11 -12 -26.5 -20.5t-35.5 -8.5q-23 0 -38.5 8.5t-25.5 20.5l-107 101q-13 -12 -21.5 -33.5t-14.5 -47.5t-7.5 -53t-1.5 -53q0 -18 4.5 -37.5t13 -36.5t22.5 -29.5t35 -14.5 q52 -6 82 -37q31 -33 31 -84q0 -26 -9.5 -48t-26 -38.5t-38.5 -25.5t-47 -9q-39 1 -80 10.5t-80 28t-74.5 44.5t-63.5 62.5t-46 83.5q-16 46 -22 102z" />
<glyph unicode="&#xe47;" d="M-1020 1676q0 76 27.5 131.5t74.5 91.5t106.5 53.5t124.5 17.5h524q20 0 37 -7t29.5 -21.5t18.5 -32t6 -37.5t-6 -39t-18.5 -32t-29.5 -20.5t-37 -7.5h-504q-40 0 -62.5 -11t-34 -26t-14 -31.5t-2.5 -28.5q0 -8 1 -21t7.5 -26t18 -23t30.5 -10q22 0 37.5 12.5t21.5 35.5 q9 35 35.5 51t61 16t62 -16t36.5 -51q5 -21 18 -34.5t32 -13.5q37 0 46 40q4 20 14.5 34.5t26 24t34.5 13t37 0.5q23 -3 42.5 -11.5t34 -24t21.5 -37.5t3 -51q-6 -52 -26.5 -86.5t-51 -57.5t-69.5 -32.5t-79 -9.5q-29 0 -56 8t-49 20.5t-40.5 29t-31.5 33.5 q-14 -19 -35 -35.5t-45.5 -28.5t-52 -19.5t-56.5 -7.5q-52 0 -90.5 13t-69 35.5t-50.5 51t-33 59t-19 61.5q-6 32 -6 58z" />
<glyph unicode="&#xe48;" d="M-392 2033v164q0 29 11 53.5t30.5 42t44.5 27.5t54 10t54 -10t44 -27.5t30.5 -42t11.5 -53.5v-164q0 -29 -11.5 -53t-30.5 -43t-44 -28.5t-54 -9.5t-54 9.5t-44.5 28.5t-30.5 42q-11 25 -11 54z" />
<glyph unicode="&#xe49;" d="M-732 2206q0 20 6 37.5t18 31t29 21.5t37 8h175q21 0 36.5 -8t28 -21.5t19 -31t6.5 -37.5v-83q41 2 75 13.5t60.5 27.5t44.5 37.5t30 46.5q10 23 28 38t38 23.5t43 7.5t46 -10q22 -10 38 -28t24 -39.5t7 -44.5q1 -23 -11 -47q-23 -48 -64.5 -91.5t-99.5 -75t-132.5 -49.5 t-165.5 -18h-102q-21 0 -38 8t-28.5 21t-17.5 30t-6 37v98h-34q-20 0 -37 8t-29 21.5t-18 31t-6 37.5z" />
<glyph unicode="&#xe4a;" d="M-740 1990q0 69 18 119.5t47.5 84.5t67 50.5t77.5 16.5t74 -20q36 -21 61 -52q26 31 61.5 51.5t80.5 20.5q25 0 51 -8.5t48.5 -24.5t39 -37.5t25.5 -50.5q13 17 24.5 42.5t18.5 55.5q6 20 19.5 36t31.5 26t38 13t42 -2q23 -6 39.5 -18t25 -29.5t10 -37.5t-3.5 -42 q-15 -48 -38.5 -93.5t-54.5 -83t-68.5 -63.5t-78.5 -32h-80q-28 0 -46 18q-18 17 -20 44q-2 19 -5.5 36.5t-9.5 31t-16 21.5t-24 8q-23 0 -31.5 -14.5t-11.5 -39.5q-3 -30 -20.5 -45.5t-43.5 -15.5q-27 0 -46 15q-20 16 -20 46q0 23 -11 38.5t-34 15.5q-25 0 -37 -23 t-13 -58q-1 -46 -28 -69t-67 -23q-22 0 -38.5 7t-28.5 19.5t-18.5 29t-6.5 36.5z" />
<glyph unicode="&#xe4b;" d="M-585 2172q0 21 7.5 40.5t20.5 34t30 22.5t40 8h98v43q0 29 10 52.5t29 40t43.5 26t53.5 9.5q28 0 52.5 -9.5t42.5 -26t29 -41t11 -51.5v-43h98q21 0 39 -8t31 -22.5t20.5 -34t7.5 -40.5q0 -22 -7.5 -41.5t-20.5 -33t-31 -21.5t-39 -8h-98v-43q0 -29 -11 -53t-29 -40.5 t-43 -26.5q-24 -10 -52 -10q-29 0 -53.5 10t-43.5 26.5t-29 40.5t-10 53v43h-98q-21 0 -39 8t-31 21.5t-20.5 33.5t-7.5 41z" />
<glyph unicode="&#xe4c;" d="M-544 1916q3 28 14 54q23 47 56 87t79.5 70t105.5 49t131 24q49 3 83.5 -18.5t41.5 -66.5q4 -21 0 -42.5t-15.5 -39t-29.5 -29.5q-17 -11 -40 -14q-36 -3 -62.5 -14.5t-45.5 -27.5t-30.5 -37.5t-18.5 -44.5q-9 -29 -27 -47.5t-42.5 -28t-53 -10t-56.5 7.5q-28 11 -49 30 t-31 44.5t-10 53.5z" />
<glyph unicode="&#xe4d;" d="M-521 1601q0 54 19.5 100t53 79.5t79.5 54t98 20.5t97.5 -20.5t80 -54t55.5 -79.5t21 -100q0 -52 -21 -98t-55.5 -79t-80.5 -53q-45 -20 -97 -20t-98 20t-79.5 53t-53 79t-19.5 98zM-363 1601q0 -17 7.5 -33.5t20 -29.5t30 -21t34.5 -8q19 0 35.5 8t29.5 21t21 29.5 t8 33.5q0 19 -8 36.5t-21 30t-30 20.5t-34.5 8t-35 -8t-30 -20.5t-20 -30t-7.5 -36.5z" />
<glyph unicode="&#xe4e;" d="M-624 1471q-2 25 3 51q18 79 70.5 134.5t141.5 77.5q10 36 32.5 67.5t57.5 57t82 41t102 21.5q51 4 85 -21t41 -71q3 -23 -1 -44t-17 -38.5t-31 -28t-41 -13.5q-29 -3 -46.5 -10t-28 -19.5t-14.5 -29t-4 -39.5q0 -22 -6 -35.5t-18 -20.5t-25 -9q-12 -3 -27 -3 q-49 0 -75 -22t-34 -63q-7 -26 -21 -44.5t-34 -30t-46 -15.5q-26 -2 -55 4t-48 21.5t-30 36t-13 45.5z" />
<glyph unicode="&#xe4f;" horiz-adv-x="1460" d="M95 602q0 88 22.5 169t64 151t100 128.5t129.5 98.5t152.5 63.5t170.5 23.5q87 0 167.5 -23.5t151 -63.5t128 -98.5t98 -128.5t63.5 -151t23 -169t-23 -169.5t-63.5 -152t-98 -128t-128 -98.5t-151 -63.5t-167.5 -22.5q-89 0 -170.5 22.5t-152.5 63.5t-129.5 98.5 t-100 128t-64 152t-22.5 169.5zM295 608q0 -61 15 -116.5t44 -104.5t69.5 -89t89.5 -69.5t105 -45.5t116 -16q59 0 114.5 16t103 45.5t88 69.5t68.5 89t44 104.5t16 116.5q0 89 -34.5 168t-93.5 138t-137.5 93t-168.5 34q-92 0 -172 -34t-139.5 -93t-93.5 -138t-34 -168z M395 608q0 67 27 127.5t73 106t108 73t131 27.5q68 0 128 -27.5t105 -73t72 -106t27 -127.5q0 -69 -27 -131t-72 -107.5t-105 -72t-128 -26.5q-69 0 -131 26.5t-108 72t-73 107.5t-27 131zM576 608q0 -33 11.5 -62.5t33 -51.5t50.5 -33.5t63 -11.5q32 0 59.5 11.5t47.5 33.5 t31.5 51.5t11.5 62.5q0 31 -11.5 58.5t-31.5 48.5t-47.5 33t-59.5 12q-34 0 -63 -12t-50.5 -33t-33 -48.5t-11.5 -58.5z" />
<glyph unicode="&#xe50;" horiz-adv-x="1388" d="M112 554q0 116 40.5 211.5t115.5 163t183 105.5q111 37 246 37t241.5 -37.5t182.5 -105t116 -163t40 -211.5q0 -109 -20.5 -194.5t-59 -150.5t-91.5 -109.5t-117.5 -72.5t-139 -40.5t-152.5 -12.5q-81 0 -155.5 12.5t-139.5 40.5t-118.5 73t-91.5 109.5t-59 150 t-21 194.5zM400 516q0 -64 22 -117t60.5 -92t93.5 -60.5t121 -21.5t119.5 21.5t91.5 60.5t59 92t21 117q0 82 -24 140t-63.5 94t-92.5 53.5t-111 17.5t-112.5 -17.5t-95 -53.5t-65 -93.5t-24.5 -140.5z" />
<glyph unicode="&#xe51;" horiz-adv-x="1370" d="M62.5 184q-3.5 23 1.5 46t20 44q14 20 34 33t42.5 15.5t46 -1.5t44.5 -19q38 -28 83.5 -45.5t91.5 -27t93.5 -11.5t91.5 -2q83 0 148 22.5t109 66t67.5 106.5t23.5 143q0 61 -18 112t-53.5 87t-89.5 56t-126 20q-56 0 -103.5 -10t-82 -28.5t-54.5 -47.5t-20 -68 q0 -27 10.5 -49.5t34 -39t60 -25t88.5 -8.5q31 3 54.5 -4.5t39 -21t24.5 -33t10 -42.5q3 -43 -15 -70.5t-48.5 -42t-65.5 -19.5q-37 -5 -68 -5q-87 0 -163 24.5t-134 69.5t-91 108q-33 62 -33 140q0 75 21.5 135t60.5 106.5t91.5 79.5t114 54.5t129.5 31.5t138 10 q122 0 230 -28.5t187 -91.5t125.5 -160.5t46.5 -236.5q0 -129 -43.5 -236.5t-127 -184t-203 -118t-269.5 -41.5q-56 0 -115.5 3t-124 16.5t-130.5 39.5q-65 26 -134 71q-20 14 -33 34t-16.5 43z" />
<glyph unicode="&#xe52;" horiz-adv-x="1589" d="M18 1056q-1 24 5 47q7 29 24.5 49t40.5 33t50 17q26 2 55 -4q53 -11 95.5 -37t73 -65.5t46.5 -93.5q17 -54 17 -121v-420q0 -46 28 -87t81.5 -72t129.5 -50t171 -19q89 0 155 16.5t109.5 44t66.5 63t23 71.5v301q0 28 -10 50q-13 22 -30 35l-176 -142l-162 139 q-13 -12 -22 -30.5t-9 -43.5v-43q0 -23 1 -41t4.5 -31t13.5 -19.5t28 -6.5q28 0 50 -8.5t36 -23.5t23 -36t9 -46q0 -24 -9 -45.5t-23 -39t-36 -27.5t-48 -10h-24q-75 0 -126 18t-85.5 47.5t-53.5 68.5t-27.5 79t-9 80.5t0.5 72.5q3 57 21.5 109t53 94t84.5 73q51 32 115 52 q8 3 20.5 4.5t27.5 0t32.5 -7.5t34.5 -20l80 -69l90 69q18 14 35.5 20.5t32.5 7.5t28 -0.5t22 -4.5q66 -17 120.5 -47.5t94.5 -72t62 -92t22 -108.5v-273q0 -84 -20 -151.5t-57.5 -121t-89.5 -92t-113.5 -64t-133 -37.5t-146.5 -12h-160q-149 0 -266 36t-197.5 100.5 t-122.5 157t-42 204.5v366q0 39 -8.5 64t-34.5 37q-23 10 -38 26.5t-23.5 37t-9.5 44.5z" />
<glyph unicode="&#xe53;" horiz-adv-x="1385" d="M112 484v73q0 115 27.5 202.5t78 149.5t125.5 99t168 55q7 1 18.5 2t25.5 -2t30.5 -10.5t33.5 -21.5l81 -69l86 69q18 14 34.5 21.5t30 10.5t24.5 1.5t18 -1.5q99 -15 172 -52.5t119.5 -92t69.5 -122t23 -142.5v-527q0 -31 -11.5 -57.5t-31.5 -45t-46.5 -28.5t-58.5 -10 q-30 0 -57 10t-47 28.5t-31.5 44.5t-11.5 58v543q0 26 -7 51t-20 44.5t-30.5 31.5t-37.5 14l-193 -157l-178 154q-19 -6 -38.5 -20.5t-35.5 -41.5t-26 -69q-10 -41 -10 -101v-89q0 -64 2 -110.5t15 -77.5t42.5 -46t87.5 -14q27 0 49.5 -8.5t38.5 -26t24.5 -39t8.5 -47.5 q0 -23 -8.5 -43t-23 -36t-33.5 -27.5t-42 -14.5q-100 -14 -172 -2t-122.5 44.5t-82.5 80.5t-49 106.5t-23 125t-6 132.5z" />
<glyph unicode="&#xe54;" horiz-adv-x="1385" d="M112 467v112q0 121 41 210t117 148t184 87.5t243 28.5h253q39 0 58.5 19.5t29.5 50.5q9 30 28.5 52.5t44.5 34t56 13t63 -10.5q29 -10 50.5 -30t33.5 -46.5t14.5 -57t-9.5 -58.5q-16 -47 -43.5 -88t-70.5 -71t-104 -47.5t-142 -17.5h-284q-60 0 -109.5 -12t-85 -36 t-55 -59t-19.5 -81v-133q0 -46 13 -86.5t42 -70.5t72 -47.5t103 -17.5q-23 29 -35.5 62t-12.5 74q0 16 2 39.5t11.5 51t27.5 55t48.5 50.5t77 40t112.5 23q24 3 46.5 -3t41 -19t31.5 -33t19 -46t0 -49t-20 -41t-34.5 -31t-46.5 -18q-20 -6 -27 -18.5t-7 -29.5q0 -23 8 -43 t22 -34t34.5 -22t44.5 -8h205q26 0 47.5 -10t37 -27t25 -40t9.5 -49t-9.5 -49t-25 -40.5t-37 -27.5t-47.5 -10h-565q-101 0 -177 20t-132.5 56t-93.5 82t-60.5 98t-33.5 105.5t-10 105.5z" />
<glyph unicode="&#xe55;" horiz-adv-x="1385" d="M112 467v112q0 92 24.5 165.5t70 129.5t111 93.5t149.5 57.5v16q0 48 18.5 91t52.5 74.5t78 51.5q46 19 95 19q52 0 96 -18t77 -49t52.5 -72t22.5 -85q35 3 52 21t27 49q9 30 30 52.5t46.5 34t56 13t59.5 -10t50.5 -31.5t33.5 -46t14.5 -56.5t-9.5 -58.5 q-16 -47 -43.5 -88t-70.5 -71t-104 -47.5t-142 -17.5h-284q-60 0 -109.5 -12t-85 -36t-55 -59t-19.5 -81v-133q0 -46 13 -86.5t42 -70.5t72 -47.5t103 -17.5q-23 29 -35.5 62t-12.5 74q0 16 2 39.5t11.5 51t27.5 55t48.5 50.5t77 40t112.5 23q24 3 46.5 -3t41 -19t31.5 -33 t19 -46t0 -49t-20 -41t-34.5 -31t-46.5 -18q-20 -6 -27 -18.5t-7 -29.5q0 -23 8 -43t22 -34t34.5 -22t44.5 -8h205q26 0 47.5 -10t37 -27t25 -40t9.5 -49t-9.5 -49t-25 -40.5t-37 -27.5t-47.5 -10h-565q-101 0 -177 20t-132.5 56t-93.5 82t-60.5 98t-33.5 105.5t-10 105.5z M631 1044q0 -14 6.5 -28.5t17 -25.5t25 -16.5t31.5 -5.5q18 0 32 5.5t24.5 16.5t17 24.5t6.5 29.5q0 17 -6.5 31t-17 25.5t-25.5 16.5q-13 6 -31 6q-17 0 -31.5 -5.5t-25 -17t-17 -25.5t-6.5 -31z" />
<glyph unicode="&#xe56;" horiz-adv-x="1409" d="M77 988.5q-5 26.5 0 52t20 48.5t38 37t49 19.5t52 0t49 -19.5t38 -39l63 -96q72 36 160 54t188 23q108 3 192.5 -15.5t147 -52.5t106 -82t70 -105.5t38 -122t9.5 -130.5v-73q-5 -68 -23 -132t-51.5 -121.5t-82 -103.5t-113 -79.5t-145.5 -50.5t-179 -14q-111 2 -202.5 31 t-156.5 78t-101 115t-36 144q0 79 27 137.5t76.5 96t120 55.5t157.5 18q24 0 45 -9.5t37.5 -25t26 -37.5t9.5 -46q0 -25 -8 -46.5t-23 -37t-34.5 -25t-44.5 -9.5q-29 0 -49 -6t-30 -16.5t-14 -24.5q-5 -12 -5 -30q0 -23 16 -43t43.5 -35t67.5 -24.5t89 -9.5q55 -1 107 14.5 t91.5 47.5t63 79.5t23.5 109.5v67q0 136 -62.5 198t-190.5 62q-86 0 -175 -17t-185 -61q-26 -15 -53.5 -18.5t-52 2.5t-45.5 20q-22 15 -36 38l-103 161q-14 23 -19 49.5z" />
<glyph unicode="&#xe57;" horiz-adv-x="1671" d="M112 484v76q0 206 89.5 329t259.5 168q8 3 24 4.5t33.5 0t36 -7.5t35.5 -22l77 -64l85 66q17 14 33 20t29 7.5t23 0t15 -3.5q100 -20 164 -63t101.5 -105.5t51 -143.5t13.5 -176v-86q-3 -46 -8 -102.5t-25 -113.5q29 11 52 37t39 60.5t23 75t7 80.5v363q0 66 16.5 120 t47 94t73 65.5t96.5 37.5q29 6 55 3t49 -16t40 -34q18 -19 26 -48q6 -23 3 -47t-13.5 -44.5t-28.5 -37.5t-41 -27q-26 -11 -34 -36.5t-8 -63.5v-310q0 -111 -39.5 -209t-114 -172.5t-181.5 -119.5t-243 -48q-27 0 -53 10.5t-45.5 29t-31 44.5t-11.5 52q0 37 20 69 q22 34 33 71.5t15 75t4 72v66.5v107q0 46 -4 80.5t-13.5 60.5t-22 44.5t-26.5 28.5l-177 -141l-171 147q-15 -12 -30.5 -30.5t-27.5 -46.5t-19 -65.5t-7 -83.5v-95q0 -64 2 -110.5t15 -77.5t42.5 -46t87.5 -14q27 0 49.5 -8.5t38.5 -26t24.5 -39t8.5 -47.5q0 -23 -8.5 -43 t-23 -36t-33.5 -27.5t-42 -14.5q-100 -14 -172 -2t-122.5 44.5t-82.5 80.5t-49 106.5t-23 125t-6 132.5z" />
<glyph unicode="&#xe58;" horiz-adv-x="1356" d="M112 397v179q0 112 34.5 200t102.5 150t168.5 94.5t233.5 32.5h258q37 0 58 20t29 55q9 30 28.5 51.5t44.5 33.5t56 13t64 -9q29 -10 50.5 -30.5t33 -47t14.5 -56.5q2 -32 -8 -61q-16 -47 -44 -89.5t-71.5 -74t-104 -49.5t-142.5 -18h-286q-61 0 -102.5 -16t-69 -41.5 t-40.5 -58.5t-13 -67v-211q0 -25 8.5 -48.5t23 -42.5t33.5 -33t36 -20l180 150l189 -152q18 2 34.5 9.5t28 22.5t19 39t7.5 58q0 15 -1.5 30t-7.5 27t-16 21t-26 9q-28 0 -49 9t-34 25t-20 37t-7 42q0 26 9 50t25.5 39.5t40.5 26.5q25 10 54 10q68 0 117.5 -14.5t85.5 -37.5 t60 -55t37.5 -68t18 -74.5t4.5 -76.5q0 -75 -18 -137t-55 -110.5t-91.5 -82.5t-128.5 -50q-17 -3 -38 -8t-45.5 -5.5t-49 5t-47.5 24.5l-93 76l-85 -75q-17 -17 -39 -23t-43.5 -6t-41.5 4.5t-33 7.5q-84 20 -146.5 59.5t-104 92t-63.5 115.5q-22 61 -22 130z" />
<glyph unicode="&#xe59;" horiz-adv-x="1401" d="M112 484v70q0 127 21 223t69.5 160.5t127.5 97.5t197 33q20 0 46 -0.5t50.5 -2.5t49 -7t44.5 -14q26 -12 47.5 -28.5t40.5 -36.5l53 59q9 9 25 19.5t40 10.5h88q37 0 56 17.5t25 53.5q5 29 22.5 49t41 31t52.5 11t59 -10q26 -9 45.5 -27t30.5 -41t12 -50.5t-7 -56.5 q-13 -44 -37 -82.5t-64 -66.5t-100.5 -43t-147.5 -15q-14 0 -20 -6l-44 -44l295 -601q13 -26 14.5 -54t-8 -53t-27.5 -46t-44 -34q-26 -12 -54 -13t-52.5 7.5t-46 27t-33.5 44.5l-307 624q-31 57 -66 90q-36 34 -82 34q-26 0 -47 -12.5t-36.5 -40.5t-25 -76.5t-9.5 -121.5 v-76q0 -64 4.5 -111.5t20 -78.5t47.5 -44.5t89 -6.5q26 3 48.5 -6.5t39 -26.5t25 -40t8.5 -48q0 -23 -8.5 -44.5t-23 -39t-33 -29.5t-41.5 -15q-101 -14 -174.5 -2t-125.5 44.5t-85 80.5t-51.5 106.5t-26 125t-7.5 132.5z" />
<glyph unicode="&#xe5a;" horiz-adv-x="1753" d="M115 847q0 69 18 122t49 93.5t73 68t88.5 44.5t97 26t99.5 9h115q26 0 47 -10.5t37 -27.5t24.5 -38.5t8.5 -47.5t-8.5 -49t-24.5 -39.5t-37 -26t-47 -9.5h-115q-60 0 -89 -32q-29 -31 -29 -86q0 -26 9.5 -53.5t32.5 -49t60.5 -34.5t94.5 -13q133 0 203 45q71 44 71 145 v197q0 32 12 57.5t32.5 44t47 30t58.5 11.5q31 0 58 -11.5t47 -30t32 -44.5t12 -57v-954q0 -32 -12 -57t-32 -44.5t-47 -29.5t-58 -10q-32 0 -58.5 10t-47 29.5t-32.5 45.5q-12 24 -12 56v371q-55 -29 -122.5 -45.5t-142.5 -16.5q-127 0 -223.5 29.5t-160.5 83t-96.5 130 t-32.5 168.5zM1341 127v954q0 32 12 57.5t32 44t47 29.5q25 12 57 12t59 -11.5t47.5 -30t32 -44.5t11.5 -57v-954q0 -32 -11.5 -57t-32 -44.5t-47.5 -29.5t-59 -10t-58 10t-46 29.5t-32 45.5q-12 24 -12 56z" />
<glyph unicode="&#xe5b;" horiz-adv-x="2806" d="M118 625q0 72 16 145.5t46 142.5t76 130t106.5 106.5t135.5 71.5t166 26q106 0 188.5 -33t139 -89.5t90 -132.5t41.5 -160q3 -28 -4 -54t-22.5 -48t-39 -36t-50.5 -17q-29 -5 -55 1.5t-47 22.5t-35.5 39t-18.5 52q-14 84 -55 125.5t-112 47.5q-69 -2 -120 -30.5t-85 -77 t-50.5 -111.5t-16.5 -135q0 -71 26 -136.5t73.5 -114.5t112.5 -79q64 -30 145 -30q75 0 138.5 24.5t113.5 66.5t88.5 102t65 130.5t41 151t17.5 164.5q0 29 11.5 53.5t30 43t44.5 30t55 10.5q31 0 58 -13q27 -12 45 -35q49 -56 91 -110t71 -100q29 42 62 93q36 51 67 100 q9 14 22.5 20.5t29 6.5t28 -6.5t23.5 -20.5q38 -55 73 -105.5t55 -87.5q20 29 40 57q20 26 37 50h461q29 0 55 -11t46 -30.5t31 -45.5t11 -56q0 -29 -11 -55.5t-31 -46t-46 -30.5t-55 -11h-351q-14 -20 -30 -43.5t-35 -53t-41 -67t-47 -85.5q-5 -13 -17.5 -20t-24.5 -6.5 t-25 8.5t-19 23q-36 69 -68.5 125t-58.5 102q-27 -46 -60 -111q-32 -65 -67 -154q-10 -23 -25 -36t-31.5 -13t-32.5 12q-14 13 -26 39q-31 77 -60 135t-52 98q-17 -87 -53 -162.5t-86.5 -140t-114 -116.5t-135.5 -88t-152 -55q-81 -18 -165 -18q-103 0 -190.5 25.5 t-158.5 73t-126 111t-92 137t-56 154t-19 161.5z" />
<glyph unicode="&#x2000;" horiz-adv-x="1224" />
<glyph unicode="&#x2001;" horiz-adv-x="2448" />
<glyph unicode="&#x2002;" horiz-adv-x="1224" />
<glyph unicode="&#x2003;" horiz-adv-x="2448" />
<glyph unicode="&#x2004;" horiz-adv-x="816" />
<glyph unicode="&#x2005;" horiz-adv-x="612" />
<glyph unicode="&#x2006;" horiz-adv-x="408" />
<glyph unicode="&#x2007;" horiz-adv-x="408" />
<glyph unicode="&#x2008;" horiz-adv-x="306" />
<glyph unicode="&#x2009;" horiz-adv-x="489" />
<glyph unicode="&#x200a;" horiz-adv-x="136" />
<glyph unicode="&#x200b;" />
<glyph unicode="&#x2010;" horiz-adv-x="963" d="M58 570.5q0 31.5 10.5 54t28.5 36t42.5 19t52.5 5.5h580q27 0 51 -5.5t42.5 -19t28.5 -36t10 -54t-10 -53.5t-28.5 -36t-43 -20t-50.5 -6h-580q-29 0 -53 6t-42 20t-28.5 36t-10.5 53.5z" />
<glyph unicode="&#x2011;" horiz-adv-x="963" d="M58 570.5q0 31.5 10.5 54t28.5 36t42.5 19t52.5 5.5h580q27 0 51 -5.5t42.5 -19t28.5 -36t10 -54t-10 -53.5t-28.5 -36t-43 -20t-50.5 -6h-580q-29 0 -53 6t-42 20t-28.5 36t-10.5 53.5z" />
<glyph unicode="&#x2012;" horiz-adv-x="963" d="M58 570.5q0 31.5 10.5 54t28.5 36t42.5 19t52.5 5.5h580q27 0 51 -5.5t42.5 -19t28.5 -36t10 -54t-10 -53.5t-28.5 -36t-43 -20t-50.5 -6h-580q-29 0 -53 6t-42 20t-28.5 36t-10.5 53.5z" />
<glyph unicode="&#x2013;" horiz-adv-x="1247" d="M0 570q0 32 10 53.5t27.5 36t40.5 21t49 6.5h993q26 0 49 -6.5t41 -21t28 -36t10 -53.5q0 -31 -10 -53t-28 -36t-41 -20t-49 -6h-993q-26 0 -49 6t-40.5 20t-27.5 36t-10 53z" />
<glyph unicode="&#x2014;" horiz-adv-x="2299" d="M0 570q0 32 10 53.5t27.5 36t40.5 21t49 6.5h2046q26 0 49 -6.5t41 -21t28 -36t10 -53.5q0 -31 -10 -53t-28 -36t-41 -20t-49 -6h-2046q-26 0 -49 6t-40.5 20t-27.5 36t-10 53z" />
<glyph unicode="&#x2018;" horiz-adv-x="613" d="M132 1120q0 85 26 152t74 122q14 17 35.5 36t46 34.5t50 25.5t48.5 10q32 0 49 -18t17 -41q0 -20 -13.5 -34.5t-34.5 -28t-47 -29.5t-48.5 -39t-40.5 -56t-22 -82q13 9 29 13t37 4q35 0 61 -12.5t44 -33.5t27.5 -48.5t9.5 -56.5q0 -33 -12.5 -61.5t-35 -51t-52 -35 t-60.5 -12.5q-48 0 -83 19t-58 52t-35 77.5t-12 93.5z" />
<glyph unicode="&#x2019;" horiz-adv-x="613" d="M132 1339q0 33 13 62.5t35 51.5t50.5 34.5t63.5 12.5q47 0 82.5 -19t58.5 -52.5t34 -77t11 -94.5q0 -85 -26 -152.5t-74 -120.5q-14 -18 -35.5 -36.5t-46 -33.5t-50.5 -26q-23 -10 -46 -10q-32 0 -50 17.5t-18 40.5q0 20 13.5 34.5t35 29t46 30t48 39t40.5 56.5t23 82 q-13 -9 -29.5 -13.5t-36.5 -4.5q-35 0 -61 12.5t-44 33.5t-27.5 48t-9.5 56z" />
<glyph unicode="&#x201c;" horiz-adv-x="1035" d="M132 1120q0 85 26 152t74 122q14 17 35.5 36t46 34.5t50 25.5t48.5 10q32 0 49 -18t17 -41q0 -20 -13.5 -34.5t-34.5 -28t-47 -29.5t-48.5 -39t-40.5 -56t-22 -82q13 9 29 13t37 4q35 0 61 -12.5t44 -33.5t27.5 -48.5t9.5 -56.5q0 -33 -12.5 -61.5t-35 -51t-52 -35 t-60.5 -12.5q-48 0 -83 19t-58 52t-35 77.5t-12 93.5zM559 1120q0 85 26 152t72 122q14 17 35.5 36t46 34.5t50 25.5t48.5 10q31 0 49 -18t18 -41q0 -20 -14 -34.5t-35 -28t-46.5 -29.5t-48.5 -39t-40 -56t-23 -82q13 9 29.5 13t36.5 4q35 0 61 -12.5t44.5 -33.5t27 -48.5 t8.5 -56.5q0 -33 -12 -61.5t-34.5 -51t-51 -35t-62.5 -12.5q-47 0 -82.5 19t-58.5 52t-33.5 77.5t-10.5 93.5z" />
<glyph unicode="&#x201d;" horiz-adv-x="1035" d="M132 1339q0 33 13 62.5t35 51.5t50.5 34.5t63.5 12.5q47 0 82.5 -19t58.5 -52.5t34 -77t11 -94.5q0 -85 -26 -152.5t-74 -120.5q-14 -18 -35.5 -36.5t-46 -33.5t-50.5 -26q-23 -10 -46 -10q-32 0 -50 17.5t-18 40.5q0 20 13.5 34.5t35 29t46 30t48 39t40.5 56.5t23 82 q-13 -9 -29.5 -13.5t-36.5 -4.5q-35 0 -61 12.5t-44 33.5t-27.5 48t-9.5 56zM556 1339q0 33 13 62.5t34.5 51.5t50.5 34.5t63 12.5q48 0 83 -19t58 -52.5t34 -77t11 -94.5q0 -85 -26 -152.5t-73 -120.5q-15 -18 -36.5 -36.5t-46 -33.5t-49.5 -26q-24 -10 -47 -10 q-32 0 -50 17.5t-18 40.5q0 20 14 34.5t35.5 29t46 30t47.5 39t40 56.5t23 82q-13 -9 -29.5 -13.5t-36.5 -4.5q-35 0 -60.5 12.5t-43.5 33.5t-27.5 48t-9.5 56z" />
<glyph unicode="&#x2022;" horiz-adv-x="842" d="M53 619q0 46 14 91t37 83.5t56.5 71t74.5 56.5t87.5 37t96.5 13q76 0 144 -29t118.5 -78t80 -112.5t29.5 -132.5q0 -75 -29.5 -139.5t-80 -112t-118.5 -76.5t-144 -29q-50 0 -96.5 13t-87.5 36t-74.5 56t-56.5 72t-37 85t-14 95z" />
<glyph unicode="&#x202f;" horiz-adv-x="489" />
<glyph unicode="&#x205f;" horiz-adv-x="612" />
<glyph unicode="&#x20ac;" horiz-adv-x="1571" d="M62 858q0 38 16.5 54.5t41 23t52.5 5t53 -1.5h8q26 115 82.5 213t141 170t198.5 112.5t257 40.5q93 0 172.5 -17.5t144 -46.5t113.5 -67.5t83 -80.5t51 -83.5t19 -79.5q3 -69 -37.5 -108.5t-108.5 -39.5q-36 0 -62 10.5t-45 29.5t-36 42t-35.5 47.5t-40 47.5t-52 41.5 t-70.5 29.5t-96 11q-58 0 -110.5 -18t-98.5 -52.5t-82 -85t-59 -116.5h302q22 0 41 -1.5t34.5 -9.5t24.5 -23t9 -42q0 -28 -8.5 -44.5t-23.5 -25t-35 -11.5q-19 -3 -42 -3h-334q-3 -29 -3 -58v-27.5t3 -26.5h334q22 0 41 -2.5t35 -9.5t24.5 -23t8.5 -42q0 -27 -8.5 -43.5 t-23 -25t-34.5 -11.5t-43 -3h-307q19 -61 50 -111t76.5 -86t104.5 -56.5t135 -20.5q65 0 110.5 20.5t79 49t59.5 64.5t50.5 66.5t51.5 51.5q25 19 62 22q32 3 59.5 -6t47.5 -26t33 -40t16 -52q6 -52 -11.5 -102.5t-55 -96.5t-90.5 -85.5t-118 -68.5t-140 -45.5t-154 -16.5 q-143 0 -259.5 34.5t-205 102.5t-147 168.5t-83.5 233.5h-58q-20 0 -39 2t-34 10t-24.5 24t-9.5 42q0 27 14.5 43.5t36 25t47.5 11.5q26 2 49 2q0 14 -1.5 27t-1.5 27q0 15 1 29q2 15 2 29h-43q-20 0 -39 2t-33 11t-23.5 24.5t-9.5 41.5z" />
<glyph unicode="&#x2122;" horiz-adv-x="1981" d="M183 1362q0 13 4.5 27t13.5 25.5t25 18.5t39 7h418q23 0 38.5 -7t24.5 -18.5t13 -24.5t4 -28q0 -11 -4 -24t-13 -24.5t-24.5 -19t-38.5 -7.5h-110v-478q0 -34 -11.5 -54.5t-27.5 -33.5t-33 -17t-27 -4q-12 0 -29 4t-33.5 17t-28.5 34q-11 20 -11 54v478h-107 q-23 0 -39 7.5t-25 19t-13.5 24.5t-4.5 24zM851 809v488q0 47 13.5 76.5t35.5 46.5t46.5 23t44.5 6q66 0 110 -30.5t71 -99.5l110 -282l109 282q26 68 70.5 99t110.5 31q22 0 46 -6t45.5 -23t35 -47.5t13.5 -75.5v-488q0 -34 -11.5 -54.5t-28 -33.5t-34 -17t-28.5 -4 q-12 0 -28.5 4t-33 17t-27.5 34q-12 20 -12 54v343h-3l-124 -363q-17 -45 -40.5 -67t-59.5 -22q-70 0 -101 89l-124 363h-3v-343q0 -34 -11.5 -54.5t-27.5 -33.5t-33 -17t-29 -4q-11 0 -28.5 4t-34 17t-27.5 34q-12 20 -12 54z" />
<glyph unicode="&#x25cc;" horiz-adv-x="1344" d="M312 582l116 54q-5 -25 -6.5 -54t6.5 -58zM409 328l49 114q16 -24 34 -44.5t41 -34.5zM431 835l118 -42q-32 -15 -54 -33q-20 -17 -34 -40zM613 824l59 115l54 -112q-29 5 -59.5 3.5t-53.5 -6.5zM619 328q26 -7 49 -7q23 2 55 10l-51 -112zM805 796l130 39l-51 -118 q-16 25 -36.5 44t-42.5 35zM808 360q24 14 43 33t33 40l33 -108zM920 527q9 25 9.5 51.5t-6.5 55.5l109 -55z" />
<glyph unicode="&#x25fc;" horiz-adv-x="1065" d="M0 0v1066h1066v-1066h-1066z" />
<glyph unicode="&#xf700;" horiz-adv-x="1185" d="M106.5 930q2.5 29 18.5 56q35 58 83 104t108.5 78.5t132.5 50t156 17.5q46 0 93 -7q48 -5 95 -19q19 7 33.5 23.5t24.5 36.5q14 29 38 47.5t53 26t59 4t59 -19.5q29 -15 46 -39.5t25.5 -53t5.5 -59.5q-5 -30 -20 -56q-17 -26 -38.5 -46.5t-48.5 -35.5q28 -46 45 -105.5 t17 -136.5q0 -60 -17.5 -131.5t-46.5 -155t-69 -177t-86 -200.5q-15 -31 -38 -58.5t-51.5 -47t-63.5 -30t-72 -10.5q-39 0 -74 11.5t-65.5 33t-52 50t-36.5 63.5l-108 301h-44q-26 0 -47.5 9.5t-37.5 26.5t-24.5 39.5t-8.5 48.5t8.5 48t24.5 39.5t37.5 27.5t47.5 10h193 q26 0 44 -10t31.5 -27.5t23 -39.5t17.5 -48l74 -223q11 33 27 72.5t30.5 80.5t27.5 82t23 77t15.5 66.5t5.5 47.5q0 95 -48.5 149.5t-149.5 54.5q-66 0 -113 -31.5t-74 -93.5q-13 -29 -37 -47t-53.5 -25t-60.5 -4t-57 16q-29 14 -47.5 36.5t-27 48t-6 54.5z" />
<glyph unicode="&#xf701;" d="M-1354 1495q0 23 8 44.5t22 37.5t34 24.5t43 8.5h654q23 0 43 -8.5t34.5 -24.5t22.5 -37.5t8 -44.5t-8 -45t-22.5 -37t-33.5 -24q-21 -9 -44 -9h-654q-23 0 -43 9t-34 24t-22 37t-8 45z" />
<glyph unicode="&#xf702;" d="M-1354 1495q0 23 8 44.5t22 37.5t34 24.5t43 8.5h454v63q0 29 11.5 55t30.5 44t45 28t55 10t55.5 -10t46 -28t31.5 -43q11 -27 11 -56v-157q0 -28 -11.5 -53.5t-31 -44t-45.5 -28.5q-27 -10 -56 -10h-596q-23 0 -43 9t-34 24t-22 37t-8 45z" />
<glyph unicode="&#xf703;" d="M-1354 1495q0 23 8 44.5t22 37.5t34 24.5t43 8.5h315v9q0 46 18 87.5t48.5 72t70.5 47.5t86.5 17t88 -18t72 -49t47.5 -72.5t17 -87.5q0 -52 -17 -94.5t-47.5 -74t-72 -49.5t-87.5 -18h-539q-23 0 -43 9t-34 24t-22 37t-8 45zM-788 1619q0 -16 6.5 -30t17.5 -24t25 -16 q13 -7 31 -7q17 0 31.5 6.5t25 16.5t17 24.5t6.5 29.5q0 17 -6.5 31.5t-17 25t-25 17t-31.5 6.5q-18 0 -31.5 -6.5t-24.5 -17t-17.5 -25t-6.5 -31.5z" />
<glyph unicode="&#xf704;" d="M-1354 1495q0 23 8 44.5t22 37.5t34 24.5t43 8.5h184v92q0 25 9 44t24.5 33.5t36 22.5t45.5 8t46 -8t36.5 -22.5t24.5 -34.5t9 -43v-92h95v92q0 25 8.5 44t24.5 33.5t36 22.5t46 8q24 0 45 -8t37 -22.5t24.5 -34.5t8.5 -43v-186q0 -28 -11.5 -53.5t-31 -44t-45.5 -28.5 q-27 -10 -56 -10h-596q-23 0 -43 9t-34 24t-22 37t-8 45z" />
<glyph unicode="&#xf705;" d="M-850 1498v184q0 30 11.5 55.5t32 44t46.5 28.5t56 10q29 0 55.5 -10t46 -28.5t31 -43t11.5 -56.5v-184q0 -31 -11.5 -56t-31 -43t-45.5 -28t-56 -10q-29 0 -55.5 10t-47 28t-32 44t-11.5 55z" />
<glyph unicode="&#xf706;" d="M-1192 1676q0 20 6.5 37.5t17 31t26.5 21.5t36 8h164q20 0 34.5 -8t26 -21.5t17.5 -31t6 -37.5v-83q36 3 67.5 13t57 27t43.5 38.5t28 46.5q8 23 25.5 38t37.5 23.5t42 7.5q24 -1 44 -10q21 -10 35 -28t21.5 -39.5t7.5 -44.5t-12 -46q-23 -49 -60.5 -92.5t-92 -75 t-124.5 -49.5t-156 -18h-97q-20 0 -35 8t-26 21t-16.5 30t-5.5 37v98h-32q-20 0 -36 8t-26.5 21.5t-17 31t-6.5 37.5z" />
<glyph unicode="&#xf707;" d="M-1261 1462q0 69 17 120t43.5 84t60.5 50.5t71.5 17.5t69 -20.5t54.5 -51.5q25 31 57.5 51.5t72.5 20.5q24 0 48 -9t44 -24.5t36 -38t25 -51.5q11 18 22 43.5t16 56.5q6 20 18.5 36t28 26t35.5 13q18 2 38 -2q22 -6 37 -18t23 -29.5t9 -38.5q3 -22 -3 -42 q-14 -49 -36.5 -93.5t-50.5 -82t-62.5 -63.5t-70.5 -35h-75q-26 0 -42.5 18t-19.5 46q-1 18 -3.5 36t-8 31t-13.5 22t-21 9q-20 0 -30 -15.5t-12 -39.5q-1 -27 -17 -45t-42 -18q-24 0 -40.5 18.5t-18.5 44.5q0 23 -10 39t-30 16q-27 0 -36.5 -23t-11.5 -59q-1 -46 -26 -70 t-60 -24q-20 0 -36 7t-27.5 20t-17 30.5t-5.5 36.5z" />
<glyph unicode="&#xf708;" d="M-1106 1633q0 20 6.5 38t19 31.5t29.5 21t39 7.5h93v43q0 26 10 49t27.5 39t40.5 24.5t50.5 8.5t51 -8.5t41.5 -24.5t28 -39t10 -49v-43h93q20 0 37 -7.5t30 -21.5t20.5 -32t7.5 -38.5t-7.5 -39t-20.5 -32t-30 -21.5t-37 -8h-93v-41q0 -27 -10 -49.5t-28.5 -39t-41.5 -25 t-50.5 -8.5t-50.5 8.5t-40.5 25t-27.5 39t-10 49.5v41h-93q-20 0 -38 8t-30.5 22t-18.5 32q-7 20 -7 40z" />
<glyph unicode="&#xf709;" d="M-976 1503q0 28 13 54q23 47 56.5 87.5t80 70t104.5 49t130 24.5q49 3 84 -20q33 -23 41 -66q5 -22 0.5 -43.5t-16 -38.5t-29.5 -29.5t-40 -13.5q-36 -3 -61.5 -14.5t-44.5 -28t-31 -36.5q-14 -21 -19 -45q-9 -29 -27 -47t-42.5 -28t-52.5 -11q-28 1 -57 10 q-29 10 -49 29.5t-30 44t-10 52.5z" />
<glyph unicode="&#xf70a;" d="M-400 1498v207q0 30 11.5 55.5t31 43.5t46 28t55.5 10q28 0 55 -10t46.5 -28t31 -44t11.5 -55v-207q0 -31 -11.5 -56t-31 -43t-46.5 -28t-55 -10q-29 0 -55.5 10t-46 28t-31 44t-11.5 55z" />
<glyph unicode="&#xf70b;" d="M-863 1676q0 20 6.5 37.5t18 31t29 21.5t37.5 8h174q21 0 37.5 -8t28 -21.5t18.5 -31t7 -37.5v-83q39 3 71.5 13t59 27t46 38.5t30.5 46.5q11 23 28 38t38.5 23.5t45.5 7.5t47 -10q21 -10 36.5 -28t23.5 -39.5t7 -44.5t-11 -46q-23 -49 -64 -92.5t-98.5 -75t-132.5 -49.5 t-167 -18h-101q-20 0 -37.5 8t-29 21t-17 30t-5.5 37v98h-35q-20 0 -37.5 8t-29 21.5t-18 31t-6.5 37.5z" />
<glyph unicode="&#xf70c;" d="M-1047 1462q0 69 20 120t52.5 84t74.5 49t85 16t82 -20t68 -51q29 32 68 51q41 20 90 20q29 0 58 -8.5t53 -24t43 -37.5t28 -51q14 17 27 43t22 56q5 20 19.5 37t34.5 26t43 12q23 4 47 -1q25 -6 44 -19t28.5 -30.5t11.5 -37.5t-5 -40q-16 -49 -43.5 -94.5t-62 -83 t-75 -62.5t-84.5 -34h-91q-30 0 -51 18t-22 46q-2 18 -5 35.5t-9.5 31t-15.5 21.5t-25 8q-20 0 -35.5 -13t-15.5 -47q0 -28 -21.5 -45t-52.5 -17t-51.5 17t-20.5 45q-2 33 -15.5 46.5t-35.5 13.5q-29 0 -41 -23t-14 -57q0 -23 -8.5 -41t-22 -29.5t-32.5 -17.5t-42 -6 q-24 0 -43 7t-32.5 20t-20 30.5t-6.5 36.5z" />
<glyph unicode="&#xf70d;" d="M-592 1642q0 21 7.5 40.5t20 33t30.5 21.5t40 8h98v43q0 29 11 53t29.5 40.5t43 26.5t53.5 10t52.5 -10t41.5 -26.5t29.5 -40.5t11.5 -53v-43h98q22 0 40 -8t31 -21.5t20 -33.5t7 -40q0 -22 -7 -41.5t-20 -34t-32 -22.5t-39 -8h-98v-43q0 -29 -11.5 -52.5t-29.5 -40 t-43 -26t-53 -9.5t-52.5 9.5t-42.5 26t-29 41t-11 51.5v43h-98q-22 0 -40 8t-30.5 22.5t-20 34t-7.5 41.5z" />
<glyph unicode="&#xf70e;" d="M-544 1503q3 28 14 54q23 47 56 87.5t79.5 70t105.5 49t131 24.5q49 3 83.5 -20t41.5 -66q4 -22 0 -43.5t-15.5 -38.5t-29.5 -30q-17 -12 -40 -13q-36 -3 -62.5 -14.5t-45.5 -28t-30.5 -37t-18.5 -44.5q-9 -29 -27 -47t-42.5 -28t-52.5 -11q-29 1 -57 10q-28 10 -49 29.5 t-31 44t-10 52.5z" />
<glyph unicode="&#xf70f;" horiz-adv-x="1919" d="M56.5 834q-3.5 16 0.5 34q3 16 15 42q29 63 73 122.5t108.5 104.5t151.5 72t200 27q105 0 186.5 -20.5t142 -55t102 -83.5t67 -105t36 -119.5t10.5 -129.5v-311q0 -46 15 -80t40.5 -57.5t57.5 -35.5q34 -11 68.5 -11t65.5 10t55 33t38 57.5t14 83.5v667q0 31 12.5 58 t33.5 45.5t48 30t59 11.5t59 -11.5t48 -30t33.5 -46t12.5 -57.5v-684q0 -72 -19 -132.5t-52 -107.5t-77.5 -82.5t-98 -57.5t-112.5 -33t-119 -11q-64 0 -124.5 11.5t-113.5 36t-98.5 60t-78 82t-51 105.5t-18.5 129v348q0 40 -12.5 81t-40.5 73.5t-74 53.5t-115 22 q-49 0 -88.5 -10t-70.5 -26.5t-51.5 -37.5t-31.5 -41q37 -36 58 -89q21 -55 21 -121v-415h29q23 0 44 -9t35 -25t22 -37t8 -45q0 -23 -8 -45t-22 -37.5t-34.5 -25t-44.5 -9.5h-220q-23 0 -43.5 9.5t-35 25t-23 36.5t-8.5 46v534q0 26 -7 54q-7 29 -30 55q-20 25 -32 41.5 t-15.5 32.5z" />
<glyph unicode="&#xf710;" d="M-922 1506v104q0 27 10.5 50t28.5 39.5t42.5 26t51.5 9.5t51 -9.5t42.5 -26t28.5 -39.5t10 -50h684q23 0 43.5 -8.5t35 -24.5t22 -37.5t7.5 -44.5t-7.5 -45t-22 -37t-34 -24t-44.5 -9h-816q-27 0 -51.5 10t-42.5 25.5t-28.5 38.5t-10.5 52z" />
<glyph unicode="&#xf711;" d="M-1020 1601q0 54 19 100t53.5 79.5t80.5 54t98 20.5q50 0 95.5 -20.5t81 -54t56 -79.5t20.5 -100q0 -52 -20.5 -98t-56 -79t-81.5 -53t-95 -20q-52 0 -98 20t-80.5 53t-53.5 79t-19 98zM-861 1601q0 -17 7 -33.5t20 -29.5t30 -21q18 -8 35 -8q19 0 35.5 8t29.5 21 t21 29.5t8 33.5q0 19 -8 36.5t-21 30t-30.5 20.5t-34.5 8t-34.5 -8t-30.5 -20.5t-20 -30t-7 -36.5z" />
<glyph unicode="&#xf712;" d="M-1316 1685q0 75 27.5 129.5t72 90t102 52t118.5 16.5h504q20 0 35.5 -7.5t27 -20.5t18 -31t6.5 -38t-6.5 -38t-18 -31t-27 -20t-35.5 -7h-484q-38 0 -60 -10t-33 -25.5t-14 -32t-3 -27.5q0 -9 1.5 -22t7.5 -26t17.5 -21.5t28.5 -8.5q20 0 36 11.5t22 34.5q8 33 33 50 q27 16 59 16q34 0 60 -15.5t35 -50.5q4 -20 16.5 -33t32.5 -13q17 0 28.5 10t14.5 27q3 21 13.5 35t25 23.5t32.5 13t35 0.5q22 -2 41.5 -11t33 -24t20.5 -37q6 -20 3 -48q-5 -51 -25.5 -86t-50 -57t-66 -32t-75.5 -10q-29 0 -54 8t-46.5 20.5t-39 28t-30.5 32.5 q-14 -17 -33.5 -33.5t-43.5 -28.5t-50.5 -19.5t-53.5 -7.5q-49 0 -87.5 13t-67 34.5t-48 50.5t-32 59t-18 60.5t-5.5 56.5z" />
<glyph unicode="&#xf713;" d="M-788 2033v164q0 29 11 53.5t30.5 42t44.5 27.5t54 10t55 -10t44.5 -27.5t30 -42t11.5 -53.5v-164q0 -29 -11.5 -53t-30 -43t-44.5 -28.5t-55 -9.5t-54 9.5t-44.5 28.5t-30.5 42q-11 25 -11 54z" />
<glyph unicode="&#xf714;" d="M-1038 2206q0 20 6.5 37.5t18 31t28.5 21.5t37 8h175q20 0 36.5 -8t28 -21.5t18.5 -31t7 -37.5v-83q42 2 76 13.5t60 27.5t44.5 37.5t30.5 46.5q10 23 27 38t38 23.5t44 7.5t46 -10q22 -10 37 -28t23 -39.5t7 -44.5t-11 -47q-23 -48 -64 -91.5t-98.5 -75t-132.5 -49.5 t-167 -18h-101q-20 0 -37 8t-28.5 21t-17.5 30t-6 37v98h-35q-20 0 -37 8t-28.5 21.5t-18 31t-6.5 37.5z" />
<glyph unicode="&#xf715;" d="M-1122 1990q0 69 18 119.5t47.5 84.5t68 50.5t75.5 16.5q40 0 74.5 -20.5t60.5 -51.5q26 31 62 51.5t81 20.5q26 0 52 -8.5t48 -24.5t39.5 -37.5t26.5 -50.5q13 17 24.5 42.5t18.5 55.5q6 20 18.5 36t30 26t39 13t41.5 -2q23 -6 40 -18t26 -29.5t10.5 -37.5t-4.5 -42 q-14 -48 -38.5 -93.5t-56 -83t-68.5 -63.5q-35 -26 -76 -32h-83q-28 0 -46 17.5t-20 44.5q-2 19 -4 36.5t-8.5 31t-16 21.5t-23.5 8q-23 0 -33 -15q-8 -14 -10 -39q-3 -30 -20.5 -45.5t-46.5 -15.5q-27 0 -45 15.5t-18 45.5q0 23 -11.5 38.5t-34.5 15.5q-26 0 -37.5 -23 t-13.5 -58q-1 -46 -28.5 -69t-64.5 -23q-22 0 -40 7t-29.5 19.5t-18 29t-6.5 36.5z" />
<glyph unicode="&#xf716;" d="M-976 2172q0 21 7 40.5t20 34t30.5 22.5t40.5 8h98v43q0 29 10 52.5t28.5 40t43 26t53.5 9.5t53.5 -9.5t42.5 -26t28.5 -41t10.5 -51.5v-43h98q22 0 40 -8t31 -22.5t20 -34t7 -40.5q0 -22 -7 -41.5t-20 -33t-31 -21.5t-40 -8h-98v-43q0 -29 -10.5 -53t-28.5 -40.5 t-44 -26.5q-23 -10 -52 -10t-53.5 10t-43 26.5t-28.5 40.5t-10 53v43h-98q-22 0 -40 8t-31 21.5t-20 33.5t-7 41z" />
<glyph unicode="&#xf717;" d="M-779 1894q1 28 13 54q23 48 56 88t79 70t105 49t131 25q49 3 84 -20t43 -66q4 -22 -1 -43.5t-16.5 -39t-28.5 -29.5t-40 -14q-36 -2 -63 -13.5t-45.5 -28.5t-30 -37t-17.5 -44q-8 -29 -27 -47t-43.5 -28t-53.5 -11q-28 1 -54 9q-29 10 -50.5 29.5t-31.5 44t-9 52.5z" />
<glyph unicode="&#xf718;" d="M-544 -629q0 23 8 42.5t21.5 33.5t31.5 23q16 9 39 9h231q23 0 41 -9t31.5 -23t21 -34.5t7.5 -41.5v-298q0 -29 -11 -52t-29 -40.5t-44 -27.5t-53 -10q-29 0 -54 10t-44 27.5t-29 41.5q-10 22 -10 51v190h-58q-23 0 -40 8.5t-30.5 23t-21.5 34.5t-8 42z" />
<glyph unicode="&#xf719;" d="M-945 -638q0 23 8 44.5t22.5 37.5t34.5 25q22 10 45 10h187q23 0 43 -9.5t34.5 -25.5t22.5 -36.5t8 -45.5v-73q0 -46 18 -70t58 -24q78 -1 78 94v67q0 29 10 54.5t29 43.5t45 28.5t53 10.5q29 0 54 -10.5t43 -28.5t29 -44t11 -54v-67q0 -68 -19 -128t-60 -104.5t-108 -71 t-165 -26.5q-88 0 -150.5 21t-105.5 59t-66 90.5t-28 115.5h-21q-23 0 -44 9.5t-35.5 25.5t-22.5 37t-8 45z" />
<glyph unicode="&#xf71a;" d="M-455 -694q0 39 16 74t41 60.5t59 40.5t74 15q37 0 70.5 -15t59.5 -40.5t40 -60t14 -74.5q0 -38 -14 -71t-40 -59t-59.5 -40t-70.5 -14q-39 0 -73.5 14t-59.5 40t-41 59t-16 71z" />
<glyph unicode="&#xf71d;" horiz-adv-x="1579" d="M69 1103q6 29 21 52t40.5 40t55.5 25q31 7 62 2.5t57 -19t44 -37.5q20 -23 25 -54l118 -628l168 455q8 21 21 39t30.5 31t38.5 21q22 8 45 8q49 0 83 -28q32 -28 49 -71l179 -472l73 329q9 41 12.5 72t-0.5 54.5t-20 40t-45 25.5q-19 6 -35.5 16t-28 25.5t-18.5 34.5 t-7 39q0 23 8 43t21.5 36t31.5 26q19 10 40 15q57 10 97.5 35t60.5 68q17 38 52.5 61.5t79.5 23.5q32 0 58 -11.5t46 -31.5t31.5 -47.5t11.5 -57.5q0 -35 -14 -63t-37.5 -49.5t-51.5 -39.5q-28 -17 -56 -31q51 -59 70.5 -129t-3.5 -146l-211 -716q-15 -46 -54 -74.5 t-90.5 -28.5t-90 28.5t-53.5 74.5l-191 522l-184 -522q-14 -46 -53 -74.5t-91 -28.5q-26 0 -49.5 7t-42.5 21.5t-32 33t-20 41.5l-249 954q-9 31 -3 60z" />
<glyph unicode="&#xf881;" horiz-adv-x="1964" d="M44.5 834q-4.5 16 0.5 34q4 16 15 42q29 63 75 122.5t114 104.5t158.5 72t205.5 27q72 0 132.5 -10.5t112.5 -29t94 -43t73 -53.5q35 32 76.5 56.5t85 41.5t89.5 27.5t92 10.5q95 0 183.5 -25.5t155 -76.5t106 -130.5t39.5 -185.5v-1082q0 -31 -11.5 -57t-32.5 -45.5 t-48 -29.5q-26 -10 -58 -10t-59 10t-47.5 29.5t-32.5 46t-12 56.5v1042q0 51 -14.5 88.5t-39.5 62t-58.5 36t-70.5 11.5q-33 0 -64 -11.5t-57 -35t-42 -59t-18 -82.5v-65v-987q0 -31 -13 -57t-33.5 -45.5t-47.5 -29.5t-59 -10t-59 10t-47.5 29.5t-33.5 46t-13 56.5v1007 q0 42 -13 83t-44.5 74t-82.5 54t-128 22q-57 0 -102.5 -10.5t-78 -28.5t-52 -39.5t-26.5 -42.5q38 -34 56 -87q18 -54 18 -120v-415h30q23 0 44 -9t36 -25t22 -37t7 -45q0 -23 -7 -45t-22 -37.5t-35 -25.5q-22 -9 -45 -9h-219q-23 0 -43 9.5t-35.5 25t-23 36.5t-7.5 46v534 q0 26 -8 54q-8 29 -30 55q-20 25 -31.5 41.5t-16 32.5z" />
<glyph unicode="&#xf882;" horiz-adv-x="1952" d="M43 117q0 23 8 44.5t23 37.5t35.5 25t43.5 9h27v418q0 26 -8 54q-8 29 -29 55q-21 25 -33 41.5t-15 32.5t1 34q2 16 13 42q29 63 75 122.5t114 104.5t158.5 72t207.5 27q137 0 236 -32.5t168 -86.5q65 58 146.5 88.5t170.5 30.5q95 0 178.5 -25.5t145.5 -76.5 t96.5 -130.5t34.5 -185.5v-1082q0 -31 -11.5 -57t-32 -45.5t-48.5 -29.5q-26 -10 -57 -10q-32 0 -59.5 10t-47.5 29.5t-32.5 46t-12.5 56.5v1042q0 103 -39.5 150.5t-114.5 47.5q-65 0 -104.5 -43t-50.5 -131q3 -20 4.5 -39.5t1.5 -39.5v-987q0 -31 -12.5 -57t-33.5 -45.5 t-48 -29.5t-59 -10t-59.5 10t-47.5 29.5t-32 46t-12 56.5v1007q0 55 -21 97.5t-57 72t-85 46t-105 17.5q-58 0 -103 -10.5t-77.5 -28.5t-52 -39.5t-28.5 -42.5q19 -17 33.5 -35.5t23.5 -42.5t13.5 -55t4.5 -74v-531q0 -23 -8 -45t-23 -37.5t-35 -25t-43 -9.5h-216 q-23 0 -43.5 9.5t-35.5 25t-23 36.5t-8 46z" />
<glyph d="M-1084.5 1471q-1.5 25 4.5 51q17 79 69 134.5t141 77.5q10 36 33 67.5t58.5 57t81.5 41t102 21.5q52 4 86 -21t40 -71q2 -23 -2 -44t-16.5 -38.5t-30.5 -28t-41 -13.5q-29 -3 -46 -10t-28 -19.5t-14.5 -29t-3.5 -39.5q0 -22 -7 -35.5t-18 -20.5t-24.5 -9.5t-28.5 -2.5 q-49 0 -74 -22q-26 -22 -35 -63q-7 -26 -21 -44.5t-34 -30t-46 -15.5q-26 -2 -55 4q-28 6 -47 21.5t-30.5 36t-13 45.5z" />
<glyph horiz-adv-x="1044" d="M-1020 1601q0 54 19 100t53.5 79.5t80.5 54t98 20.5q50 0 95.5 -20.5t81 -54t56 -79.5t20.5 -100q0 -52 -20.5 -98t-56 -79t-81.5 -53t-95 -20q-52 0 -98 20t-80.5 53t-53.5 79t-19 98zM-861 1601q0 -17 7 -33.5t20 -29.5t30 -21q18 -8 35 -8q19 0 35.5 8t29.5 21 t21 29.5t8 33.5q0 19 -8 36.5t-21 30t-30.5 20.5t-34.5 8t-34.5 -8t-30.5 -20.5t-20 -30t-7 -36.5zM36 906.5q1 -30.5 12.5 -56.5t34.5 -48q24 -22 52 -32q29 -11 59.5 -9t57.5 15t49 34.5t32 52.5q17 57 55 85t90 28q75 0 114 -46q39 -49 39 -152v-648q0 -32 12 -58 t33 -45.5t48.5 -30t57.5 -10.5q32 0 58.5 10.5t47.5 30t33 45.5t12 58v688q0 106 -35 185.5t-96.5 130.5t-145 76.5t-178.5 25.5q-69 0 -134.5 -17.5t-122.5 -51.5t-102 -84q-47 -51 -73 -117q-11 -29 -10 -59.5z" />
<glyph horiz-adv-x="1044" d="M-1020 1601q0 54 19 100t53.5 79.5t80.5 54t98 20.5q50 0 95.5 -20.5t81 -54t56 -79.5t20.5 -100q0 -52 -20.5 -98t-56 -79t-81.5 -53t-95 -20q-52 0 -98 20t-80.5 53t-53.5 79t-19 98zM-861 1601q0 -17 7 -33.5t20 -29.5t30 -21q18 -8 35 -8q19 0 35.5 8t29.5 21 t21 29.5t8 33.5q0 19 -8 36.5t-21 30t-30.5 20.5t-34.5 8t-34.5 -8t-30.5 -20.5t-20 -30t-7 -36.5zM36 906.5q1 -30.5 12.5 -56.5t34.5 -48q24 -22 52 -32q29 -11 59.5 -9t57.5 15t49 34.5t32 52.5q17 57 55 85t90 28q75 0 114 -46q39 -49 39 -152v-648q0 -32 12 -58 t33 -45.5t48.5 -30t57.5 -10.5q32 0 58.5 10.5t47.5 30t33 45.5t12 58v688q0 106 -35 185.5t-96.5 130.5t-145 76.5t-178.5 25.5q-69 0 -134.5 -17.5t-122.5 -51.5t-102 -84q-47 -51 -73 -117q-11 -29 -10 -59.5z" />
<glyph d="M-1011 1495q0 23 7.5 44.5t21.5 37.5t34.5 24.5t43.5 8.5h702q23 0 43.5 -8.5t35 -24.5t22 -37.5t7.5 -44.5t-7.5 -45t-22 -37t-34.5 -24q-21 -9 -44 -9h-702q-23 0 -43.5 9t-34.5 24t-21.5 37t-7.5 45z" />
<glyph d="M-1011 1495q0 23 7.5 44.5t21.5 37.5t34.5 24.5t43.5 8.5h504v63q0 29 11.5 55t30 44t44.5 28t56 10q29 0 55.5 -10t45.5 -28t30 -43q12 -27 12 -56v-157q0 -28 -11.5 -53.5t-30.5 -44t-45 -28.5t-56 -10h-646q-23 0 -43.5 9t-34.5 24t-21.5 37t-7.5 45z" />
<glyph d="M-1011 1495q0 23 7.5 44.5t21.5 37.5t34.5 24.5t43.5 8.5h371v9q0 46 17.5 87.5t47.5 72t70.5 47.5t87.5 17q46 0 87.5 -18t71.5 -49t47.5 -72.5t17.5 -87.5q0 -52 -17.5 -94.5t-47.5 -74t-71.5 -49.5t-87.5 -18h-594q-23 0 -43.5 9t-34.5 24t-21.5 37t-7.5 45z M-389 1619q0 -16 6 -30t16.5 -24t26 -16.5t30.5 -6.5q18 0 31.5 6.5t25 16.5t17.5 24.5t6 29.5q0 17 -6 31.5t-17.5 25t-26 17t-30.5 6.5q-17 0 -31.5 -6.5t-25 -17t-16.5 -25t-6 -31.5z" />
<glyph d="M-1011 1495q0 23 7.5 44.5t21.5 37.5t34.5 24.5t43.5 8.5h223v89q0 25 9.5 45.5t25 35t37 22.5t46.5 8q24 0 46 -8t37.5 -22.5t25 -35t9.5 -45.5v-89h94v89q0 25 10 45.5t25.5 35t37.5 22.5t45 8q24 0 46.5 -8t38.5 -22.5t24.5 -35t8.5 -45.5v-183q0 -28 -11.5 -53.5 t-30.5 -44t-45 -28.5t-56 -10h-646q-23 0 -43.5 9t-34.5 24t-21.5 37t-7.5 45z" />
<glyph d="M-1545 1495q0 23 8 44.5t22.5 37.5t33.5 24q21 9 44 9h880q23 0 43 -8.5t33.5 -24.5t22.5 -37.5t9 -44.5t-9 -45t-22.5 -37t-33 -24t-43.5 -9h-880q-23 0 -43 9t-34.5 24t-22.5 37t-8 45z" />
<glyph d="M-1545 1495q0 23 8 44.5t22.5 37.5t33.5 24q21 9 44 9h680v63q0 29 11.5 55t30.5 44t45 28q28 10 57 10q28 0 54 -10t45.5 -28t30.5 -43q11 -27 11 -56v-157q0 -28 -11 -53.5t-30.5 -44t-45.5 -28.5t-54 -10h-824q-23 0 -43 9t-34.5 24t-22.5 37t-8 45z" />
<glyph d="M-1545 1495q0 23 8 44.5t22.5 37.5t33.5 24q21 9 44 9h573v9q0 46 17.5 87.5t47.5 72t71 47.5q43 17 89 17t86 -18t70.5 -49t48.5 -72.5t18 -87.5q0 -52 -18 -94.5t-48.5 -74t-70.5 -49.5t-86 -18h-798q-23 0 -43 9t-34.5 24t-22.5 37t-8 45zM-720 1619q0 -16 6.5 -30 t17.5 -24t25 -16.5t32 -6.5q17 0 31.5 6.5t24.5 16.5t16.5 24.5t6.5 29.5q0 17 -6.5 31.5t-16.5 25t-25 17.5q-14 6 -31 6q-18 0 -32 -6.5t-25 -17t-17.5 -25t-6.5 -31.5z" />
<glyph d="M-1545 1495q0 23 8 44.5t22.5 37.5t33.5 24q21 9 44 9h399v89q0 25 9 45.5t25 35t37.5 22.5t46.5 8q24 0 46 -8t37.5 -22.5t25 -35t9.5 -45.5v-89h94v89q0 25 10 45.5t25.5 35t37.5 22.5t45 8q24 0 46.5 -8t38 -22.5t24.5 -35t9 -45.5v-183q0 -28 -11.5 -53.5t-30.5 -44 t-45 -28.5t-56 -10h-822q-23 0 -43 9t-34.5 24t-22.5 37t-8 45z" />
<glyph d="M-752 2033v166q0 29 11.5 53.5t30.5 42.5t45 28t54 10q29 0 54.5 -10t44 -28t29.5 -42.5t11 -53.5v-166q0 -29 -11 -53t-29.5 -43t-44 -28.5t-54.5 -9.5q-28 0 -54 9.5t-45 28.5t-30 42q-12 25 -12 54z" />
<glyph d="M-1009 2206q0 20 6.5 37.5t18 31t28.5 21.5t37 8h175q20 0 36.5 -8t28 -21.5t18.5 -31t7 -37.5v-83q42 2 76 13.5t60 27.5t44.5 37.5t29.5 46.5q11 23 28 38t38 23.5t44 7.5t46 -10q22 -10 37 -28t23 -39.5t7 -44.5t-11 -47q-23 -48 -64 -91.5t-98.5 -75t-132.5 -49.5 t-167 -18h-101q-20 0 -37.5 8t-29 21t-17 30t-5.5 37v98h-35q-20 0 -37 8t-28.5 21.5t-18 31t-6.5 37.5z" />
<glyph d="M-1090 1990q0 69 18 119.5t47.5 84.5t67.5 50.5t76 16.5q40 0 74.5 -20.5t60.5 -51.5q26 31 62 51.5t81 20.5q26 0 51.5 -8.5t48 -24.5t40 -37.5t25.5 -50.5q13 17 24.5 42.5t18.5 55.5q6 20 19 36t30.5 26t39 13t41.5 -2q23 -6 39.5 -18t26 -29.5t11 -37.5t-4.5 -42 q-14 -48 -38.5 -93.5t-56.5 -83t-68 -63.5t-76 -32h-84q-27 0 -45 17.5t-21 44.5q-1 19 -3.5 36.5t-8.5 31t-15.5 21.5t-24.5 8q-23 0 -32 -15q-8 -14 -11 -39q-3 -30 -20 -45.5t-46 -15.5q-27 0 -45 15.5t-18 45.5q0 23 -11.5 38.5t-34.5 15.5q-26 0 -37.5 -23t-13.5 -58 q-1 -46 -28.5 -69t-64.5 -23q-22 0 -40 7t-29.5 19.5t-18 29t-6.5 36.5z" />
<glyph d="M-942 2172q0 21 7.5 40.5t20.5 34t30 22.5t40 8h98v43q0 29 10 52.5t29 40t43.5 26t52.5 9.5q29 0 53.5 -9.5t42.5 -26t29 -41t11 -51.5v-43h98q21 0 39 -8t31 -22.5t20.5 -34t7.5 -40.5q0 -22 -7.5 -41.5t-20.5 -33t-31 -21.5t-39 -8h-98v-43q0 -29 -11 -53t-29 -40.5 t-43 -26.5q-24 -10 -53 -10q-28 0 -52.5 10t-43.5 26.5t-29 40.5t-10 53v43h-98q-21 0 -39 8t-31 21.5t-20.5 33.5t-7.5 41z" />
<glyph d="M-1528 1495q0 23 8 44.5t22.5 37.5t33.5 24q21 9 44 9h1218q23 0 43.5 -8.5t35 -24.5t22 -37.5t7.5 -44.5t-7.5 -45t-22 -37t-34.5 -24q-21 -9 -44 -9h-1218q-23 0 -43 9t-34.5 24t-22.5 37t-8 45z" />
<glyph d="M-1528 1495q0 23 8 44.5t22.5 37.5t33.5 24q21 9 44 9h1020v63q0 29 11.5 55t30 44t44.5 28t56 10q29 0 55.5 -10t45.5 -28t30 -43q12 -27 12 -56v-157q0 -28 -11.5 -53.5t-30.5 -44t-45 -28.5t-56 -10h-1162q-23 0 -43 9t-34.5 24t-22.5 37t-8 45z" />
<glyph d="M-1528 1495q0 23 8 44.5t22.5 37.5t33.5 24q21 9 44 9h890v9q0 46 17.5 87.5t47.5 72t70.5 47.5t87.5 17q46 0 87 -18t71.5 -49t47.5 -72.5t17 -87.5q0 -52 -17 -94.5t-47.5 -74t-71.5 -49.5t-87 -18h-1113q-23 0 -43 9t-34.5 24t-22.5 37t-8 45zM-386 1619q0 -16 6 -30 t17.5 -24t25.5 -16.5t30 -6.5q18 0 31.5 6.5t25 16.5t17 24.5t5.5 29.5q0 17 -5.5 31.5t-17 25t-26 17t-30.5 6.5q-17 0 -30.5 -6.5t-25 -17t-17.5 -25t-6 -31.5z" />
<glyph d="M-1528 1495q0 23 8 44.5t22.5 37.5t33.5 24q21 9 44 9h739v89q0 25 9.5 45.5t25 35t37 22.5t46.5 8q24 0 46 -8t37.5 -22.5t25 -35t9.5 -45.5v-89h94v89q0 25 10 45.5t25.5 35t37.5 22.5t45 8q24 0 46.5 -8t38.5 -22.5t24.5 -35t8.5 -45.5v-183q0 -28 -11.5 -53.5 t-30.5 -44t-45 -28.5t-56 -10h-1162q-23 0 -43 9t-34.5 24t-22.5 37t-8 45z" />
<glyph d="M-392 1914v183q0 28 11 52.5t30.5 42.5t44.5 27.5t54 9.5t54 -9.5t44 -27.5t30.5 -42.5t11.5 -52.5v-183q0 -29 -11.5 -53.5t-30.5 -42.5t-44 -28t-54 -10t-54 10t-44.5 28t-30.5 42t-11 54z" />
<glyph d="M-732 2088q0 20 6 37.5t18 31t29 21.5t37 8h175q21 0 36.5 -8t28 -21.5t19 -31t6.5 -37.5v-84q40 0 74.5 12t61 29t45.5 38.5t30 46.5q10 23 27.5 38t37.5 23.5t43 7t46 -9.5q22 -10 38 -28t24 -39.5t7 -45.5q1 -23 -11 -46q-23 -49 -64.5 -92t-99.5 -74.5t-132.5 -49.5 t-165.5 -18h-102q-21 0 -38 8t-28.5 20.5t-17.5 30t-6 37.5v98h-34q-20 0 -37 8t-29 21.5t-18 31t-6 37.5z" />
<glyph d="M-829 1872q0 69 18 119.5t47.5 83.5t66.5 49.5t77.5 16.5t74.5 -19q35 -20 61 -51q26 31 61.5 50.5t79.5 19.5q26 0 52 -8t48.5 -23.5t39 -38t24.5 -51.5q13 18 24.5 43.5t19.5 56.5q5 20 19 36t32 26t38 12.5t42 -2.5q23 -6 39.5 -18.5t25 -29.5t10.5 -37q1 -22 -5 -42 q-14 -49 -38 -93.5t-55 -82t-68 -63.5t-78 -33h-80q-28 0 -47 18q-17 18 -20 44q-1 18 -4.5 36t-9.5 31t-16 22t-24 9q-23 0 -32 -15q-9 -17 -12 -40q-2 -30 -19.5 -46t-43.5 -16q-27 0 -46 17q-20 16 -20 45q0 23 -11 39t-34 16q-26 0 -37.5 -23t-12.5 -58 q-2 -46 -28.5 -70t-66.5 -24q-22 0 -38.5 7.5t-28.5 19.5t-18.5 29.5t-6.5 37.5z" />
<glyph d="M-585 2053q0 22 7.5 41.5t20.5 34t30 22.5t40 8h98v43q0 29 10 52.5t29 40t43.5 26t53.5 9.5q28 0 52.5 -9.5t42.5 -26t29 -41t11 -51.5v-43h98q21 0 39 -8t31 -22.5t20.5 -34t7.5 -41.5q0 -21 -7.5 -40.5t-20.5 -33t-31 -21.5t-39 -8h-98v-43q0 -29 -11 -53t-29 -40.5 t-43 -26.5q-24 -10 -52 -10q-29 0 -53.5 10t-43.5 26.5t-29 40.5t-10 53v43h-98q-21 0 -39 8t-31 21.5t-20.5 33.5t-7.5 40z" />
<glyph d="M-780 1914v183q0 28 10.5 52.5t30 42.5t44.5 27.5t54 9.5t54 -9.5t44 -27.5t30.5 -42.5t11.5 -52.5v-183q0 -29 -11.5 -53.5t-30.5 -42.5t-44 -28t-54 -10t-54 10t-44.5 28t-30 42t-10.5 54z" />
<glyph d="M-1040 2088q0 20 7.5 37.5t19 31t28 21.5t36.5 8h174q20 0 37.5 -8t29 -21.5t18 -31t6.5 -37.5v-84q40 0 74.5 12t61.5 29t45.5 38.5t30.5 46.5q10 23 26.5 38t38 23.5t44.5 7t45 -9.5q21 -10 37 -28t23 -39.5t7 -45t-11 -46.5q-23 -49 -63.5 -92t-98 -74.5t-132.5 -49.5 t-167 -18h-101q-20 0 -37 8t-28.5 20.5t-18 30t-6.5 37.5v98h-35q-20 0 -36.5 8t-28 21.5t-19 31t-7.5 37.5z" />
<glyph d="M-1123 1872q0 69 18.5 119.5t47.5 83.5t67 49.5t77 16.5q40 0 74.5 -19.5t60.5 -50.5q26 31 62 50.5t80 19.5q25 0 51 -8t49 -23.5t39.5 -38t25.5 -51.5q13 18 24.5 43.5t18.5 56.5q6 20 19.5 36t31 26t38.5 13q22 2 42 -3q23 -6 39 -18.5t25.5 -29.5t10.5 -37 q2 -22 -4 -42q-14 -49 -38 -93.5t-55.5 -82t-69 -63.5t-76.5 -33h-82q-28 0 -46 18t-20 44q-2 18 -5 36t-9.5 31t-15.5 22t-24 9q-23 0 -32 -15q-9 -17 -11 -40q-3 -30 -20 -46t-45 -16q-27 0 -45 16.5t-20 45.5q0 23 -10.5 39t-33.5 16q-26 0 -37.5 -23t-14.5 -58 q-1 -46 -28 -70t-66 -24q-21 0 -38.5 7.5t-29 19.5t-18.5 29.5t-7 37.5z" />
<glyph d="M-971 2053q0 22 7.5 41.5t20.5 34t30 22.5t40 8h98v43q0 29 10 52.5t29 40t43.5 26t53.5 9.5q28 0 52.5 -9.5t42.5 -26t29 -41t11 -51.5v-43h98q22 0 40 -8t30.5 -22.5t20 -34t7.5 -41.5q0 -21 -7.5 -40.5t-20 -33t-30.5 -21.5t-40 -8h-98v-43q0 -29 -11 -53t-29 -40.5 t-43 -26.5q-24 -10 -52 -10q-29 0 -53.5 10t-43.5 26.5t-29 40.5t-10 53v43h-98q-21 0 -39 8t-31 21.5t-20.5 33.5t-7.5 40z" />
<glyph d="M-755 -252q0 23 7.5 42.5t20.5 34t31.5 23t41.5 8.5h229q23 0 41 -8.5t31 -23t21 -34.5t8 -42v-304q0 -29 -11 -53.5t-29.5 -41.5t-43 -26.5t-53.5 -9.5t-53.5 9.5t-43 26.5t-30 41.5t-11.5 53.5v196h-55q-23 0 -41.5 8.5t-31.5 23t-20.5 34.5t-7.5 42z" />
<glyph d="M-991 -262q0 23 7.5 44.5t21.5 37.5t34.5 25.5t44.5 9.5h187q24 0 44.5 -9.5t35 -25.5t21.5 -37q7 -22 7 -45v-72q0 -46 19 -70.5t59 -24.5q77 0 77 95v66q0 29 10.5 54t29.5 43t44 30q24 11 52 11q29 0 54.5 -11.5t43.5 -29.5t29.5 -43t11.5 -54v-66q0 -68 -19 -127.5 t-60.5 -105t-108 -72t-164.5 -26.5q-88 0 -151 21.5t-105.5 59t-65.5 90.5t-29 117h-22q-23 0 -44 8.5t-35 24.5t-21.5 37.5t-7.5 44.5z" />
<glyph d="M-672 -279q0 39 15 72.5t41 59.5t59.5 40.5t72.5 14.5q38 0 71.5 -14.5t59 -40.5t40.5 -60.5t15 -72t-15 -72t-40.5 -59t-59 -40.5t-71.5 -16q-39 0 -72.5 16t-59.5 40.5t-41 59t-15 72.5z" />
<glyph d="M-720 -252q0 23 8 42.5t21.5 34t31.5 22.5q17 9 40 9h230q23 0 41 -8.5t32 -23t21 -34.5t7 -42v-304q0 -29 -11 -53.5t-29 -41.5t-43.5 -26.5t-53.5 -9.5q-29 0 -54 9.5t-43.5 26.5t-29 41.5t-10.5 53.5v196h-57q-23 0 -40.5 8.5t-31 23t-21.5 34.5t-8 42z" />
<glyph d="M-1175 -262q0 23 8.5 44.5t23 37.5t34.5 25.5t43 9.5h188q23 0 43 -9.5t34.5 -25.5t22.5 -37q9 -22 9 -45v-72q0 -46 18 -70.5t58 -24.5q77 0 77 95v66q0 29 10.5 54t29.5 43t44 29.5t54 11.5t53.5 -11.5t43 -29.5t28.5 -43t10 -54v-66q0 -68 -18 -127.5t-59 -105 t-108.5 -72t-164.5 -26.5q-87 0 -150.5 21.5t-107 59t-65.5 90.5q-21 53 -27 117h-23q-23 0 -43 8.5t-34.5 24.5t-23 37.5t-8.5 44.5z" />
<glyph d="M-672 -279q0 39 15 72.5t41 59.5t59.5 40.5t72.5 14.5q38 0 71.5 -14.5t59 -40.5t40.5 -60.5t15 -72t-15 -72t-40.5 -59t-59 -40.5t-71.5 -16q-39 0 -72.5 16t-59.5 40.5t-41 59t-15 72.5z" />
<glyph d="M-922 1506v104q0 27 10.5 50t28.5 39.5t42.5 26t51.5 9.5t51 -9.5t42.5 -26t28.5 -39.5t10 -50h838q23 0 43.5 -8.5t35 -24.5t23 -37.5t8.5 -44.5t-8.5 -45t-23 -37t-34.5 -24q-21 -9 -44 -9h-970q-27 0 -51.5 10t-42.5 25.5t-28.5 38.5t-10.5 52z" />
<glyph d="M-780 2033v167q0 29 10.5 53.5t30 42t44.5 27.5t54 10t54 -10t44 -27.5t30.5 -42t11.5 -53.5v-167q0 -29 -11.5 -53t-30.5 -43t-44 -28.5t-54 -9.5t-54 9.5t-44.5 28.5t-30.5 42q-10 25 -10 54z" />
<glyph d="M-1040 2206q0 20 7.5 37.5t19 31t28 21.5t36.5 8h174q20 0 37.5 -8t29 -21.5t18 -31t6.5 -37.5v-83q40 0 75.5 11.5t63 28.5t46 38.5t30.5 46.5q10 23 26.5 38t36.5 23.5t43 7.5t45 -10q21 -10 37 -28t23 -39.5t7 -44.5t-11 -47q-23 -48 -63.5 -91.5t-98 -75 t-132.5 -49.5t-167 -18h-101q-20 0 -37 8t-28.5 21t-18 30t-6.5 37v98h-35q-20 0 -36.5 8t-28 21.5t-19 31t-7.5 37.5z" />
<glyph d="M-1122 1990q0 69 18 119.5t47.5 84.5t68 50.5t75.5 16.5q40 0 74.5 -20.5t60.5 -51.5q26 31 62 51.5t81 20.5q26 0 52 -8.5t48 -24.5t39.5 -37.5t26.5 -50.5q13 17 24.5 42.5t18.5 55.5q6 20 18.5 36t30 26t39 13t41.5 -2q23 -6 40 -18t26 -29.5t10.5 -37.5t-4.5 -42 q-14 -48 -38.5 -93.5t-56 -83t-68.5 -63.5q-35 -26 -76 -32h-83q-28 0 -46 17.5t-20 44.5q-2 19 -4 36.5t-8.5 31t-16 21.5t-23.5 8q-23 0 -33 -15q-8 -14 -10 -39q-3 -30 -20.5 -45.5t-46.5 -15.5q-27 0 -45 15.5t-18 45.5q0 23 -11.5 38.5t-34.5 15.5q-26 0 -37.5 -23 t-13.5 -58q-1 -46 -28.5 -69t-64.5 -23q-22 0 -40 7t-29.5 19.5t-18 29t-6.5 36.5z" />
<glyph d="M-971 2172q0 21 7.5 40.5t20.5 34t30 22.5t40 8h98v43q0 29 10 52.5t29 40t43.5 26t53.5 9.5q28 0 52.5 -9.5t42.5 -26t29 -41t11 -51.5v-43h98q22 0 40 -8t30.5 -22.5t20 -34t7.5 -40.5q0 -22 -7.5 -41.5t-20 -33t-30.5 -21.5t-40 -8h-98v-43q0 -29 -11 -53t-29 -40.5 t-43 -26.5q-24 -10 -52 -10q-29 0 -53.5 10t-43.5 26.5t-29 40.5t-10 53v43h-98q-21 0 -39 8t-31 21.5t-20.5 33.5t-7.5 41z" />
<glyph d="M-922 1506v104q0 27 10.5 50t28.5 39.5t42.5 26t51.5 9.5t51 -9.5t42.5 -26t28.5 -39.5t10 -50h684q23 0 43.5 -8.5t35 -24.5t22 -37.5t7.5 -44.5t-7.5 -45t-22 -37t-34 -24t-44.5 -9h-816q-27 0 -51.5 10t-42.5 25.5t-28.5 38.5t-10.5 52z" />
<glyph d="M-865 2184q0 21 6.5 39t18 31t28.5 20t37 7h175q20 0 36.5 -7t28 -20t18.5 -31t7 -39v-82q42 3 76 13t60 27.5t44.5 38.5t29.5 45q11 23 28 39t38 23t44 7t46 -11q22 -10 37 -27.5t23 -38.5t7 -45.5t-11 -45.5q-23 -49 -64 -93t-98.5 -75t-132.5 -49t-167 -18h-101 q-20 0 -37.5 7.5t-29 21t-17 31.5t-5.5 38v98h-35q-20 0 -37 7t-28.5 20t-18 31t-6.5 38z" />
<glyph d="M-877 1968q0 70 18 121t47.5 84t67.5 49t76 16q40 0 74.5 -19.5t60.5 -51.5q26 32 62 51.5t81 19.5q26 0 52 -8t48 -23t39.5 -38t25.5 -52q13 17 24.5 43t19.5 56q5 20 18 36.5t30.5 26t39 13t41.5 -1.5q23 -6 39.5 -19t26 -30.5t11 -37.5t-4.5 -40q-14 -49 -38.5 -94.5 t-56.5 -83t-68 -62.5t-76 -34h-83q-28 0 -46 18t-21 46q-1 18 -3 35.5t-8.5 31t-16 21.5t-23.5 8q-24 0 -33 -15q-8 -15 -11 -38q-3 -30 -20 -47t-46 -17q-27 0 -45 17.5t-18 46.5q0 23 -11.5 38t-34.5 15q-26 0 -37.5 -22.5t-13.5 -58.5q-1 -46 -28.5 -69.5t-64.5 -23.5 q-22 0 -40 7t-29.5 20t-18 30.5t-6.5 35.5z" />
<glyph d="M-1112 1495q0 23 8 44.5t22 37.5t34 24.5t43 8.5h798q23 0 43 -8.5t33.5 -24.5t21.5 -37.5t8 -44.5t-8 -45t-21.5 -37t-33.5 -24t-43 -9h-798q-23 0 -43 9t-34 24t-22 37t-8 45z" />
<glyph d="M-1112 1495q0 23 8 44.5t22 37.5t34 24.5t43 8.5h605v63q0 29 11.5 55t30 44t44.5 28t56 10q29 0 55.5 -10t45.5 -28t30 -43q12 -27 12 -56v-157q0 -28 -11.5 -53.5t-30.5 -44t-45 -28.5t-56 -10h-747q-23 0 -43 9t-34 24t-22 37t-8 45z" />
<glyph d="M-1112 1495q0 23 8 44.5t22 37.5t34 24.5t43 8.5h472v9q0 46 17.5 87.5t47.5 72t70.5 47.5t87.5 17q46 0 87.5 -18t71.5 -49t47.5 -72.5t17.5 -87.5q0 -52 -17.5 -94.5t-47.5 -74t-71.5 -49.5t-87.5 -18h-695q-23 0 -43 9t-34 24t-22 37t-8 45zM-389 1619q0 -16 6 -30 t16.5 -24t26 -16.5t30.5 -6.5q18 0 31.5 6.5t25 16.5t17.5 24.5t6 29.5q0 17 -6 31.5t-17.5 25t-26 17t-30.5 6.5q-17 0 -31.5 -6.5t-25 -17t-16.5 -25t-6 -31.5z" />
<glyph d="M-1112 1495q0 23 8 44.5t22 37.5t34 24.5t43 8.5h324v89q0 25 9.5 45.5t25 35t37 22.5t46.5 8q24 0 46 -8t37.5 -22.5t25 -35t9.5 -45.5v-89h94v89q0 25 10 45.5t25.5 35t37.5 22.5t45 8q24 0 46.5 -8t38.5 -22.5t24.5 -35t8.5 -45.5v-183q0 -28 -11.5 -53.5t-30.5 -44 t-45 -28.5t-56 -10h-747q-23 0 -43 9t-34 24t-22 37t-8 45z" />
<glyph d="M-881 2033v164q0 29 11.5 53.5t30 42t44.5 27.5t55 10t54 -10t43.5 -27.5t29.5 -42t11 -53.5v-164q0 -29 -11 -53t-29.5 -43t-43.5 -28.5t-54 -9.5t-55 9.5t-44.5 28.5t-30.5 42q-11 25 -11 54z" />
<glyph d="M-1071 2172q0 21 7 40.5t20 34t31.5 22.5t39.5 8h97v43q0 29 12 52.5t30 40t43 26t52 9.5q29 0 53 -9.5t42.5 -26t29.5 -41t11 -51.5v-43h98q21 0 39 -8t31 -22.5t20 -34t7 -40.5q0 -22 -7 -41.5t-20 -33t-31 -21.5t-39 -8h-98v-43q0 -29 -11 -53t-29.5 -40.5t-43 -26.5 t-53.5 -10t-53.5 10t-42.5 26.5t-29 40.5t-11 53v43h-97q-22 0 -40 8t-31 21.5t-20 33.5t-7 41z" />
</font>
</defs>
</svg>
